<mxfile host="app.diagrams.net" agent="Mozilla/5.0 (Macintosh; Intel Mac OS X 10_15_7) AppleWebKit/537.36 (KHTML, like Gecko) Chrome/129.0.0.0 Safari/537.36" version="24.7.17">
  <diagram name="Page-1" id="TN2gYZlhE8oYbJTbPK3X">
    <mxGraphModel dx="1432" dy="1789" grid="1" gridSize="10" guides="1" tooltips="1" connect="1" arrows="1" fold="1" page="1" pageScale="1" pageWidth="1169" pageHeight="827" math="0" shadow="0">
      <root>
        <mxCell id="0" />
        <mxCell id="1" parent="0" />
        <mxCell id="fbrefnu1O2uLkhK6T9n--52" value="&lt;font style=&quot;font-size: 16px;&quot;&gt;Availability zone 1&lt;/font&gt;" style="sketch=0;outlineConnect=0;gradientColor=none;html=1;whiteSpace=wrap;fontSize=12;fontStyle=0;shape=mxgraph.aws4.group;grIcon=mxgraph.aws4.group_availability_zone;strokeColor=#545B64;fillColor=none;verticalAlign=top;align=left;spacingLeft=30;fontColor=#545B64;" vertex="1" parent="1">
          <mxGeometry x="823.86" y="150" width="306.14" height="770" as="geometry" />
        </mxCell>
        <mxCell id="fbrefnu1O2uLkhK6T9n--87" value="&lt;font style=&quot;font-size: 14px;&quot;&gt;Private subnet&lt;/font&gt;" style="points=[[0,0],[0.25,0],[0.5,0],[0.75,0],[1,0],[1,0.25],[1,0.5],[1,0.75],[1,1],[0.75,1],[0.5,1],[0.25,1],[0,1],[0,0.75],[0,0.5],[0,0.25]];outlineConnect=0;gradientColor=none;html=1;whiteSpace=wrap;fontSize=12;fontStyle=0;container=1;pointerEvents=0;collapsible=0;recursiveResize=0;shape=mxgraph.aws4.group;grIcon=mxgraph.aws4.group_security_group;grStroke=0;strokeColor=#00A4A6;fillColor=#E6F6F7;verticalAlign=top;align=left;spacingLeft=30;fontColor=#147EBA;dashed=0;" vertex="1" parent="1">
          <mxGeometry x="850" y="530" width="250" height="390" as="geometry" />
        </mxCell>
        <mxCell id="fbrefnu1O2uLkhK6T9n--53" value="Public subnet" style="points=[[0,0],[0.25,0],[0.5,0],[0.75,0],[1,0],[1,0.25],[1,0.5],[1,0.75],[1,1],[0.75,1],[0.5,1],[0.25,1],[0,1],[0,0.75],[0,0.5],[0,0.25]];outlineConnect=0;gradientColor=none;html=1;whiteSpace=wrap;fontSize=12;fontStyle=0;container=1;pointerEvents=0;collapsible=0;recursiveResize=0;shape=mxgraph.aws4.group;grIcon=mxgraph.aws4.group_security_group;grStroke=0;strokeColor=#7AA116;fillColor=#F2F6E8;verticalAlign=top;align=left;spacingLeft=30;fontColor=#248814;dashed=0;" vertex="1" parent="1">
          <mxGeometry x="845" y="190" width="255" height="300" as="geometry" />
        </mxCell>
        <mxCell id="fbrefnu1O2uLkhK6T9n--56" value="" style="outlineConnect=0;dashed=0;verticalLabelPosition=bottom;verticalAlign=top;align=center;html=1;shape=mxgraph.aws3.application_load_balancer;fillColor=#F58536;gradientColor=none;" vertex="1" parent="1">
          <mxGeometry x="945.1700000000001" y="240" width="49.83" height="52" as="geometry" />
        </mxCell>
        <mxCell id="fbrefnu1O2uLkhK6T9n--57" value="&lt;font style=&quot;font-size: 16px;&quot;&gt;Frontend LB&lt;/font&gt;" style="text;html=1;align=center;verticalAlign=middle;whiteSpace=wrap;rounded=0;" vertex="1" parent="1">
          <mxGeometry x="902.5" y="290" width="140" height="30" as="geometry" />
        </mxCell>
        <mxCell id="fbrefnu1O2uLkhK6T9n--2" value="" style="verticalLabelPosition=bottom;html=1;verticalAlign=top;align=center;strokeColor=none;fillColor=#00BEF2;shape=mxgraph.azure.github_code;pointerEvents=1;" vertex="1" parent="1">
          <mxGeometry x="31" y="500" width="50" height="50" as="geometry" />
        </mxCell>
        <mxCell id="fbrefnu1O2uLkhK6T9n--5" value="AWS Account" style="points=[[0,0],[0.25,0],[0.5,0],[0.75,0],[1,0],[1,0.25],[1,0.5],[1,0.75],[1,1],[0.75,1],[0.5,1],[0.25,1],[0,1],[0,0.75],[0,0.5],[0,0.25]];outlineConnect=0;gradientColor=none;html=1;whiteSpace=wrap;fontSize=12;fontStyle=0;container=1;pointerEvents=0;collapsible=0;recursiveResize=0;shape=mxgraph.aws4.group;grIcon=mxgraph.aws4.group_account;strokeColor=#CD2264;fillColor=none;verticalAlign=top;align=left;spacingLeft=30;fontColor=#CD2264;dashed=0;" vertex="1" parent="1">
          <mxGeometry x="170" y="-20" width="1040" height="990" as="geometry" />
        </mxCell>
        <mxCell id="fbrefnu1O2uLkhK6T9n--1" value="&lt;font style=&quot;font-size: 16px;&quot;&gt;VPC&lt;/font&gt;" style="points=[[0,0],[0.25,0],[0.5,0],[0.75,0],[1,0],[1,0.25],[1,0.5],[1,0.75],[1,1],[0.75,1],[0.5,1],[0.25,1],[0,1],[0,0.75],[0,0.5],[0,0.25]];outlineConnect=0;gradientColor=none;html=1;whiteSpace=wrap;fontSize=12;fontStyle=0;container=1;pointerEvents=0;collapsible=0;recursiveResize=0;shape=mxgraph.aws4.group;grIcon=mxgraph.aws4.group_vpc2;strokeColor=#8C4FFF;fillColor=none;verticalAlign=top;align=left;spacingLeft=30;fontColor=#AAB7B8;dashed=0;" vertex="1" parent="fbrefnu1O2uLkhK6T9n--5">
          <mxGeometry x="230" y="140" width="755" height="830" as="geometry" />
        </mxCell>
        <mxCell id="fbrefnu1O2uLkhK6T9n--14" value="&lt;font style=&quot;font-size: 14px;&quot;&gt;Private subnet&lt;/font&gt;" style="points=[[0,0],[0.25,0],[0.5,0],[0.75,0],[1,0],[1,0.25],[1,0.5],[1,0.75],[1,1],[0.75,1],[0.5,1],[0.25,1],[0,1],[0,0.75],[0,0.5],[0,0.25]];outlineConnect=0;gradientColor=none;html=1;whiteSpace=wrap;fontSize=12;fontStyle=0;container=1;pointerEvents=0;collapsible=0;recursiveResize=0;shape=mxgraph.aws4.group;grIcon=mxgraph.aws4.group_security_group;grStroke=0;strokeColor=#00A4A6;fillColor=#E6F6F7;verticalAlign=top;align=left;spacingLeft=30;fontColor=#147EBA;dashed=0;" vertex="1" parent="fbrefnu1O2uLkhK6T9n--1">
          <mxGeometry x="110" y="400" width="250" height="390" as="geometry" />
        </mxCell>
        <mxCell id="fbrefnu1O2uLkhK6T9n--80" value="" style="rounded=0;whiteSpace=wrap;html=1;fillColor=none;dashed=1;" vertex="1" parent="fbrefnu1O2uLkhK6T9n--1">
          <mxGeometry x="150" y="440" width="510" height="80" as="geometry" />
        </mxCell>
        <mxCell id="fbrefnu1O2uLkhK6T9n--11" value="&lt;font style=&quot;font-size: 16px;&quot;&gt;Availability zone 1&lt;/font&gt;" style="sketch=0;outlineConnect=0;gradientColor=none;html=1;whiteSpace=wrap;fontSize=12;fontStyle=0;shape=mxgraph.aws4.group;grIcon=mxgraph.aws4.group_availability_zone;strokeColor=#545B64;fillColor=none;verticalAlign=top;align=left;spacingLeft=30;fontColor=#545B64;" vertex="1" parent="fbrefnu1O2uLkhK6T9n--1">
          <mxGeometry x="83.86" y="30" width="306.14" height="770" as="geometry" />
        </mxCell>
        <mxCell id="fbrefnu1O2uLkhK6T9n--10" value="Public subnet" style="points=[[0,0],[0.25,0],[0.5,0],[0.75,0],[1,0],[1,0.25],[1,0.5],[1,0.75],[1,1],[0.75,1],[0.5,1],[0.25,1],[0,1],[0,0.75],[0,0.5],[0,0.25]];outlineConnect=0;gradientColor=none;html=1;whiteSpace=wrap;fontSize=12;fontStyle=0;container=1;pointerEvents=0;collapsible=0;recursiveResize=0;shape=mxgraph.aws4.group;grIcon=mxgraph.aws4.group_security_group;grStroke=0;strokeColor=#7AA116;fillColor=#F2F6E8;verticalAlign=top;align=left;spacingLeft=30;fontColor=#248814;dashed=0;" vertex="1" parent="fbrefnu1O2uLkhK6T9n--1">
          <mxGeometry x="105" y="70" width="255" height="300" as="geometry" />
        </mxCell>
        <mxCell id="fbrefnu1O2uLkhK6T9n--16" value="&lt;font style=&quot;font-size: 16px;&quot;&gt;EC2&lt;/font&gt;" style="points=[[0,0],[0.25,0],[0.5,0],[0.75,0],[1,0],[1,0.25],[1,0.5],[1,0.75],[1,1],[0.75,1],[0.5,1],[0.25,1],[0,1],[0,0.75],[0,0.5],[0,0.25]];outlineConnect=0;gradientColor=none;html=1;whiteSpace=wrap;fontSize=12;fontStyle=0;container=1;pointerEvents=0;collapsible=0;recursiveResize=0;shape=mxgraph.aws4.group;grIcon=mxgraph.aws4.group_ec2_instance_contents;strokeColor=#D86613;fillColor=none;verticalAlign=top;align=left;spacingLeft=30;fontColor=#D86613;dashed=0;" vertex="1" parent="fbrefnu1O2uLkhK6T9n--1">
          <mxGeometry x="140" y="230" width="520" height="100" as="geometry" />
        </mxCell>
        <mxCell id="fbrefnu1O2uLkhK6T9n--19" value="" style="outlineConnect=0;dashed=0;verticalLabelPosition=bottom;verticalAlign=top;align=center;html=1;shape=mxgraph.aws3.application_load_balancer;fillColor=#F58536;gradientColor=none;" vertex="1" parent="fbrefnu1O2uLkhK6T9n--1">
          <mxGeometry x="205.17000000000002" y="120" width="49.83" height="52" as="geometry" />
        </mxCell>
        <mxCell id="fbrefnu1O2uLkhK6T9n--22" value="&lt;font style=&quot;font-size: 16px;&quot;&gt;Frontend LB&lt;/font&gt;" style="text;html=1;align=center;verticalAlign=middle;whiteSpace=wrap;rounded=0;" vertex="1" parent="fbrefnu1O2uLkhK6T9n--1">
          <mxGeometry x="162.5" y="170" width="140" height="30" as="geometry" />
        </mxCell>
        <mxCell id="fbrefnu1O2uLkhK6T9n--24" value="" style="image;sketch=0;aspect=fixed;html=1;points=[];align=center;fontSize=12;image=img/lib/mscae/Docker.svg;" vertex="1" parent="fbrefnu1O2uLkhK6T9n--1">
          <mxGeometry x="219.99999999999997" y="250" width="50" height="41" as="geometry" />
        </mxCell>
        <mxCell id="fbrefnu1O2uLkhK6T9n--59" value="" style="rounded=0;whiteSpace=wrap;html=1;fillColor=none;dashed=1;" vertex="1" parent="fbrefnu1O2uLkhK6T9n--1">
          <mxGeometry x="140" y="110" width="520" height="90" as="geometry" />
        </mxCell>
        <mxCell id="fbrefnu1O2uLkhK6T9n--77" value="Internet&#xa;gateway" style="sketch=0;outlineConnect=0;fontColor=#232F3E;gradientColor=none;strokeColor=#232F3E;fillColor=#ffffff;dashed=0;verticalLabelPosition=bottom;verticalAlign=top;align=center;html=1;fontSize=12;fontStyle=0;aspect=fixed;shape=mxgraph.aws4.resourceIcon;resIcon=mxgraph.aws4.internet_gateway;" vertex="1" parent="fbrefnu1O2uLkhK6T9n--1">
          <mxGeometry x="-30" y="120" width="60" height="60" as="geometry" />
        </mxCell>
        <mxCell id="fbrefnu1O2uLkhK6T9n--79" value="" style="sketch=0;points=[[0,0,0],[0.25,0,0],[0.5,0,0],[0.75,0,0],[1,0,0],[0,1,0],[0.25,1,0],[0.5,1,0],[0.75,1,0],[1,1,0],[0,0.25,0],[0,0.5,0],[0,0.75,0],[1,0.25,0],[1,0.5,0],[1,0.75,0]];outlineConnect=0;fontColor=#232F3E;fillColor=#8C4FFF;strokeColor=#ffffff;dashed=0;verticalLabelPosition=bottom;verticalAlign=top;align=center;html=1;fontSize=12;fontStyle=0;aspect=fixed;shape=mxgraph.aws4.resourceIcon;resIcon=mxgraph.aws4.api_gateway;" vertex="1" parent="fbrefnu1O2uLkhK6T9n--1">
          <mxGeometry x="381" y="450" width="58" height="58" as="geometry" />
        </mxCell>
        <mxCell id="fbrefnu1O2uLkhK6T9n--86" value="&lt;font style=&quot;font-size: 14px;&quot;&gt;EKS&lt;/font&gt;" style="points=[[0,0],[0.25,0],[0.5,0],[0.75,0],[1,0],[1,0.25],[1,0.5],[1,0.75],[1,1],[0.75,1],[0.5,1],[0.25,1],[0,1],[0,0.75],[0,0.5],[0,0.25]];outlineConnect=0;gradientColor=none;html=1;whiteSpace=wrap;fontSize=12;fontStyle=0;container=1;pointerEvents=0;collapsible=0;recursiveResize=0;shape=mxgraph.aws4.group;grIcon=mxgraph.aws4.group_ec2_instance_contents;strokeColor=#D86613;fillColor=none;verticalAlign=top;align=left;spacingLeft=30;fontColor=#D86613;dashed=0;" vertex="1" parent="fbrefnu1O2uLkhK6T9n--1">
          <mxGeometry x="152.5" y="560" width="505" height="200" as="geometry" />
        </mxCell>
        <mxCell id="fbrefnu1O2uLkhK6T9n--93" value="" style="shape=image;verticalLabelPosition=bottom;verticalAlign=top;imageAspect=0;aspect=fixed;image=data:image/svg+xml,PHN2ZyB4bWxuczpkYz0iaHR0cDovL3B1cmwub3JnL2RjL2VsZW1lbnRzLzEuMS8iIHhtbG5zOmNjPSJodHRwOi8vY3JlYXRpdmVjb21tb25zLm9yZy9ucyMiIHhtbG5zOnJkZj0iaHR0cDovL3d3dy53My5vcmcvMTk5OS8wMi8yMi1yZGYtc3ludGF4LW5zIyIgeG1sbnM6c3ZnPSJodHRwOi8vd3d3LnczLm9yZy8yMDAwL3N2ZyIgeG1sbnM9Imh0dHA6Ly93d3cudzMub3JnLzIwMDAvc3ZnIiB4bWxuczpzb2RpcG9kaT0iaHR0cDovL3NvZGlwb2RpLnNvdXJjZWZvcmdlLm5ldC9EVEQvc29kaXBvZGktMC5kdGQiIHhtbG5zOmlua3NjYXBlPSJodHRwOi8vd3d3Lmlua3NjYXBlLm9yZy9uYW1lc3BhY2VzL2lua3NjYXBlIiB3aWR0aD0iMTguMDM1MzM0bW0iIGhlaWdodD0iMTcuNTAwMzc4bW0iIHZpZXdCb3g9IjAgMCAxOC4wMzUzMzQgMTcuNTAwMzc4IiB2ZXJzaW9uPSIxLjEiIGlkPSJzdmcxMTUzMSIgaW5rc2NhcGU6dmVyc2lvbj0iMC45MSByMTM3MjUiIHNvZGlwb2RpOmRvY25hbWU9ImFwaS5zdmciPiYjeGE7ICA8ZGVmcyBpZD0iZGVmczExNTI1Ii8+JiN4YTsgIDxzb2RpcG9kaTpuYW1lZHZpZXcgaWQ9ImJhc2UiIHBhZ2Vjb2xvcj0iI2ZmZmZmZiIgYm9yZGVyY29sb3I9IiM2NjY2NjYiIGJvcmRlcm9wYWNpdHk9IjEuMCIgaW5rc2NhcGU6cGFnZW9wYWNpdHk9IjAuMCIgaW5rc2NhcGU6cGFnZXNoYWRvdz0iMiIgaW5rc2NhcGU6em9vbT0iOCIgaW5rc2NhcGU6Y3g9IjE2Ljk2ODYyMSIgaW5rc2NhcGU6Y3k9IjMzLjUwOTA4MSIgaW5rc2NhcGU6ZG9jdW1lbnQtdW5pdHM9Im1tIiBpbmtzY2FwZTpjdXJyZW50LWxheWVyPSJsYXllcjEiIHNob3dncmlkPSJmYWxzZSIgaW5rc2NhcGU6d2luZG93LXdpZHRoPSIxNDQwIiBpbmtzY2FwZTp3aW5kb3ctaGVpZ2h0PSI3NzEiIGlua3NjYXBlOndpbmRvdy14PSI1NSIgaW5rc2NhcGU6d2luZG93LXk9IjAiIGlua3NjYXBlOndpbmRvdy1tYXhpbWl6ZWQ9IjAiIGZpdC1tYXJnaW4tdG9wPSIwIiBmaXQtbWFyZ2luLWxlZnQ9IjAiIGZpdC1tYXJnaW4tcmlnaHQ9IjAiIGZpdC1tYXJnaW4tYm90dG9tPSIwIi8+JiN4YTsgIDxtZXRhZGF0YSBpZD0ibWV0YWRhdGExMTUyOCI+JiN4YTsgICAgPHJkZjpSREY+JiN4YTsgICAgICA8Y2M6V29yayByZGY6YWJvdXQ9IiI+JiN4YTsgICAgICAgIDxkYzpmb3JtYXQ+aW1hZ2Uvc3ZnK3htbDwvZGM6Zm9ybWF0PiYjeGE7ICAgICAgICA8ZGM6dHlwZSByZGY6cmVzb3VyY2U9Imh0dHA6Ly9wdXJsLm9yZy9kYy9kY21pdHlwZS9TdGlsbEltYWdlIi8+JiN4YTsgICAgICAgIDxkYzp0aXRsZS8+JiN4YTsgICAgICA8L2NjOldvcms+JiN4YTsgICAgPC9yZGY6UkRGPiYjeGE7ICA8L21ldGFkYXRhPiYjeGE7ICA8ZyBpbmtzY2FwZTpsYWJlbD0iQ2FscXVlIDEiIGlua3NjYXBlOmdyb3VwbW9kZT0ibGF5ZXIiIGlkPSJsYXllcjEiIHRyYW5zZm9ybT0idHJhbnNsYXRlKC0wLjk5MjYyNjM4LC0xLjE3NDE4MSkiPiYjeGE7ICAgIDxnIGlkPSJnNzAiIHRyYW5zZm9ybT0ibWF0cml4KDEuMDE0ODg4NywwLDAsMS4wMTQ4ODg3LDE2LjkwMjE0NiwtMi42OTg3MjYpIj4mI3hhOyAgICAgIDxwYXRoIGlua3NjYXBlOmV4cG9ydC15ZHBpPSIyNTAuNTUiIGlua3NjYXBlOmV4cG9ydC14ZHBpPSIyNTAuNTUiIGlua3NjYXBlOmV4cG9ydC1maWxlbmFtZT0ibmV3LnBuZyIgaW5rc2NhcGU6Y29ubmVjdG9yLWN1cnZhdHVyZT0iMCIgaWQ9InBhdGgzMDU1IiBkPSJtIC02Ljg0OTIwMTUsNC4yNzI0NjY4IGEgMS4xMTkxMjU1LDEuMTA5OTY3MSAwIDAgMCAtMC40Mjg4ODE4LDAuMTA4NTMwMyBsIC01Ljg1MjQwMzcsMi43OTYzMzk0IGEgMS4xMTkxMjU1LDEuMTA5OTY3MSAwIDAgMCAtMC42MDU1MjQsMC43NTI5NzU5IGwgLTEuNDQzODI4LDYuMjgxMjg0NiBhIDEuMTE5MTI1NSwxLjEwOTk2NzEgMCAwIDAgMC4xNTE5NDMsMC44NTEwMjggMS4xMTkxMjU1LDEuMTA5OTY3MSAwIDAgMCAwLjA2MzYyLDAuMDg4MzIgbCA0LjA1MDgsNS4wMzY1NTUgYSAxLjExOTEyNTUsMS4xMDk5NjcxIDAgMCAwIDAuODc0OTc5LDAuNDE3NjU0IGwgNi40OTYxMDExLC0wLjAwMTUgYSAxLjExOTEyNTUsMS4xMDk5NjcxIDAgMCAwIDAuODc0OTc4OCwtMC40MTY5MDYgTCAxLjM4MTg4NzIsMTUuMTQ5NDUzIEEgMS4xMTkxMjU1LDEuMTA5OTY3MSAwIDAgMCAxLjU5ODE5ODYsMTQuMjEwMTA0IEwgMC4xNTIxMjY1Nyw3LjkyODgxNTQgQSAxLjExOTEyNTUsMS4xMDk5NjcxIDAgMCAwIC0wLjQ1MzM5Nzk0LDcuMTc1ODM5NiBMIC02LjMwNjU0OTYsNC4zODA5OTcxIEEgMS4xMTkxMjU1LDEuMTA5OTY3MSAwIDAgMCAtNi44NDkyMDE1LDQuMjcyNDY2OCBaIiBzdHlsZT0iZmlsbDojMzI2Y2U1O2ZpbGwtb3BhY2l0eToxO3N0cm9rZTpub25lO3N0cm9rZS13aWR0aDowO3N0cm9rZS1taXRlcmxpbWl0OjQ7c3Ryb2tlLWRhc2hhcnJheTpub25lO3N0cm9rZS1vcGFjaXR5OjEiLz4mI3hhOyAgICAgIDxwYXRoIGlkPSJwYXRoMzA1NC0yLTkiIGQ9Ik0gLTYuODUyMzQzNSwzLjgxNzYzNzIgQSAxLjE4MTQzMDQsMS4xNzE3NjIgMCAwIDAgLTcuMzA0NDI4NCwzLjkzMjkwNCBsIC02LjE3ODc0MjYsMi45NTEyNzU4IGEgMS4xODE0MzA0LDEuMTcxNzYyIDAgMCAwIC0wLjYzOTIwNiwwLjc5NDg5MSBsIC0xLjUyMzkxNSw2LjYzMDgyODIgYSAxLjE4MTQzMDQsMS4xNzE3NjIgMCAwIDAgMC4xNjAxNzUsMC44OTg5MyAxLjE4MTQzMDQsMS4xNzE3NjIgMCAwIDAgMC4wNjczNiwwLjA5MjgxIGwgNC4yNzYwOTQsNS4zMTcyMzYgYSAxLjE4MTQzMDQsMS4xNzE3NjIgMCAwIDAgMC45MjM2MywwLjQ0MDg1OCBsIDYuODU3NjE4OCwtMC4wMDE1IGEgMS4xODE0MzA0LDEuMTcxNzYyIDAgMCAwIDAuOTIzNjMwOCwtMC40NDAxMSBsIDQuMjc0NTk2NiwtNS4zMTc5ODUgYSAxLjE4MTQzMDQsMS4xNzE3NjIgMCAwIDAgMC4yMjgyODgsLTAuOTkwOTkzIEwgMC41Mzg5NDQzOSw3LjY3NzU3MzggQSAxLjE4MTQzMDQsMS4xNzE3NjIgMCAwIDAgLTAuMTAwMjYxMDEsNi44ODM0MzEzIEwgLTYuMjc5MDAzNywzLjkzMjE1NTUgQSAxLjE4MTQzMDQsMS4xNzE3NjIgMCAwIDAgLTYuODUyMzQzNSwzLjgxNzYzNzIgWiBtIDAuMDAyOTksMC40NTUwNzg5IGEgMS4xMTkxMjU1LDEuMTA5OTY3MSAwIDAgMSAwLjU0MjY1MTcsMC4xMDg1MzAzIGwgNS44NTMxNTE2OSwyLjc5NDg0MjUgQSAxLjExOTEyNTUsMS4xMDk5NjcxIDAgMCAxIDAuMTUxOTc4MTEsNy45MjkwNjQ4IEwgMS41OTgwNTEsMTQuMjEwMzUgYSAxLjExOTEyNTUsMS4xMDk5NjcxIDAgMCAxIC0wLjIxNjMxMjMsMC45MzkzNDggbCAtNC4wNDkzMDMyLDUuMDM3MzA0IGEgMS4xMTkxMjU1LDEuMTA5OTY3MSAwIDAgMSAtMC44NzQ5Nzg5LDAuNDE2OTA2IGwgLTYuNDk2MTAwNiwwLjAwMTUgYSAxLjExOTEyNTUsMS4xMDk5NjcxIDAgMCAxIC0wLjg3NDk3OSwtMC40MTc2NTIgbCAtNC4wNTA4LC01LjAzNjU1NCBhIDEuMTE5MTI1NSwxLjEwOTk2NzEgMCAwIDEgLTAuMDYzNjIsLTAuMDg4MzIgMS4xMTkxMjU1LDEuMTA5OTY3MSAwIDAgMSAtMC4xNTE5NDIsLTAuODUxMDI4IGwgMS40NDM4MjcsLTYuMjgxMjg1MyBhIDEuMTE5MTI1NSwxLjEwOTk2NzEgMCAwIDEgMC42MDU1MjQsLTAuNzUyOTc1OCBsIDUuODUyNDAzNiwtMi43OTYzMzk1IGEgMS4xMTkxMjU1LDEuMTA5OTY3MSAwIDAgMSAwLjQyODg4MTksLTAuMTA4NTMwMyB6IiBzdHlsZT0iY29sb3I6IzAwMDAwMDtmb250LXN0eWxlOm5vcm1hbDtmb250LXZhcmlhbnQ6bm9ybWFsO2ZvbnQtd2VpZ2h0Om5vcm1hbDtmb250LXN0cmV0Y2g6bm9ybWFsO2ZvbnQtc2l6ZTptZWRpdW07bGluZS1oZWlnaHQ6bm9ybWFsO2ZvbnQtZmFtaWx5OlNhbnM7LWlua3NjYXBlLWZvbnQtc3BlY2lmaWNhdGlvbjpTYW5zO3RleHQtaW5kZW50OjA7dGV4dC1hbGlnbjpzdGFydDt0ZXh0LWRlY29yYXRpb246bm9uZTt0ZXh0LWRlY29yYXRpb24tbGluZTpub25lO2xldHRlci1zcGFjaW5nOm5vcm1hbDt3b3JkLXNwYWNpbmc6bm9ybWFsO3RleHQtdHJhbnNmb3JtOm5vbmU7d3JpdGluZy1tb2RlOmxyLXRiO2RpcmVjdGlvbjpsdHI7YmFzZWxpbmUtc2hpZnQ6YmFzZWxpbmU7dGV4dC1hbmNob3I6c3RhcnQ7ZGlzcGxheTppbmxpbmU7b3ZlcmZsb3c6dmlzaWJsZTt2aXNpYmlsaXR5OnZpc2libGU7ZmlsbDojZmZmZmZmO2ZpbGwtb3BhY2l0eToxO2ZpbGwtcnVsZTpub256ZXJvO3N0cm9rZTpub25lO3N0cm9rZS13aWR0aDowO3N0cm9rZS1taXRlcmxpbWl0OjQ7c3Ryb2tlLWRhc2hhcnJheTpub25lO21hcmtlcjpub25lO2VuYWJsZS1iYWNrZ3JvdW5kOmFjY3VtdWxhdGUiIGlua3NjYXBlOmNvbm5lY3Rvci1jdXJ2YXR1cmU9IjAiLz4mI3hhOyAgICA8L2c+JiN4YTsgICAgPHRleHQgaWQ9InRleHQyMDY2IiB5PSIxNi44MTE3NzUiIHg9IjEwLjA1NTc2OSIgc3R5bGU9ImZvbnQtc3R5bGU6bm9ybWFsO2ZvbnQtd2VpZ2h0Om5vcm1hbDtmb250LXNpemU6MTAuNTgzMzMzMDJweDtsaW5lLWhlaWdodDo2LjYxNDU4MzQ5cHg7Zm9udC1mYW1pbHk6U2FucztsZXR0ZXItc3BhY2luZzowcHg7d29yZC1zcGFjaW5nOjBweDtmaWxsOiNmZmZmZmY7ZmlsbC1vcGFjaXR5OjE7c3Ryb2tlOm5vbmU7c3Ryb2tlLXdpZHRoOjAuMjY0NTgzMzJweDtzdHJva2UtbGluZWNhcDpidXR0O3N0cm9rZS1saW5lam9pbjptaXRlcjtzdHJva2Utb3BhY2l0eToxIiB4bWw6c3BhY2U9InByZXNlcnZlIj48dHNwYW4gc3R5bGU9ImZvbnQtc3R5bGU6bm9ybWFsO2ZvbnQtdmFyaWFudDpub3JtYWw7Zm9udC13ZWlnaHQ6bm9ybWFsO2ZvbnQtc3RyZXRjaDpub3JtYWw7Zm9udC1zaXplOjIuODIyMjIyMjNweDtmb250LWZhbWlseTpBcmlhbDstaW5rc2NhcGUtZm9udC1zcGVjaWZpY2F0aW9uOidBcmlhbCwgTm9ybWFsJzt0ZXh0LWFsaWduOmNlbnRlcjt3cml0aW5nLW1vZGU6bHItdGI7dGV4dC1hbmNob3I6bWlkZGxlO2ZpbGw6I2ZmZmZmZjtmaWxsLW9wYWNpdHk6MTtzdHJva2Utd2lkdGg6MC4yNjQ1ODMzMnB4IiB5PSIxNi44MTE3NzUiIHg9IjEwLjA1NTc2OSIgaWQ9InRzcGFuMjA2NCIgc29kaXBvZGk6cm9sZT0ibGluZSI+YXBpPC90c3Bhbj48L3RleHQ+JiN4YTsgICAgPHBhdGggaWQ9InBhdGgxOTg0IiBkPSJtIDkuOTkyMjU3NCw0LjQ0Njk5MjUgYyAtMC4xMzgzMjM0LC0wLjAwNDQgLTMuOTk1MzEzOSwxLjg5MTc3OTEgLTQuMDQ1NzQyOSwxLjk4OTAyNDEgLTAuMTIxMTUzLDAuMjMzNjgyIC0wLjk5ODgwMiw0LjI4MTQ3ODQgLTAuOTQ3MjM1LDQuMzY4NzI0NCAwLjAzLDAuMDUwNjUgMC42NjIxOTksMC44NTIzMDUgMS40MDQ1NjcsMS43ODA3NzEgbCAxLjM0OTc5OCwxLjY4Nzc1NCAyLjIyMTU3NDMsMC4wMDExIDIuMjIxNTcyMiwwLjAwMTEgMS40MTI4MTksLTEuNzY1Nzg0IDEuNDEzODgsLTEuNzY1MjY1IC0wLjQ5NDU2LC0yLjE2ODg2MDcgQyAxNC4yNTY3Myw3LjM4MjgxNTUgMTQuMDEzMjksNi4zODcyNzU2IDEzLjk4ODQyLDYuMzYzMjg1NiAxMy45MTg5Miw2LjI5NjQwNTYgMTAuMDY3MjQsNC40NDk1NDY1IDkuOTkyMjU3NCw0LjQ0NzEyNTUgWiBtIDAuMjM2MTY2NiwxLjk4MjgyNDEgYyAwLjE4NjYzNywwLjAwOCAwLjIwNTc5MiwwLjI5MTU3MSAwLjYwNTEyOCwwLjMyMTQyNyAwLjUyMTYsMC4wMzkgMC40NjU1MDgsLTAuNDQ2NjUxIDAuODY0NTUzLC0wLjEwODUyMiAwLjM5OTA0NCwwLjMzODEyNSAtMC4wODg5LDAuMzYyNjQxIDAuMDM1MTQsMC44NzA3NDkgMC4xMjQwOSwwLjUwODEwNDEgMC41Njg4MDEsMC4zMDUwOTkxIDAuMzcwNTIzLDAuNzg5MDk4NyAtMC4xOTgyNzksMC40ODQwMDIgLTAuMzcyNjEzLDAuMDI3MjggLTAuODE3NTEsMC4zMDIzMDggLTAuNDQ0ODk3LDAuMjc1MDIzIC0wLjExNDU2NCwwLjYzNTM0NiAtMC42MzYxMzgsMC41OTYzNDcgLTAuNTIxNjUyLC0wLjAzOSAtMC4xNDA0NjcsLTAuMzQ2MDY1IC0wLjUzOTUxLC0wLjY4NDE5NyBDIDkuNzExNTY2LDguMTc4ODk1NSA5LjQ3MDM3MTgsOC42MDQ0ODczIDkuMzQ2MzA4OCw4LjA5NjM3OTcgOS4yMjIyMTg4LDcuNTg4MjcxNiA5LjYzMjI0NCw3Ljg1NTM2MjUgOS44MzA1MjMsNy4zNzEzNjA3IDEwLjAyOTIyNCw2Ljg4NzMxMzYgOS41NDk0Mjg4LDYuNzkwMTA3NiA5Ljk5NDM1MjQsNi41MTUwODE2IGMgMC4wNTU2NCwtMC4wMzQzNCAwLjEwMTg5MDYsLTAuMDU2ODggMC4xNDIxMDU2LC0wLjA3MDI4IDAuMDM1MDgsLTAuMDExNjcgMC4wNjUzMywtMC4wMTYxNCAwLjA5MTk3LC0wLjAxNDk3IHogbSAwLjUyMTQ5MywwLjU3MjA1OSBjIC0wLjA3NTc4LC01LjMwNmUtNCAtMC4xNTEyMDksMC4wMTAyMSAtMC4yMjM3NTgsMC4wMzIwNCAtMC40MDAzOTMsMC4xMjA3MzIgLTAuNjI2OTU0LDAuNTQzMzIxOSAtMC41MDU5MDksMC45NDM2MTMgMC4xMjA5NCwwLjM5OTkxOTcgMC41NDMxMSwwLjYyNjE0ODcgMC45NDMxMDcsMC41MDUzOTM3IDAuMzk5ODM4LC0wLjEyMDc0NiAwLjYyNjI2OCwtMC41NDI2MTA3IDAuNTA1OTA5LC0wLjk0MjU3ODggQyAxMS4zNzM1MTYsNy4yMjI1MjM2IDExLjA4MTgzNyw3LjAwNDE4OTYgMTAuNzQ5OTE3LDcuMDAxODc3NiBaIE0gNy43NTcyNjk1LDguMzAzNjAzMyBjIDAuMDM5NjksNy45ZS00IDAuMDg4MzIsMC4wMDkgMC4xNDgyOTkxLDAuMDI3MzkgMC40Nzk5Mjc5LDAuMTQ3MTM4IC0wLjAwNzcsMC4zOTk1MDMgMC4zMzQzNTQsMC43NjY4NzkgMC4zNDIwNTMxLDAuMzY3Mzc3IDAuNjI4NTE4MiwtMC4xMDEwODYgMC43NDEwNDUyLDAuMzg4MDkxIDAuMTEyNTI3LDAuNDg5MTc3NyAtMC4zNDk5OTEzLDAuMTkyOTIxIC0wLjQ5NzEyNjEsMC42NzI4Mjc3IC0wLjE0NzE2MTIsMC40Nzk5MDQgMC40MDE0NzkxLDAuNDk0MDgzIDAuMDM0MTEsMC44MzYxMjMgLTAuMzY3Mzc0LDAuMzQyMDQxIC0wLjM0MTgxNTEsLTAuMjA2MDYgLTAuODMwOTUwMSwtMC4wOTM1MyAtMC40ODkxODgsMC4xMTI1MjcgLTAuMjI3MDM5LDAuNTk0NjU0IC0wLjcwNjk0LDAuNDQ3NTE2IC0wLjQ3OTkyOCwtMC4xNDcxMzcgMC4wMDc3LC0wLjM5OTUgLTAuMzM0MzU0LC0wLjc2Njg3NiAtMC4zNDIwNTQsLTAuMzY3Mzc5IC0wLjYyODUxOCwwLjEwMDU3MSAtMC43NDEwNDUsLTAuMzg4NjA3IC0wLjExMjUyOCwtMC40ODkxOCAwLjM0OTk5MSwtMC4xOTI5MjQgMC40OTcxMjUsLTAuNjcyODI2NyAwLjE0NzE2MiwtMC40Nzk5MDcgLTAuNDAxOTgxLC0wLjQ5MzU3IC0wLjAzNDYxLC0wLjgzNTYxIDAuMzY3Mzc0LC0wLjM0MjA0MyAwLjM0MjI5MSwwLjIwNjA2NSAwLjgzMTQ1MywwLjA5MzU0IDAuNDI4MDQzLC0wLjA5ODQ2IDAuMjgwNjQzLC0wLjQ3OTYwNyAwLjU1ODY0MSwtMC40NzQ5MDYgeiBtIDMuNTY3MjE2NSwwLjUyNDUxNiBjIDAuMDQ1NTEsNS4zNmUtNCAwLjEwMDgwNywwLjAxMjQzIDAuMTcwMDIyLDAuMDM5MjcgMC41NTMyNywwLjIxNDczOSAtMC4xNzUyMzQsMC41NDU4OTQgMC4yNTM3MzUsMC45NTYwMTM3IDAuNDI4OTY5LDAuNDEwMTE4IDAuNzI3NDcyLC0wLjMzMjc0MTcgMC45NjY4NjcsMC4yMTAzMjMgMC4yMzkzNjksMC41NDMwNjUgLTAuNTEwNDM0LDAuMjYyNDMyIC0wLjQ5NzEyNiwwLjg1NTc2MyAwLjAxMzIzLDAuNTkzMzMxIDAuNzQ5NTkxLDAuMjc4NzIgMC41MzQ4MjksMC44MzE5OSAtMC4yMTQ3MDksMC41NTMyNjggLTAuNTQ1ODg4LC0wLjE3NTI0NyAtMC45NTU5OTIsMC4yNTM3MyAtMC40MTAxMzEsMC40Mjg5NzcgMC4zMzIyMSwwLjcyNjk3MiAtMC4yMTA4NDcsMC45NjYzNDggLTAuNTQzMDU3LDAuMjM5MzggLTAuMjYxMzgyLC0wLjUwOTkzOSAtMC44NTQ3MzYsLTAuNDk2NjA5IC0wLjU5MzMyOCwwLjAxMzMzIC0wLjI3OTIxNSwwLjc0OTA3MiAtMC44MzI1MSwwLjUzNDMzNCBDIDkuMzQ1NDg0OCwxMi43NjQ1NDMgMTAuMDczOTg3LDEyLjQzMzM4OCA5LjY0NDk5MywxMi4wMjMyNjggOS4yMTYwMjM4LDExLjYxMzE0OCA4LjkxODAyMzgsMTIuMzU2MDA4IDguNjc4NjU0NiwxMS44MTI5NDUgOC40MzkyODY3LDExLjI2OTg4IDkuMTg4NTU5OCwxMS41NTEwMzIgOS4xNzUyNzc4LDEwLjk1NzcwMSA5LjE2MTc4NzgsMTAuMzY0MzcgOC40MjU2ODY3LDEwLjY3ODQ2MiA4LjY0MDQyMjUsMTAuMTI1MTkyIDguODU1MTU4OCw5LjU3MTkyMjMgOS4xODY4MTM4LDEwLjMwMDk1NSA5LjU5Njk0NSw5Ljg3MTk3OCAxMC4wMDcwNDgsOS40NDMwMDEzIDkuMjY0MTc3OCw5LjE0NDQ5MDMgOS44MDcyNjIsOC45MDUxMTQzIGMgMC41NDMwNTUsLTAuMjM5Mzc3IDAuMjYxOTEsMC41MDk5MzkgMC44NTUyMzcsMC40OTY2MDkgMC41MTkxOTIsLTAuMDExNjcgMC4zNDM0MjksLTAuNTc2NDA4IDAuNjYxOTg3LC0wLjU3MzYwOCB6IG0gLTMuODgxNDA5NSwwLjI1NTI4IGMgLTAuNDE3OTg4LC0xLjU4ZS00IC0wLjc1Njk0NiwwLjMzODU2NCAtMC43NTcwNzgsMC43NTY1NDQ3IC0xLjU5ZS00LDAuNDE4MTgyIDAuMzM4OTA1LDAuNzU3MjE5IDAuNzU3MDc4LDAuNzU3MDYgMC40MTc5NjMxLC0xLjQ4ZS00IDAuNzU2NjgyLC0wLjMzOTA5NSAwLjc1NjUyMzksLTAuNzU3MDYgQyA4LjE5OTQ2NzUsOS40MjIxODAzIDcuODYwODI3Niw5LjA4MzU0NzMgNy40NDMwNzY1LDkuMDgzMzk5MyBaIE0gMTAuNjk2NjMsOS44MDg0MjEgYyAtMC42MTU2ODQsNC4yZS01IC0xLjExNDg0NiwwLjQ5ODk4MyAtMS4xMTUxOSwxLjExNDY2MSAtMi4zOGUtNCwwLjYxNjA4MiAwLjQ5OTEwOSwxLjExNTY1IDEuMTE1MTksMS4xMTU2OTIgMC42MTYyNjgsMi4yMmUtNCAxLjExNTkwNywtMC40OTk0MjUgMS4xMTU2NjksLTEuMTE1NjkyIDAsLTAuNjE1ODY2IC0wLjQ5OTc5OCwtMS4xMTQ4ODMgLTEuMTE1NjY5LC0xLjExNDY2MSB6IiBzdHlsZT0ib3BhY2l0eToxO2ZpbGw6I2ZmZmZmZjtmaWxsLW9wYWNpdHk6MTtzdHJva2U6I2VlZWVlZTtzdHJva2Utd2lkdGg6MDtzdHJva2UtbWl0ZXJsaW1pdDoxMDtzdHJva2UtZGFzaGFycmF5Om5vbmU7c3Ryb2tlLWRhc2hvZmZzZXQ6MTEuMjM2NDIzNDk7c3Ryb2tlLW9wYWNpdHk6MSIgaW5rc2NhcGU6Y29ubmVjdG9yLWN1cnZhdHVyZT0iMCIgc29kaXBvZGk6bm9kZXR5cGVzPSJjY2NjY2NjY2NjY2Njc2NjY2Njc2NjY2NjY2NjY2NjY2Njc2NzY2NjY2NjY2NjY2NjY2NjY2NjY2Njc2NjY2NjY2NjY2NjY2NjIi8+JiN4YTsgIDwvZz4mI3hhOzwvc3ZnPg==;" vertex="1" parent="fbrefnu1O2uLkhK6T9n--86">
          <mxGeometry x="117.5" y="120" width="50" height="50" as="geometry" />
        </mxCell>
        <mxCell id="fbrefnu1O2uLkhK6T9n--94" value="" style="shape=image;verticalLabelPosition=bottom;verticalAlign=top;imageAspect=0;aspect=fixed;image=data:image/svg+xml,PHN2ZyB4bWxuczpkYz0iaHR0cDovL3B1cmwub3JnL2RjL2VsZW1lbnRzLzEuMS8iIHhtbG5zOmNjPSJodHRwOi8vY3JlYXRpdmVjb21tb25zLm9yZy9ucyMiIHhtbG5zOnJkZj0iaHR0cDovL3d3dy53My5vcmcvMTk5OS8wMi8yMi1yZGYtc3ludGF4LW5zIyIgeG1sbnM6c3ZnPSJodHRwOi8vd3d3LnczLm9yZy8yMDAwL3N2ZyIgeG1sbnM9Imh0dHA6Ly93d3cudzMub3JnLzIwMDAvc3ZnIiB4bWxuczpzb2RpcG9kaT0iaHR0cDovL3NvZGlwb2RpLnNvdXJjZWZvcmdlLm5ldC9EVEQvc29kaXBvZGktMC5kdGQiIHhtbG5zOmlua3NjYXBlPSJodHRwOi8vd3d3Lmlua3NjYXBlLm9yZy9uYW1lc3BhY2VzL2lua3NjYXBlIiB3aWR0aD0iMTguMDM1MzM0bW0iIGhlaWdodD0iMTcuNTAwMzc4bW0iIHZpZXdCb3g9IjAgMCAxOC4wMzUzMzQgMTcuNTAwMzc4IiB2ZXJzaW9uPSIxLjEiIGlkPSJzdmcxMTUzMSIgaW5rc2NhcGU6dmVyc2lvbj0iMC45MSByMTM3MjUiIHNvZGlwb2RpOmRvY25hbWU9ImFwaS5zdmciPiYjeGE7ICA8ZGVmcyBpZD0iZGVmczExNTI1Ii8+JiN4YTsgIDxzb2RpcG9kaTpuYW1lZHZpZXcgaWQ9ImJhc2UiIHBhZ2Vjb2xvcj0iI2ZmZmZmZiIgYm9yZGVyY29sb3I9IiM2NjY2NjYiIGJvcmRlcm9wYWNpdHk9IjEuMCIgaW5rc2NhcGU6cGFnZW9wYWNpdHk9IjAuMCIgaW5rc2NhcGU6cGFnZXNoYWRvdz0iMiIgaW5rc2NhcGU6em9vbT0iOCIgaW5rc2NhcGU6Y3g9IjE2Ljk2ODYyMSIgaW5rc2NhcGU6Y3k9IjMzLjUwOTA4MSIgaW5rc2NhcGU6ZG9jdW1lbnQtdW5pdHM9Im1tIiBpbmtzY2FwZTpjdXJyZW50LWxheWVyPSJsYXllcjEiIHNob3dncmlkPSJmYWxzZSIgaW5rc2NhcGU6d2luZG93LXdpZHRoPSIxNDQwIiBpbmtzY2FwZTp3aW5kb3ctaGVpZ2h0PSI3NzEiIGlua3NjYXBlOndpbmRvdy14PSI1NSIgaW5rc2NhcGU6d2luZG93LXk9IjAiIGlua3NjYXBlOndpbmRvdy1tYXhpbWl6ZWQ9IjAiIGZpdC1tYXJnaW4tdG9wPSIwIiBmaXQtbWFyZ2luLWxlZnQ9IjAiIGZpdC1tYXJnaW4tcmlnaHQ9IjAiIGZpdC1tYXJnaW4tYm90dG9tPSIwIi8+JiN4YTsgIDxtZXRhZGF0YSBpZD0ibWV0YWRhdGExMTUyOCI+JiN4YTsgICAgPHJkZjpSREY+JiN4YTsgICAgICA8Y2M6V29yayByZGY6YWJvdXQ9IiI+JiN4YTsgICAgICAgIDxkYzpmb3JtYXQ+aW1hZ2Uvc3ZnK3htbDwvZGM6Zm9ybWF0PiYjeGE7ICAgICAgICA8ZGM6dHlwZSByZGY6cmVzb3VyY2U9Imh0dHA6Ly9wdXJsLm9yZy9kYy9kY21pdHlwZS9TdGlsbEltYWdlIi8+JiN4YTsgICAgICAgIDxkYzp0aXRsZS8+JiN4YTsgICAgICA8L2NjOldvcms+JiN4YTsgICAgPC9yZGY6UkRGPiYjeGE7ICA8L21ldGFkYXRhPiYjeGE7ICA8ZyBpbmtzY2FwZTpsYWJlbD0iQ2FscXVlIDEiIGlua3NjYXBlOmdyb3VwbW9kZT0ibGF5ZXIiIGlkPSJsYXllcjEiIHRyYW5zZm9ybT0idHJhbnNsYXRlKC0wLjk5MjYyNjM4LC0xLjE3NDE4MSkiPiYjeGE7ICAgIDxnIGlkPSJnNzAiIHRyYW5zZm9ybT0ibWF0cml4KDEuMDE0ODg4NywwLDAsMS4wMTQ4ODg3LDE2LjkwMjE0NiwtMi42OTg3MjYpIj4mI3hhOyAgICAgIDxwYXRoIGlua3NjYXBlOmV4cG9ydC15ZHBpPSIyNTAuNTUiIGlua3NjYXBlOmV4cG9ydC14ZHBpPSIyNTAuNTUiIGlua3NjYXBlOmV4cG9ydC1maWxlbmFtZT0ibmV3LnBuZyIgaW5rc2NhcGU6Y29ubmVjdG9yLWN1cnZhdHVyZT0iMCIgaWQ9InBhdGgzMDU1IiBkPSJtIC02Ljg0OTIwMTUsNC4yNzI0NjY4IGEgMS4xMTkxMjU1LDEuMTA5OTY3MSAwIDAgMCAtMC40Mjg4ODE4LDAuMTA4NTMwMyBsIC01Ljg1MjQwMzcsMi43OTYzMzk0IGEgMS4xMTkxMjU1LDEuMTA5OTY3MSAwIDAgMCAtMC42MDU1MjQsMC43NTI5NzU5IGwgLTEuNDQzODI4LDYuMjgxMjg0NiBhIDEuMTE5MTI1NSwxLjEwOTk2NzEgMCAwIDAgMC4xNTE5NDMsMC44NTEwMjggMS4xMTkxMjU1LDEuMTA5OTY3MSAwIDAgMCAwLjA2MzYyLDAuMDg4MzIgbCA0LjA1MDgsNS4wMzY1NTUgYSAxLjExOTEyNTUsMS4xMDk5NjcxIDAgMCAwIDAuODc0OTc5LDAuNDE3NjU0IGwgNi40OTYxMDExLC0wLjAwMTUgYSAxLjExOTEyNTUsMS4xMDk5NjcxIDAgMCAwIDAuODc0OTc4OCwtMC40MTY5MDYgTCAxLjM4MTg4NzIsMTUuMTQ5NDUzIEEgMS4xMTkxMjU1LDEuMTA5OTY3MSAwIDAgMCAxLjU5ODE5ODYsMTQuMjEwMTA0IEwgMC4xNTIxMjY1Nyw3LjkyODgxNTQgQSAxLjExOTEyNTUsMS4xMDk5NjcxIDAgMCAwIC0wLjQ1MzM5Nzk0LDcuMTc1ODM5NiBMIC02LjMwNjU0OTYsNC4zODA5OTcxIEEgMS4xMTkxMjU1LDEuMTA5OTY3MSAwIDAgMCAtNi44NDkyMDE1LDQuMjcyNDY2OCBaIiBzdHlsZT0iZmlsbDojMzI2Y2U1O2ZpbGwtb3BhY2l0eToxO3N0cm9rZTpub25lO3N0cm9rZS13aWR0aDowO3N0cm9rZS1taXRlcmxpbWl0OjQ7c3Ryb2tlLWRhc2hhcnJheTpub25lO3N0cm9rZS1vcGFjaXR5OjEiLz4mI3hhOyAgICAgIDxwYXRoIGlkPSJwYXRoMzA1NC0yLTkiIGQ9Ik0gLTYuODUyMzQzNSwzLjgxNzYzNzIgQSAxLjE4MTQzMDQsMS4xNzE3NjIgMCAwIDAgLTcuMzA0NDI4NCwzLjkzMjkwNCBsIC02LjE3ODc0MjYsMi45NTEyNzU4IGEgMS4xODE0MzA0LDEuMTcxNzYyIDAgMCAwIC0wLjYzOTIwNiwwLjc5NDg5MSBsIC0xLjUyMzkxNSw2LjYzMDgyODIgYSAxLjE4MTQzMDQsMS4xNzE3NjIgMCAwIDAgMC4xNjAxNzUsMC44OTg5MyAxLjE4MTQzMDQsMS4xNzE3NjIgMCAwIDAgMC4wNjczNiwwLjA5MjgxIGwgNC4yNzYwOTQsNS4zMTcyMzYgYSAxLjE4MTQzMDQsMS4xNzE3NjIgMCAwIDAgMC45MjM2MywwLjQ0MDg1OCBsIDYuODU3NjE4OCwtMC4wMDE1IGEgMS4xODE0MzA0LDEuMTcxNzYyIDAgMCAwIDAuOTIzNjMwOCwtMC40NDAxMSBsIDQuMjc0NTk2NiwtNS4zMTc5ODUgYSAxLjE4MTQzMDQsMS4xNzE3NjIgMCAwIDAgMC4yMjgyODgsLTAuOTkwOTkzIEwgMC41Mzg5NDQzOSw3LjY3NzU3MzggQSAxLjE4MTQzMDQsMS4xNzE3NjIgMCAwIDAgLTAuMTAwMjYxMDEsNi44ODM0MzEzIEwgLTYuMjc5MDAzNywzLjkzMjE1NTUgQSAxLjE4MTQzMDQsMS4xNzE3NjIgMCAwIDAgLTYuODUyMzQzNSwzLjgxNzYzNzIgWiBtIDAuMDAyOTksMC40NTUwNzg5IGEgMS4xMTkxMjU1LDEuMTA5OTY3MSAwIDAgMSAwLjU0MjY1MTcsMC4xMDg1MzAzIGwgNS44NTMxNTE2OSwyLjc5NDg0MjUgQSAxLjExOTEyNTUsMS4xMDk5NjcxIDAgMCAxIDAuMTUxOTc4MTEsNy45MjkwNjQ4IEwgMS41OTgwNTEsMTQuMjEwMzUgYSAxLjExOTEyNTUsMS4xMDk5NjcxIDAgMCAxIC0wLjIxNjMxMjMsMC45MzkzNDggbCAtNC4wNDkzMDMyLDUuMDM3MzA0IGEgMS4xMTkxMjU1LDEuMTA5OTY3MSAwIDAgMSAtMC44NzQ5Nzg5LDAuNDE2OTA2IGwgLTYuNDk2MTAwNiwwLjAwMTUgYSAxLjExOTEyNTUsMS4xMDk5NjcxIDAgMCAxIC0wLjg3NDk3OSwtMC40MTc2NTIgbCAtNC4wNTA4LC01LjAzNjU1NCBhIDEuMTE5MTI1NSwxLjEwOTk2NzEgMCAwIDEgLTAuMDYzNjIsLTAuMDg4MzIgMS4xMTkxMjU1LDEuMTA5OTY3MSAwIDAgMSAtMC4xNTE5NDIsLTAuODUxMDI4IGwgMS40NDM4MjcsLTYuMjgxMjg1MyBhIDEuMTE5MTI1NSwxLjEwOTk2NzEgMCAwIDEgMC42MDU1MjQsLTAuNzUyOTc1OCBsIDUuODUyNDAzNiwtMi43OTYzMzk1IGEgMS4xMTkxMjU1LDEuMTA5OTY3MSAwIDAgMSAwLjQyODg4MTksLTAuMTA4NTMwMyB6IiBzdHlsZT0iY29sb3I6IzAwMDAwMDtmb250LXN0eWxlOm5vcm1hbDtmb250LXZhcmlhbnQ6bm9ybWFsO2ZvbnQtd2VpZ2h0Om5vcm1hbDtmb250LXN0cmV0Y2g6bm9ybWFsO2ZvbnQtc2l6ZTptZWRpdW07bGluZS1oZWlnaHQ6bm9ybWFsO2ZvbnQtZmFtaWx5OlNhbnM7LWlua3NjYXBlLWZvbnQtc3BlY2lmaWNhdGlvbjpTYW5zO3RleHQtaW5kZW50OjA7dGV4dC1hbGlnbjpzdGFydDt0ZXh0LWRlY29yYXRpb246bm9uZTt0ZXh0LWRlY29yYXRpb24tbGluZTpub25lO2xldHRlci1zcGFjaW5nOm5vcm1hbDt3b3JkLXNwYWNpbmc6bm9ybWFsO3RleHQtdHJhbnNmb3JtOm5vbmU7d3JpdGluZy1tb2RlOmxyLXRiO2RpcmVjdGlvbjpsdHI7YmFzZWxpbmUtc2hpZnQ6YmFzZWxpbmU7dGV4dC1hbmNob3I6c3RhcnQ7ZGlzcGxheTppbmxpbmU7b3ZlcmZsb3c6dmlzaWJsZTt2aXNpYmlsaXR5OnZpc2libGU7ZmlsbDojZmZmZmZmO2ZpbGwtb3BhY2l0eToxO2ZpbGwtcnVsZTpub256ZXJvO3N0cm9rZTpub25lO3N0cm9rZS13aWR0aDowO3N0cm9rZS1taXRlcmxpbWl0OjQ7c3Ryb2tlLWRhc2hhcnJheTpub25lO21hcmtlcjpub25lO2VuYWJsZS1iYWNrZ3JvdW5kOmFjY3VtdWxhdGUiIGlua3NjYXBlOmNvbm5lY3Rvci1jdXJ2YXR1cmU9IjAiLz4mI3hhOyAgICA8L2c+JiN4YTsgICAgPHRleHQgaWQ9InRleHQyMDY2IiB5PSIxNi44MTE3NzUiIHg9IjEwLjA1NTc2OSIgc3R5bGU9ImZvbnQtc3R5bGU6bm9ybWFsO2ZvbnQtd2VpZ2h0Om5vcm1hbDtmb250LXNpemU6MTAuNTgzMzMzMDJweDtsaW5lLWhlaWdodDo2LjYxNDU4MzQ5cHg7Zm9udC1mYW1pbHk6U2FucztsZXR0ZXItc3BhY2luZzowcHg7d29yZC1zcGFjaW5nOjBweDtmaWxsOiNmZmZmZmY7ZmlsbC1vcGFjaXR5OjE7c3Ryb2tlOm5vbmU7c3Ryb2tlLXdpZHRoOjAuMjY0NTgzMzJweDtzdHJva2UtbGluZWNhcDpidXR0O3N0cm9rZS1saW5lam9pbjptaXRlcjtzdHJva2Utb3BhY2l0eToxIiB4bWw6c3BhY2U9InByZXNlcnZlIj48dHNwYW4gc3R5bGU9ImZvbnQtc3R5bGU6bm9ybWFsO2ZvbnQtdmFyaWFudDpub3JtYWw7Zm9udC13ZWlnaHQ6bm9ybWFsO2ZvbnQtc3RyZXRjaDpub3JtYWw7Zm9udC1zaXplOjIuODIyMjIyMjNweDtmb250LWZhbWlseTpBcmlhbDstaW5rc2NhcGUtZm9udC1zcGVjaWZpY2F0aW9uOidBcmlhbCwgTm9ybWFsJzt0ZXh0LWFsaWduOmNlbnRlcjt3cml0aW5nLW1vZGU6bHItdGI7dGV4dC1hbmNob3I6bWlkZGxlO2ZpbGw6I2ZmZmZmZjtmaWxsLW9wYWNpdHk6MTtzdHJva2Utd2lkdGg6MC4yNjQ1ODMzMnB4IiB5PSIxNi44MTE3NzUiIHg9IjEwLjA1NTc2OSIgaWQ9InRzcGFuMjA2NCIgc29kaXBvZGk6cm9sZT0ibGluZSI+YXBpPC90c3Bhbj48L3RleHQ+JiN4YTsgICAgPHBhdGggaWQ9InBhdGgxOTg0IiBkPSJtIDkuOTkyMjU3NCw0LjQ0Njk5MjUgYyAtMC4xMzgzMjM0LC0wLjAwNDQgLTMuOTk1MzEzOSwxLjg5MTc3OTEgLTQuMDQ1NzQyOSwxLjk4OTAyNDEgLTAuMTIxMTUzLDAuMjMzNjgyIC0wLjk5ODgwMiw0LjI4MTQ3ODQgLTAuOTQ3MjM1LDQuMzY4NzI0NCAwLjAzLDAuMDUwNjUgMC42NjIxOTksMC44NTIzMDUgMS40MDQ1NjcsMS43ODA3NzEgbCAxLjM0OTc5OCwxLjY4Nzc1NCAyLjIyMTU3NDMsMC4wMDExIDIuMjIxNTcyMiwwLjAwMTEgMS40MTI4MTksLTEuNzY1Nzg0IDEuNDEzODgsLTEuNzY1MjY1IC0wLjQ5NDU2LC0yLjE2ODg2MDcgQyAxNC4yNTY3Myw3LjM4MjgxNTUgMTQuMDEzMjksNi4zODcyNzU2IDEzLjk4ODQyLDYuMzYzMjg1NiAxMy45MTg5Miw2LjI5NjQwNTYgMTAuMDY3MjQsNC40NDk1NDY1IDkuOTkyMjU3NCw0LjQ0NzEyNTUgWiBtIDAuMjM2MTY2NiwxLjk4MjgyNDEgYyAwLjE4NjYzNywwLjAwOCAwLjIwNTc5MiwwLjI5MTU3MSAwLjYwNTEyOCwwLjMyMTQyNyAwLjUyMTYsMC4wMzkgMC40NjU1MDgsLTAuNDQ2NjUxIDAuODY0NTUzLC0wLjEwODUyMiAwLjM5OTA0NCwwLjMzODEyNSAtMC4wODg5LDAuMzYyNjQxIDAuMDM1MTQsMC44NzA3NDkgMC4xMjQwOSwwLjUwODEwNDEgMC41Njg4MDEsMC4zMDUwOTkxIDAuMzcwNTIzLDAuNzg5MDk4NyAtMC4xOTgyNzksMC40ODQwMDIgLTAuMzcyNjEzLDAuMDI3MjggLTAuODE3NTEsMC4zMDIzMDggLTAuNDQ0ODk3LDAuMjc1MDIzIC0wLjExNDU2NCwwLjYzNTM0NiAtMC42MzYxMzgsMC41OTYzNDcgLTAuNTIxNjUyLC0wLjAzOSAtMC4xNDA0NjcsLTAuMzQ2MDY1IC0wLjUzOTUxLC0wLjY4NDE5NyBDIDkuNzExNTY2LDguMTc4ODk1NSA5LjQ3MDM3MTgsOC42MDQ0ODczIDkuMzQ2MzA4OCw4LjA5NjM3OTcgOS4yMjIyMTg4LDcuNTg4MjcxNiA5LjYzMjI0NCw3Ljg1NTM2MjUgOS44MzA1MjMsNy4zNzEzNjA3IDEwLjAyOTIyNCw2Ljg4NzMxMzYgOS41NDk0Mjg4LDYuNzkwMTA3NiA5Ljk5NDM1MjQsNi41MTUwODE2IGMgMC4wNTU2NCwtMC4wMzQzNCAwLjEwMTg5MDYsLTAuMDU2ODggMC4xNDIxMDU2LC0wLjA3MDI4IDAuMDM1MDgsLTAuMDExNjcgMC4wNjUzMywtMC4wMTYxNCAwLjA5MTk3LC0wLjAxNDk3IHogbSAwLjUyMTQ5MywwLjU3MjA1OSBjIC0wLjA3NTc4LC01LjMwNmUtNCAtMC4xNTEyMDksMC4wMTAyMSAtMC4yMjM3NTgsMC4wMzIwNCAtMC40MDAzOTMsMC4xMjA3MzIgLTAuNjI2OTU0LDAuNTQzMzIxOSAtMC41MDU5MDksMC45NDM2MTMgMC4xMjA5NCwwLjM5OTkxOTcgMC41NDMxMSwwLjYyNjE0ODcgMC45NDMxMDcsMC41MDUzOTM3IDAuMzk5ODM4LC0wLjEyMDc0NiAwLjYyNjI2OCwtMC41NDI2MTA3IDAuNTA1OTA5LC0wLjk0MjU3ODggQyAxMS4zNzM1MTYsNy4yMjI1MjM2IDExLjA4MTgzNyw3LjAwNDE4OTYgMTAuNzQ5OTE3LDcuMDAxODc3NiBaIE0gNy43NTcyNjk1LDguMzAzNjAzMyBjIDAuMDM5NjksNy45ZS00IDAuMDg4MzIsMC4wMDkgMC4xNDgyOTkxLDAuMDI3MzkgMC40Nzk5Mjc5LDAuMTQ3MTM4IC0wLjAwNzcsMC4zOTk1MDMgMC4zMzQzNTQsMC43NjY4NzkgMC4zNDIwNTMxLDAuMzY3Mzc3IDAuNjI4NTE4MiwtMC4xMDEwODYgMC43NDEwNDUyLDAuMzg4MDkxIDAuMTEyNTI3LDAuNDg5MTc3NyAtMC4zNDk5OTEzLDAuMTkyOTIxIC0wLjQ5NzEyNjEsMC42NzI4Mjc3IC0wLjE0NzE2MTIsMC40Nzk5MDQgMC40MDE0NzkxLDAuNDk0MDgzIDAuMDM0MTEsMC44MzYxMjMgLTAuMzY3Mzc0LDAuMzQyMDQxIC0wLjM0MTgxNTEsLTAuMjA2MDYgLTAuODMwOTUwMSwtMC4wOTM1MyAtMC40ODkxODgsMC4xMTI1MjcgLTAuMjI3MDM5LDAuNTk0NjU0IC0wLjcwNjk0LDAuNDQ3NTE2IC0wLjQ3OTkyOCwtMC4xNDcxMzcgMC4wMDc3LC0wLjM5OTUgLTAuMzM0MzU0LC0wLjc2Njg3NiAtMC4zNDIwNTQsLTAuMzY3Mzc5IC0wLjYyODUxOCwwLjEwMDU3MSAtMC43NDEwNDUsLTAuMzg4NjA3IC0wLjExMjUyOCwtMC40ODkxOCAwLjM0OTk5MSwtMC4xOTI5MjQgMC40OTcxMjUsLTAuNjcyODI2NyAwLjE0NzE2MiwtMC40Nzk5MDcgLTAuNDAxOTgxLC0wLjQ5MzU3IC0wLjAzNDYxLC0wLjgzNTYxIDAuMzY3Mzc0LC0wLjM0MjA0MyAwLjM0MjI5MSwwLjIwNjA2NSAwLjgzMTQ1MywwLjA5MzU0IDAuNDI4MDQzLC0wLjA5ODQ2IDAuMjgwNjQzLC0wLjQ3OTYwNyAwLjU1ODY0MSwtMC40NzQ5MDYgeiBtIDMuNTY3MjE2NSwwLjUyNDUxNiBjIDAuMDQ1NTEsNS4zNmUtNCAwLjEwMDgwNywwLjAxMjQzIDAuMTcwMDIyLDAuMDM5MjcgMC41NTMyNywwLjIxNDczOSAtMC4xNzUyMzQsMC41NDU4OTQgMC4yNTM3MzUsMC45NTYwMTM3IDAuNDI4OTY5LDAuNDEwMTE4IDAuNzI3NDcyLC0wLjMzMjc0MTcgMC45NjY4NjcsMC4yMTAzMjMgMC4yMzkzNjksMC41NDMwNjUgLTAuNTEwNDM0LDAuMjYyNDMyIC0wLjQ5NzEyNiwwLjg1NTc2MyAwLjAxMzIzLDAuNTkzMzMxIDAuNzQ5NTkxLDAuMjc4NzIgMC41MzQ4MjksMC44MzE5OSAtMC4yMTQ3MDksMC41NTMyNjggLTAuNTQ1ODg4LC0wLjE3NTI0NyAtMC45NTU5OTIsMC4yNTM3MyAtMC40MTAxMzEsMC40Mjg5NzcgMC4zMzIyMSwwLjcyNjk3MiAtMC4yMTA4NDcsMC45NjYzNDggLTAuNTQzMDU3LDAuMjM5MzggLTAuMjYxMzgyLC0wLjUwOTkzOSAtMC44NTQ3MzYsLTAuNDk2NjA5IC0wLjU5MzMyOCwwLjAxMzMzIC0wLjI3OTIxNSwwLjc0OTA3MiAtMC44MzI1MSwwLjUzNDMzNCBDIDkuMzQ1NDg0OCwxMi43NjQ1NDMgMTAuMDczOTg3LDEyLjQzMzM4OCA5LjY0NDk5MywxMi4wMjMyNjggOS4yMTYwMjM4LDExLjYxMzE0OCA4LjkxODAyMzgsMTIuMzU2MDA4IDguNjc4NjU0NiwxMS44MTI5NDUgOC40MzkyODY3LDExLjI2OTg4IDkuMTg4NTU5OCwxMS41NTEwMzIgOS4xNzUyNzc4LDEwLjk1NzcwMSA5LjE2MTc4NzgsMTAuMzY0MzcgOC40MjU2ODY3LDEwLjY3ODQ2MiA4LjY0MDQyMjUsMTAuMTI1MTkyIDguODU1MTU4OCw5LjU3MTkyMjMgOS4xODY4MTM4LDEwLjMwMDk1NSA5LjU5Njk0NSw5Ljg3MTk3OCAxMC4wMDcwNDgsOS40NDMwMDEzIDkuMjY0MTc3OCw5LjE0NDQ5MDMgOS44MDcyNjIsOC45MDUxMTQzIGMgMC41NDMwNTUsLTAuMjM5Mzc3IDAuMjYxOTEsMC41MDk5MzkgMC44NTUyMzcsMC40OTY2MDkgMC41MTkxOTIsLTAuMDExNjcgMC4zNDM0MjksLTAuNTc2NDA4IDAuNjYxOTg3LC0wLjU3MzYwOCB6IG0gLTMuODgxNDA5NSwwLjI1NTI4IGMgLTAuNDE3OTg4LC0xLjU4ZS00IC0wLjc1Njk0NiwwLjMzODU2NCAtMC43NTcwNzgsMC43NTY1NDQ3IC0xLjU5ZS00LDAuNDE4MTgyIDAuMzM4OTA1LDAuNzU3MjE5IDAuNzU3MDc4LDAuNzU3MDYgMC40MTc5NjMxLC0xLjQ4ZS00IDAuNzU2NjgyLC0wLjMzOTA5NSAwLjc1NjUyMzksLTAuNzU3MDYgQyA4LjE5OTQ2NzUsOS40MjIxODAzIDcuODYwODI3Niw5LjA4MzU0NzMgNy40NDMwNzY1LDkuMDgzMzk5MyBaIE0gMTAuNjk2NjMsOS44MDg0MjEgYyAtMC42MTU2ODQsNC4yZS01IC0xLjExNDg0NiwwLjQ5ODk4MyAtMS4xMTUxOSwxLjExNDY2MSAtMi4zOGUtNCwwLjYxNjA4MiAwLjQ5OTEwOSwxLjExNTY1IDEuMTE1MTksMS4xMTU2OTIgMC42MTYyNjgsMi4yMmUtNCAxLjExNTkwNywtMC40OTk0MjUgMS4xMTU2NjksLTEuMTE1NjkyIDAsLTAuNjE1ODY2IC0wLjQ5OTc5OCwtMS4xMTQ4ODMgLTEuMTE1NjY5LC0xLjExNDY2MSB6IiBzdHlsZT0ib3BhY2l0eToxO2ZpbGw6I2ZmZmZmZjtmaWxsLW9wYWNpdHk6MTtzdHJva2U6I2VlZWVlZTtzdHJva2Utd2lkdGg6MDtzdHJva2UtbWl0ZXJsaW1pdDoxMDtzdHJva2UtZGFzaGFycmF5Om5vbmU7c3Ryb2tlLWRhc2hvZmZzZXQ6MTEuMjM2NDIzNDk7c3Ryb2tlLW9wYWNpdHk6MSIgaW5rc2NhcGU6Y29ubmVjdG9yLWN1cnZhdHVyZT0iMCIgc29kaXBvZGk6bm9kZXR5cGVzPSJjY2NjY2NjY2NjY2Njc2NjY2Njc2NjY2NjY2NjY2NjY2Njc2NzY2NjY2NjY2NjY2NjY2NjY2NjY2Njc2NjY2NjY2NjY2NjY2NjIi8+JiN4YTsgIDwvZz4mI3hhOzwvc3ZnPg==;" vertex="1" parent="fbrefnu1O2uLkhK6T9n--86">
          <mxGeometry x="312.5" y="20" width="50" height="50" as="geometry" />
        </mxCell>
        <mxCell id="fbrefnu1O2uLkhK6T9n--95" value="" style="shape=image;verticalLabelPosition=bottom;verticalAlign=top;imageAspect=0;aspect=fixed;image=data:image/svg+xml,PHN2ZyB4bWxuczpkYz0iaHR0cDovL3B1cmwub3JnL2RjL2VsZW1lbnRzLzEuMS8iIHhtbG5zOmNjPSJodHRwOi8vY3JlYXRpdmVjb21tb25zLm9yZy9ucyMiIHhtbG5zOnJkZj0iaHR0cDovL3d3dy53My5vcmcvMTk5OS8wMi8yMi1yZGYtc3ludGF4LW5zIyIgeG1sbnM6c3ZnPSJodHRwOi8vd3d3LnczLm9yZy8yMDAwL3N2ZyIgeG1sbnM9Imh0dHA6Ly93d3cudzMub3JnLzIwMDAvc3ZnIiB4bWxuczpzb2RpcG9kaT0iaHR0cDovL3NvZGlwb2RpLnNvdXJjZWZvcmdlLm5ldC9EVEQvc29kaXBvZGktMC5kdGQiIHhtbG5zOmlua3NjYXBlPSJodHRwOi8vd3d3Lmlua3NjYXBlLm9yZy9uYW1lc3BhY2VzL2lua3NjYXBlIiB3aWR0aD0iMTguMDM1MzM0bW0iIGhlaWdodD0iMTcuNTAwMzc4bW0iIHZpZXdCb3g9IjAgMCAxOC4wMzUzMzQgMTcuNTAwMzc4IiB2ZXJzaW9uPSIxLjEiIGlkPSJzdmcxMTUzMSIgaW5rc2NhcGU6dmVyc2lvbj0iMC45MSByMTM3MjUiIHNvZGlwb2RpOmRvY25hbWU9ImFwaS5zdmciPiYjeGE7ICA8ZGVmcyBpZD0iZGVmczExNTI1Ii8+JiN4YTsgIDxzb2RpcG9kaTpuYW1lZHZpZXcgaWQ9ImJhc2UiIHBhZ2Vjb2xvcj0iI2ZmZmZmZiIgYm9yZGVyY29sb3I9IiM2NjY2NjYiIGJvcmRlcm9wYWNpdHk9IjEuMCIgaW5rc2NhcGU6cGFnZW9wYWNpdHk9IjAuMCIgaW5rc2NhcGU6cGFnZXNoYWRvdz0iMiIgaW5rc2NhcGU6em9vbT0iOCIgaW5rc2NhcGU6Y3g9IjE2Ljk2ODYyMSIgaW5rc2NhcGU6Y3k9IjMzLjUwOTA4MSIgaW5rc2NhcGU6ZG9jdW1lbnQtdW5pdHM9Im1tIiBpbmtzY2FwZTpjdXJyZW50LWxheWVyPSJsYXllcjEiIHNob3dncmlkPSJmYWxzZSIgaW5rc2NhcGU6d2luZG93LXdpZHRoPSIxNDQwIiBpbmtzY2FwZTp3aW5kb3ctaGVpZ2h0PSI3NzEiIGlua3NjYXBlOndpbmRvdy14PSI1NSIgaW5rc2NhcGU6d2luZG93LXk9IjAiIGlua3NjYXBlOndpbmRvdy1tYXhpbWl6ZWQ9IjAiIGZpdC1tYXJnaW4tdG9wPSIwIiBmaXQtbWFyZ2luLWxlZnQ9IjAiIGZpdC1tYXJnaW4tcmlnaHQ9IjAiIGZpdC1tYXJnaW4tYm90dG9tPSIwIi8+JiN4YTsgIDxtZXRhZGF0YSBpZD0ibWV0YWRhdGExMTUyOCI+JiN4YTsgICAgPHJkZjpSREY+JiN4YTsgICAgICA8Y2M6V29yayByZGY6YWJvdXQ9IiI+JiN4YTsgICAgICAgIDxkYzpmb3JtYXQ+aW1hZ2Uvc3ZnK3htbDwvZGM6Zm9ybWF0PiYjeGE7ICAgICAgICA8ZGM6dHlwZSByZGY6cmVzb3VyY2U9Imh0dHA6Ly9wdXJsLm9yZy9kYy9kY21pdHlwZS9TdGlsbEltYWdlIi8+JiN4YTsgICAgICAgIDxkYzp0aXRsZS8+JiN4YTsgICAgICA8L2NjOldvcms+JiN4YTsgICAgPC9yZGY6UkRGPiYjeGE7ICA8L21ldGFkYXRhPiYjeGE7ICA8ZyBpbmtzY2FwZTpsYWJlbD0iQ2FscXVlIDEiIGlua3NjYXBlOmdyb3VwbW9kZT0ibGF5ZXIiIGlkPSJsYXllcjEiIHRyYW5zZm9ybT0idHJhbnNsYXRlKC0wLjk5MjYyNjM4LC0xLjE3NDE4MSkiPiYjeGE7ICAgIDxnIGlkPSJnNzAiIHRyYW5zZm9ybT0ibWF0cml4KDEuMDE0ODg4NywwLDAsMS4wMTQ4ODg3LDE2LjkwMjE0NiwtMi42OTg3MjYpIj4mI3hhOyAgICAgIDxwYXRoIGlua3NjYXBlOmV4cG9ydC15ZHBpPSIyNTAuNTUiIGlua3NjYXBlOmV4cG9ydC14ZHBpPSIyNTAuNTUiIGlua3NjYXBlOmV4cG9ydC1maWxlbmFtZT0ibmV3LnBuZyIgaW5rc2NhcGU6Y29ubmVjdG9yLWN1cnZhdHVyZT0iMCIgaWQ9InBhdGgzMDU1IiBkPSJtIC02Ljg0OTIwMTUsNC4yNzI0NjY4IGEgMS4xMTkxMjU1LDEuMTA5OTY3MSAwIDAgMCAtMC40Mjg4ODE4LDAuMTA4NTMwMyBsIC01Ljg1MjQwMzcsMi43OTYzMzk0IGEgMS4xMTkxMjU1LDEuMTA5OTY3MSAwIDAgMCAtMC42MDU1MjQsMC43NTI5NzU5IGwgLTEuNDQzODI4LDYuMjgxMjg0NiBhIDEuMTE5MTI1NSwxLjEwOTk2NzEgMCAwIDAgMC4xNTE5NDMsMC44NTEwMjggMS4xMTkxMjU1LDEuMTA5OTY3MSAwIDAgMCAwLjA2MzYyLDAuMDg4MzIgbCA0LjA1MDgsNS4wMzY1NTUgYSAxLjExOTEyNTUsMS4xMDk5NjcxIDAgMCAwIDAuODc0OTc5LDAuNDE3NjU0IGwgNi40OTYxMDExLC0wLjAwMTUgYSAxLjExOTEyNTUsMS4xMDk5NjcxIDAgMCAwIDAuODc0OTc4OCwtMC40MTY5MDYgTCAxLjM4MTg4NzIsMTUuMTQ5NDUzIEEgMS4xMTkxMjU1LDEuMTA5OTY3MSAwIDAgMCAxLjU5ODE5ODYsMTQuMjEwMTA0IEwgMC4xNTIxMjY1Nyw3LjkyODgxNTQgQSAxLjExOTEyNTUsMS4xMDk5NjcxIDAgMCAwIC0wLjQ1MzM5Nzk0LDcuMTc1ODM5NiBMIC02LjMwNjU0OTYsNC4zODA5OTcxIEEgMS4xMTkxMjU1LDEuMTA5OTY3MSAwIDAgMCAtNi44NDkyMDE1LDQuMjcyNDY2OCBaIiBzdHlsZT0iZmlsbDojMzI2Y2U1O2ZpbGwtb3BhY2l0eToxO3N0cm9rZTpub25lO3N0cm9rZS13aWR0aDowO3N0cm9rZS1taXRlcmxpbWl0OjQ7c3Ryb2tlLWRhc2hhcnJheTpub25lO3N0cm9rZS1vcGFjaXR5OjEiLz4mI3hhOyAgICAgIDxwYXRoIGlkPSJwYXRoMzA1NC0yLTkiIGQ9Ik0gLTYuODUyMzQzNSwzLjgxNzYzNzIgQSAxLjE4MTQzMDQsMS4xNzE3NjIgMCAwIDAgLTcuMzA0NDI4NCwzLjkzMjkwNCBsIC02LjE3ODc0MjYsMi45NTEyNzU4IGEgMS4xODE0MzA0LDEuMTcxNzYyIDAgMCAwIC0wLjYzOTIwNiwwLjc5NDg5MSBsIC0xLjUyMzkxNSw2LjYzMDgyODIgYSAxLjE4MTQzMDQsMS4xNzE3NjIgMCAwIDAgMC4xNjAxNzUsMC44OTg5MyAxLjE4MTQzMDQsMS4xNzE3NjIgMCAwIDAgMC4wNjczNiwwLjA5MjgxIGwgNC4yNzYwOTQsNS4zMTcyMzYgYSAxLjE4MTQzMDQsMS4xNzE3NjIgMCAwIDAgMC45MjM2MywwLjQ0MDg1OCBsIDYuODU3NjE4OCwtMC4wMDE1IGEgMS4xODE0MzA0LDEuMTcxNzYyIDAgMCAwIDAuOTIzNjMwOCwtMC40NDAxMSBsIDQuMjc0NTk2NiwtNS4zMTc5ODUgYSAxLjE4MTQzMDQsMS4xNzE3NjIgMCAwIDAgMC4yMjgyODgsLTAuOTkwOTkzIEwgMC41Mzg5NDQzOSw3LjY3NzU3MzggQSAxLjE4MTQzMDQsMS4xNzE3NjIgMCAwIDAgLTAuMTAwMjYxMDEsNi44ODM0MzEzIEwgLTYuMjc5MDAzNywzLjkzMjE1NTUgQSAxLjE4MTQzMDQsMS4xNzE3NjIgMCAwIDAgLTYuODUyMzQzNSwzLjgxNzYzNzIgWiBtIDAuMDAyOTksMC40NTUwNzg5IGEgMS4xMTkxMjU1LDEuMTA5OTY3MSAwIDAgMSAwLjU0MjY1MTcsMC4xMDg1MzAzIGwgNS44NTMxNTE2OSwyLjc5NDg0MjUgQSAxLjExOTEyNTUsMS4xMDk5NjcxIDAgMCAxIDAuMTUxOTc4MTEsNy45MjkwNjQ4IEwgMS41OTgwNTEsMTQuMjEwMzUgYSAxLjExOTEyNTUsMS4xMDk5NjcxIDAgMCAxIC0wLjIxNjMxMjMsMC45MzkzNDggbCAtNC4wNDkzMDMyLDUuMDM3MzA0IGEgMS4xMTkxMjU1LDEuMTA5OTY3MSAwIDAgMSAtMC44NzQ5Nzg5LDAuNDE2OTA2IGwgLTYuNDk2MTAwNiwwLjAwMTUgYSAxLjExOTEyNTUsMS4xMDk5NjcxIDAgMCAxIC0wLjg3NDk3OSwtMC40MTc2NTIgbCAtNC4wNTA4LC01LjAzNjU1NCBhIDEuMTE5MTI1NSwxLjEwOTk2NzEgMCAwIDEgLTAuMDYzNjIsLTAuMDg4MzIgMS4xMTkxMjU1LDEuMTA5OTY3MSAwIDAgMSAtMC4xNTE5NDIsLTAuODUxMDI4IGwgMS40NDM4MjcsLTYuMjgxMjg1MyBhIDEuMTE5MTI1NSwxLjEwOTk2NzEgMCAwIDEgMC42MDU1MjQsLTAuNzUyOTc1OCBsIDUuODUyNDAzNiwtMi43OTYzMzk1IGEgMS4xMTkxMjU1LDEuMTA5OTY3MSAwIDAgMSAwLjQyODg4MTksLTAuMTA4NTMwMyB6IiBzdHlsZT0iY29sb3I6IzAwMDAwMDtmb250LXN0eWxlOm5vcm1hbDtmb250LXZhcmlhbnQ6bm9ybWFsO2ZvbnQtd2VpZ2h0Om5vcm1hbDtmb250LXN0cmV0Y2g6bm9ybWFsO2ZvbnQtc2l6ZTptZWRpdW07bGluZS1oZWlnaHQ6bm9ybWFsO2ZvbnQtZmFtaWx5OlNhbnM7LWlua3NjYXBlLWZvbnQtc3BlY2lmaWNhdGlvbjpTYW5zO3RleHQtaW5kZW50OjA7dGV4dC1hbGlnbjpzdGFydDt0ZXh0LWRlY29yYXRpb246bm9uZTt0ZXh0LWRlY29yYXRpb24tbGluZTpub25lO2xldHRlci1zcGFjaW5nOm5vcm1hbDt3b3JkLXNwYWNpbmc6bm9ybWFsO3RleHQtdHJhbnNmb3JtOm5vbmU7d3JpdGluZy1tb2RlOmxyLXRiO2RpcmVjdGlvbjpsdHI7YmFzZWxpbmUtc2hpZnQ6YmFzZWxpbmU7dGV4dC1hbmNob3I6c3RhcnQ7ZGlzcGxheTppbmxpbmU7b3ZlcmZsb3c6dmlzaWJsZTt2aXNpYmlsaXR5OnZpc2libGU7ZmlsbDojZmZmZmZmO2ZpbGwtb3BhY2l0eToxO2ZpbGwtcnVsZTpub256ZXJvO3N0cm9rZTpub25lO3N0cm9rZS13aWR0aDowO3N0cm9rZS1taXRlcmxpbWl0OjQ7c3Ryb2tlLWRhc2hhcnJheTpub25lO21hcmtlcjpub25lO2VuYWJsZS1iYWNrZ3JvdW5kOmFjY3VtdWxhdGUiIGlua3NjYXBlOmNvbm5lY3Rvci1jdXJ2YXR1cmU9IjAiLz4mI3hhOyAgICA8L2c+JiN4YTsgICAgPHRleHQgaWQ9InRleHQyMDY2IiB5PSIxNi44MTE3NzUiIHg9IjEwLjA1NTc2OSIgc3R5bGU9ImZvbnQtc3R5bGU6bm9ybWFsO2ZvbnQtd2VpZ2h0Om5vcm1hbDtmb250LXNpemU6MTAuNTgzMzMzMDJweDtsaW5lLWhlaWdodDo2LjYxNDU4MzQ5cHg7Zm9udC1mYW1pbHk6U2FucztsZXR0ZXItc3BhY2luZzowcHg7d29yZC1zcGFjaW5nOjBweDtmaWxsOiNmZmZmZmY7ZmlsbC1vcGFjaXR5OjE7c3Ryb2tlOm5vbmU7c3Ryb2tlLXdpZHRoOjAuMjY0NTgzMzJweDtzdHJva2UtbGluZWNhcDpidXR0O3N0cm9rZS1saW5lam9pbjptaXRlcjtzdHJva2Utb3BhY2l0eToxIiB4bWw6c3BhY2U9InByZXNlcnZlIj48dHNwYW4gc3R5bGU9ImZvbnQtc3R5bGU6bm9ybWFsO2ZvbnQtdmFyaWFudDpub3JtYWw7Zm9udC13ZWlnaHQ6bm9ybWFsO2ZvbnQtc3RyZXRjaDpub3JtYWw7Zm9udC1zaXplOjIuODIyMjIyMjNweDtmb250LWZhbWlseTpBcmlhbDstaW5rc2NhcGUtZm9udC1zcGVjaWZpY2F0aW9uOidBcmlhbCwgTm9ybWFsJzt0ZXh0LWFsaWduOmNlbnRlcjt3cml0aW5nLW1vZGU6bHItdGI7dGV4dC1hbmNob3I6bWlkZGxlO2ZpbGw6I2ZmZmZmZjtmaWxsLW9wYWNpdHk6MTtzdHJva2Utd2lkdGg6MC4yNjQ1ODMzMnB4IiB5PSIxNi44MTE3NzUiIHg9IjEwLjA1NTc2OSIgaWQ9InRzcGFuMjA2NCIgc29kaXBvZGk6cm9sZT0ibGluZSI+YXBpPC90c3Bhbj48L3RleHQ+JiN4YTsgICAgPHBhdGggaWQ9InBhdGgxOTg0IiBkPSJtIDkuOTkyMjU3NCw0LjQ0Njk5MjUgYyAtMC4xMzgzMjM0LC0wLjAwNDQgLTMuOTk1MzEzOSwxLjg5MTc3OTEgLTQuMDQ1NzQyOSwxLjk4OTAyNDEgLTAuMTIxMTUzLDAuMjMzNjgyIC0wLjk5ODgwMiw0LjI4MTQ3ODQgLTAuOTQ3MjM1LDQuMzY4NzI0NCAwLjAzLDAuMDUwNjUgMC42NjIxOTksMC44NTIzMDUgMS40MDQ1NjcsMS43ODA3NzEgbCAxLjM0OTc5OCwxLjY4Nzc1NCAyLjIyMTU3NDMsMC4wMDExIDIuMjIxNTcyMiwwLjAwMTEgMS40MTI4MTksLTEuNzY1Nzg0IDEuNDEzODgsLTEuNzY1MjY1IC0wLjQ5NDU2LC0yLjE2ODg2MDcgQyAxNC4yNTY3Myw3LjM4MjgxNTUgMTQuMDEzMjksNi4zODcyNzU2IDEzLjk4ODQyLDYuMzYzMjg1NiAxMy45MTg5Miw2LjI5NjQwNTYgMTAuMDY3MjQsNC40NDk1NDY1IDkuOTkyMjU3NCw0LjQ0NzEyNTUgWiBtIDAuMjM2MTY2NiwxLjk4MjgyNDEgYyAwLjE4NjYzNywwLjAwOCAwLjIwNTc5MiwwLjI5MTU3MSAwLjYwNTEyOCwwLjMyMTQyNyAwLjUyMTYsMC4wMzkgMC40NjU1MDgsLTAuNDQ2NjUxIDAuODY0NTUzLC0wLjEwODUyMiAwLjM5OTA0NCwwLjMzODEyNSAtMC4wODg5LDAuMzYyNjQxIDAuMDM1MTQsMC44NzA3NDkgMC4xMjQwOSwwLjUwODEwNDEgMC41Njg4MDEsMC4zMDUwOTkxIDAuMzcwNTIzLDAuNzg5MDk4NyAtMC4xOTgyNzksMC40ODQwMDIgLTAuMzcyNjEzLDAuMDI3MjggLTAuODE3NTEsMC4zMDIzMDggLTAuNDQ0ODk3LDAuMjc1MDIzIC0wLjExNDU2NCwwLjYzNTM0NiAtMC42MzYxMzgsMC41OTYzNDcgLTAuNTIxNjUyLC0wLjAzOSAtMC4xNDA0NjcsLTAuMzQ2MDY1IC0wLjUzOTUxLC0wLjY4NDE5NyBDIDkuNzExNTY2LDguMTc4ODk1NSA5LjQ3MDM3MTgsOC42MDQ0ODczIDkuMzQ2MzA4OCw4LjA5NjM3OTcgOS4yMjIyMTg4LDcuNTg4MjcxNiA5LjYzMjI0NCw3Ljg1NTM2MjUgOS44MzA1MjMsNy4zNzEzNjA3IDEwLjAyOTIyNCw2Ljg4NzMxMzYgOS41NDk0Mjg4LDYuNzkwMTA3NiA5Ljk5NDM1MjQsNi41MTUwODE2IGMgMC4wNTU2NCwtMC4wMzQzNCAwLjEwMTg5MDYsLTAuMDU2ODggMC4xNDIxMDU2LC0wLjA3MDI4IDAuMDM1MDgsLTAuMDExNjcgMC4wNjUzMywtMC4wMTYxNCAwLjA5MTk3LC0wLjAxNDk3IHogbSAwLjUyMTQ5MywwLjU3MjA1OSBjIC0wLjA3NTc4LC01LjMwNmUtNCAtMC4xNTEyMDksMC4wMTAyMSAtMC4yMjM3NTgsMC4wMzIwNCAtMC40MDAzOTMsMC4xMjA3MzIgLTAuNjI2OTU0LDAuNTQzMzIxOSAtMC41MDU5MDksMC45NDM2MTMgMC4xMjA5NCwwLjM5OTkxOTcgMC41NDMxMSwwLjYyNjE0ODcgMC45NDMxMDcsMC41MDUzOTM3IDAuMzk5ODM4LC0wLjEyMDc0NiAwLjYyNjI2OCwtMC41NDI2MTA3IDAuNTA1OTA5LC0wLjk0MjU3ODggQyAxMS4zNzM1MTYsNy4yMjI1MjM2IDExLjA4MTgzNyw3LjAwNDE4OTYgMTAuNzQ5OTE3LDcuMDAxODc3NiBaIE0gNy43NTcyNjk1LDguMzAzNjAzMyBjIDAuMDM5NjksNy45ZS00IDAuMDg4MzIsMC4wMDkgMC4xNDgyOTkxLDAuMDI3MzkgMC40Nzk5Mjc5LDAuMTQ3MTM4IC0wLjAwNzcsMC4zOTk1MDMgMC4zMzQzNTQsMC43NjY4NzkgMC4zNDIwNTMxLDAuMzY3Mzc3IDAuNjI4NTE4MiwtMC4xMDEwODYgMC43NDEwNDUyLDAuMzg4MDkxIDAuMTEyNTI3LDAuNDg5MTc3NyAtMC4zNDk5OTEzLDAuMTkyOTIxIC0wLjQ5NzEyNjEsMC42NzI4Mjc3IC0wLjE0NzE2MTIsMC40Nzk5MDQgMC40MDE0NzkxLDAuNDk0MDgzIDAuMDM0MTEsMC44MzYxMjMgLTAuMzY3Mzc0LDAuMzQyMDQxIC0wLjM0MTgxNTEsLTAuMjA2MDYgLTAuODMwOTUwMSwtMC4wOTM1MyAtMC40ODkxODgsMC4xMTI1MjcgLTAuMjI3MDM5LDAuNTk0NjU0IC0wLjcwNjk0LDAuNDQ3NTE2IC0wLjQ3OTkyOCwtMC4xNDcxMzcgMC4wMDc3LC0wLjM5OTUgLTAuMzM0MzU0LC0wLjc2Njg3NiAtMC4zNDIwNTQsLTAuMzY3Mzc5IC0wLjYyODUxOCwwLjEwMDU3MSAtMC43NDEwNDUsLTAuMzg4NjA3IC0wLjExMjUyOCwtMC40ODkxOCAwLjM0OTk5MSwtMC4xOTI5MjQgMC40OTcxMjUsLTAuNjcyODI2NyAwLjE0NzE2MiwtMC40Nzk5MDcgLTAuNDAxOTgxLC0wLjQ5MzU3IC0wLjAzNDYxLC0wLjgzNTYxIDAuMzY3Mzc0LC0wLjM0MjA0MyAwLjM0MjI5MSwwLjIwNjA2NSAwLjgzMTQ1MywwLjA5MzU0IDAuNDI4MDQzLC0wLjA5ODQ2IDAuMjgwNjQzLC0wLjQ3OTYwNyAwLjU1ODY0MSwtMC40NzQ5MDYgeiBtIDMuNTY3MjE2NSwwLjUyNDUxNiBjIDAuMDQ1NTEsNS4zNmUtNCAwLjEwMDgwNywwLjAxMjQzIDAuMTcwMDIyLDAuMDM5MjcgMC41NTMyNywwLjIxNDczOSAtMC4xNzUyMzQsMC41NDU4OTQgMC4yNTM3MzUsMC45NTYwMTM3IDAuNDI4OTY5LDAuNDEwMTE4IDAuNzI3NDcyLC0wLjMzMjc0MTcgMC45NjY4NjcsMC4yMTAzMjMgMC4yMzkzNjksMC41NDMwNjUgLTAuNTEwNDM0LDAuMjYyNDMyIC0wLjQ5NzEyNiwwLjg1NTc2MyAwLjAxMzIzLDAuNTkzMzMxIDAuNzQ5NTkxLDAuMjc4NzIgMC41MzQ4MjksMC44MzE5OSAtMC4yMTQ3MDksMC41NTMyNjggLTAuNTQ1ODg4LC0wLjE3NTI0NyAtMC45NTU5OTIsMC4yNTM3MyAtMC40MTAxMzEsMC40Mjg5NzcgMC4zMzIyMSwwLjcyNjk3MiAtMC4yMTA4NDcsMC45NjYzNDggLTAuNTQzMDU3LDAuMjM5MzggLTAuMjYxMzgyLC0wLjUwOTkzOSAtMC44NTQ3MzYsLTAuNDk2NjA5IC0wLjU5MzMyOCwwLjAxMzMzIC0wLjI3OTIxNSwwLjc0OTA3MiAtMC44MzI1MSwwLjUzNDMzNCBDIDkuMzQ1NDg0OCwxMi43NjQ1NDMgMTAuMDczOTg3LDEyLjQzMzM4OCA5LjY0NDk5MywxMi4wMjMyNjggOS4yMTYwMjM4LDExLjYxMzE0OCA4LjkxODAyMzgsMTIuMzU2MDA4IDguNjc4NjU0NiwxMS44MTI5NDUgOC40MzkyODY3LDExLjI2OTg4IDkuMTg4NTU5OCwxMS41NTEwMzIgOS4xNzUyNzc4LDEwLjk1NzcwMSA5LjE2MTc4NzgsMTAuMzY0MzcgOC40MjU2ODY3LDEwLjY3ODQ2MiA4LjY0MDQyMjUsMTAuMTI1MTkyIDguODU1MTU4OCw5LjU3MTkyMjMgOS4xODY4MTM4LDEwLjMwMDk1NSA5LjU5Njk0NSw5Ljg3MTk3OCAxMC4wMDcwNDgsOS40NDMwMDEzIDkuMjY0MTc3OCw5LjE0NDQ5MDMgOS44MDcyNjIsOC45MDUxMTQzIGMgMC41NDMwNTUsLTAuMjM5Mzc3IDAuMjYxOTEsMC41MDk5MzkgMC44NTUyMzcsMC40OTY2MDkgMC41MTkxOTIsLTAuMDExNjcgMC4zNDM0MjksLTAuNTc2NDA4IDAuNjYxOTg3LC0wLjU3MzYwOCB6IG0gLTMuODgxNDA5NSwwLjI1NTI4IGMgLTAuNDE3OTg4LC0xLjU4ZS00IC0wLjc1Njk0NiwwLjMzODU2NCAtMC43NTcwNzgsMC43NTY1NDQ3IC0xLjU5ZS00LDAuNDE4MTgyIDAuMzM4OTA1LDAuNzU3MjE5IDAuNzU3MDc4LDAuNzU3MDYgMC40MTc5NjMxLC0xLjQ4ZS00IDAuNzU2NjgyLC0wLjMzOTA5NSAwLjc1NjUyMzksLTAuNzU3MDYgQyA4LjE5OTQ2NzUsOS40MjIxODAzIDcuODYwODI3Niw5LjA4MzU0NzMgNy40NDMwNzY1LDkuMDgzMzk5MyBaIE0gMTAuNjk2NjMsOS44MDg0MjEgYyAtMC42MTU2ODQsNC4yZS01IC0xLjExNDg0NiwwLjQ5ODk4MyAtMS4xMTUxOSwxLjExNDY2MSAtMi4zOGUtNCwwLjYxNjA4MiAwLjQ5OTEwOSwxLjExNTY1IDEuMTE1MTksMS4xMTU2OTIgMC42MTYyNjgsMi4yMmUtNCAxLjExNTkwNywtMC40OTk0MjUgMS4xMTU2NjksLTEuMTE1NjkyIDAsLTAuNjE1ODY2IC0wLjQ5OTc5OCwtMS4xMTQ4ODMgLTEuMTE1NjY5LC0xLjExNDY2MSB6IiBzdHlsZT0ib3BhY2l0eToxO2ZpbGw6I2ZmZmZmZjtmaWxsLW9wYWNpdHk6MTtzdHJva2U6I2VlZWVlZTtzdHJva2Utd2lkdGg6MDtzdHJva2UtbWl0ZXJsaW1pdDoxMDtzdHJva2UtZGFzaGFycmF5Om5vbmU7c3Ryb2tlLWRhc2hvZmZzZXQ6MTEuMjM2NDIzNDk7c3Ryb2tlLW9wYWNpdHk6MSIgaW5rc2NhcGU6Y29ubmVjdG9yLWN1cnZhdHVyZT0iMCIgc29kaXBvZGk6bm9kZXR5cGVzPSJjY2NjY2NjY2NjY2Njc2NjY2Njc2NjY2NjY2NjY2NjY2Njc2NzY2NjY2NjY2NjY2NjY2NjY2NjY2Njc2NjY2NjY2NjY2NjY2NjIi8+JiN4YTsgIDwvZz4mI3hhOzwvc3ZnPg==;" vertex="1" parent="fbrefnu1O2uLkhK6T9n--86">
          <mxGeometry x="427.5" y="40" width="50" height="50" as="geometry" />
        </mxCell>
        <mxCell id="fbrefnu1O2uLkhK6T9n--96" value="" style="shape=image;verticalLabelPosition=bottom;verticalAlign=top;imageAspect=0;aspect=fixed;image=data:image/svg+xml,PHN2ZyB4bWxuczpkYz0iaHR0cDovL3B1cmwub3JnL2RjL2VsZW1lbnRzLzEuMS8iIHhtbG5zOmNjPSJodHRwOi8vY3JlYXRpdmVjb21tb25zLm9yZy9ucyMiIHhtbG5zOnJkZj0iaHR0cDovL3d3dy53My5vcmcvMTk5OS8wMi8yMi1yZGYtc3ludGF4LW5zIyIgeG1sbnM6c3ZnPSJodHRwOi8vd3d3LnczLm9yZy8yMDAwL3N2ZyIgeG1sbnM9Imh0dHA6Ly93d3cudzMub3JnLzIwMDAvc3ZnIiB4bWxuczpzb2RpcG9kaT0iaHR0cDovL3NvZGlwb2RpLnNvdXJjZWZvcmdlLm5ldC9EVEQvc29kaXBvZGktMC5kdGQiIHhtbG5zOmlua3NjYXBlPSJodHRwOi8vd3d3Lmlua3NjYXBlLm9yZy9uYW1lc3BhY2VzL2lua3NjYXBlIiB3aWR0aD0iMTguMDM1MzM0bW0iIGhlaWdodD0iMTcuNTAwMzc4bW0iIHZpZXdCb3g9IjAgMCAxOC4wMzUzMzQgMTcuNTAwMzc4IiB2ZXJzaW9uPSIxLjEiIGlkPSJzdmcxMTUzMSIgaW5rc2NhcGU6dmVyc2lvbj0iMC45MSByMTM3MjUiIHNvZGlwb2RpOmRvY25hbWU9ImFwaS5zdmciPiYjeGE7ICA8ZGVmcyBpZD0iZGVmczExNTI1Ii8+JiN4YTsgIDxzb2RpcG9kaTpuYW1lZHZpZXcgaWQ9ImJhc2UiIHBhZ2Vjb2xvcj0iI2ZmZmZmZiIgYm9yZGVyY29sb3I9IiM2NjY2NjYiIGJvcmRlcm9wYWNpdHk9IjEuMCIgaW5rc2NhcGU6cGFnZW9wYWNpdHk9IjAuMCIgaW5rc2NhcGU6cGFnZXNoYWRvdz0iMiIgaW5rc2NhcGU6em9vbT0iOCIgaW5rc2NhcGU6Y3g9IjE2Ljk2ODYyMSIgaW5rc2NhcGU6Y3k9IjMzLjUwOTA4MSIgaW5rc2NhcGU6ZG9jdW1lbnQtdW5pdHM9Im1tIiBpbmtzY2FwZTpjdXJyZW50LWxheWVyPSJsYXllcjEiIHNob3dncmlkPSJmYWxzZSIgaW5rc2NhcGU6d2luZG93LXdpZHRoPSIxNDQwIiBpbmtzY2FwZTp3aW5kb3ctaGVpZ2h0PSI3NzEiIGlua3NjYXBlOndpbmRvdy14PSI1NSIgaW5rc2NhcGU6d2luZG93LXk9IjAiIGlua3NjYXBlOndpbmRvdy1tYXhpbWl6ZWQ9IjAiIGZpdC1tYXJnaW4tdG9wPSIwIiBmaXQtbWFyZ2luLWxlZnQ9IjAiIGZpdC1tYXJnaW4tcmlnaHQ9IjAiIGZpdC1tYXJnaW4tYm90dG9tPSIwIi8+JiN4YTsgIDxtZXRhZGF0YSBpZD0ibWV0YWRhdGExMTUyOCI+JiN4YTsgICAgPHJkZjpSREY+JiN4YTsgICAgICA8Y2M6V29yayByZGY6YWJvdXQ9IiI+JiN4YTsgICAgICAgIDxkYzpmb3JtYXQ+aW1hZ2Uvc3ZnK3htbDwvZGM6Zm9ybWF0PiYjeGE7ICAgICAgICA8ZGM6dHlwZSByZGY6cmVzb3VyY2U9Imh0dHA6Ly9wdXJsLm9yZy9kYy9kY21pdHlwZS9TdGlsbEltYWdlIi8+JiN4YTsgICAgICAgIDxkYzp0aXRsZS8+JiN4YTsgICAgICA8L2NjOldvcms+JiN4YTsgICAgPC9yZGY6UkRGPiYjeGE7ICA8L21ldGFkYXRhPiYjeGE7ICA8ZyBpbmtzY2FwZTpsYWJlbD0iQ2FscXVlIDEiIGlua3NjYXBlOmdyb3VwbW9kZT0ibGF5ZXIiIGlkPSJsYXllcjEiIHRyYW5zZm9ybT0idHJhbnNsYXRlKC0wLjk5MjYyNjM4LC0xLjE3NDE4MSkiPiYjeGE7ICAgIDxnIGlkPSJnNzAiIHRyYW5zZm9ybT0ibWF0cml4KDEuMDE0ODg4NywwLDAsMS4wMTQ4ODg3LDE2LjkwMjE0NiwtMi42OTg3MjYpIj4mI3hhOyAgICAgIDxwYXRoIGlua3NjYXBlOmV4cG9ydC15ZHBpPSIyNTAuNTUiIGlua3NjYXBlOmV4cG9ydC14ZHBpPSIyNTAuNTUiIGlua3NjYXBlOmV4cG9ydC1maWxlbmFtZT0ibmV3LnBuZyIgaW5rc2NhcGU6Y29ubmVjdG9yLWN1cnZhdHVyZT0iMCIgaWQ9InBhdGgzMDU1IiBkPSJtIC02Ljg0OTIwMTUsNC4yNzI0NjY4IGEgMS4xMTkxMjU1LDEuMTA5OTY3MSAwIDAgMCAtMC40Mjg4ODE4LDAuMTA4NTMwMyBsIC01Ljg1MjQwMzcsMi43OTYzMzk0IGEgMS4xMTkxMjU1LDEuMTA5OTY3MSAwIDAgMCAtMC42MDU1MjQsMC43NTI5NzU5IGwgLTEuNDQzODI4LDYuMjgxMjg0NiBhIDEuMTE5MTI1NSwxLjEwOTk2NzEgMCAwIDAgMC4xNTE5NDMsMC44NTEwMjggMS4xMTkxMjU1LDEuMTA5OTY3MSAwIDAgMCAwLjA2MzYyLDAuMDg4MzIgbCA0LjA1MDgsNS4wMzY1NTUgYSAxLjExOTEyNTUsMS4xMDk5NjcxIDAgMCAwIDAuODc0OTc5LDAuNDE3NjU0IGwgNi40OTYxMDExLC0wLjAwMTUgYSAxLjExOTEyNTUsMS4xMDk5NjcxIDAgMCAwIDAuODc0OTc4OCwtMC40MTY5MDYgTCAxLjM4MTg4NzIsMTUuMTQ5NDUzIEEgMS4xMTkxMjU1LDEuMTA5OTY3MSAwIDAgMCAxLjU5ODE5ODYsMTQuMjEwMTA0IEwgMC4xNTIxMjY1Nyw3LjkyODgxNTQgQSAxLjExOTEyNTUsMS4xMDk5NjcxIDAgMCAwIC0wLjQ1MzM5Nzk0LDcuMTc1ODM5NiBMIC02LjMwNjU0OTYsNC4zODA5OTcxIEEgMS4xMTkxMjU1LDEuMTA5OTY3MSAwIDAgMCAtNi44NDkyMDE1LDQuMjcyNDY2OCBaIiBzdHlsZT0iZmlsbDojMzI2Y2U1O2ZpbGwtb3BhY2l0eToxO3N0cm9rZTpub25lO3N0cm9rZS13aWR0aDowO3N0cm9rZS1taXRlcmxpbWl0OjQ7c3Ryb2tlLWRhc2hhcnJheTpub25lO3N0cm9rZS1vcGFjaXR5OjEiLz4mI3hhOyAgICAgIDxwYXRoIGlkPSJwYXRoMzA1NC0yLTkiIGQ9Ik0gLTYuODUyMzQzNSwzLjgxNzYzNzIgQSAxLjE4MTQzMDQsMS4xNzE3NjIgMCAwIDAgLTcuMzA0NDI4NCwzLjkzMjkwNCBsIC02LjE3ODc0MjYsMi45NTEyNzU4IGEgMS4xODE0MzA0LDEuMTcxNzYyIDAgMCAwIC0wLjYzOTIwNiwwLjc5NDg5MSBsIC0xLjUyMzkxNSw2LjYzMDgyODIgYSAxLjE4MTQzMDQsMS4xNzE3NjIgMCAwIDAgMC4xNjAxNzUsMC44OTg5MyAxLjE4MTQzMDQsMS4xNzE3NjIgMCAwIDAgMC4wNjczNiwwLjA5MjgxIGwgNC4yNzYwOTQsNS4zMTcyMzYgYSAxLjE4MTQzMDQsMS4xNzE3NjIgMCAwIDAgMC45MjM2MywwLjQ0MDg1OCBsIDYuODU3NjE4OCwtMC4wMDE1IGEgMS4xODE0MzA0LDEuMTcxNzYyIDAgMCAwIDAuOTIzNjMwOCwtMC40NDAxMSBsIDQuMjc0NTk2NiwtNS4zMTc5ODUgYSAxLjE4MTQzMDQsMS4xNzE3NjIgMCAwIDAgMC4yMjgyODgsLTAuOTkwOTkzIEwgMC41Mzg5NDQzOSw3LjY3NzU3MzggQSAxLjE4MTQzMDQsMS4xNzE3NjIgMCAwIDAgLTAuMTAwMjYxMDEsNi44ODM0MzEzIEwgLTYuMjc5MDAzNywzLjkzMjE1NTUgQSAxLjE4MTQzMDQsMS4xNzE3NjIgMCAwIDAgLTYuODUyMzQzNSwzLjgxNzYzNzIgWiBtIDAuMDAyOTksMC40NTUwNzg5IGEgMS4xMTkxMjU1LDEuMTA5OTY3MSAwIDAgMSAwLjU0MjY1MTcsMC4xMDg1MzAzIGwgNS44NTMxNTE2OSwyLjc5NDg0MjUgQSAxLjExOTEyNTUsMS4xMDk5NjcxIDAgMCAxIDAuMTUxOTc4MTEsNy45MjkwNjQ4IEwgMS41OTgwNTEsMTQuMjEwMzUgYSAxLjExOTEyNTUsMS4xMDk5NjcxIDAgMCAxIC0wLjIxNjMxMjMsMC45MzkzNDggbCAtNC4wNDkzMDMyLDUuMDM3MzA0IGEgMS4xMTkxMjU1LDEuMTA5OTY3MSAwIDAgMSAtMC44NzQ5Nzg5LDAuNDE2OTA2IGwgLTYuNDk2MTAwNiwwLjAwMTUgYSAxLjExOTEyNTUsMS4xMDk5NjcxIDAgMCAxIC0wLjg3NDk3OSwtMC40MTc2NTIgbCAtNC4wNTA4LC01LjAzNjU1NCBhIDEuMTE5MTI1NSwxLjEwOTk2NzEgMCAwIDEgLTAuMDYzNjIsLTAuMDg4MzIgMS4xMTkxMjU1LDEuMTA5OTY3MSAwIDAgMSAtMC4xNTE5NDIsLTAuODUxMDI4IGwgMS40NDM4MjcsLTYuMjgxMjg1MyBhIDEuMTE5MTI1NSwxLjEwOTk2NzEgMCAwIDEgMC42MDU1MjQsLTAuNzUyOTc1OCBsIDUuODUyNDAzNiwtMi43OTYzMzk1IGEgMS4xMTkxMjU1LDEuMTA5OTY3MSAwIDAgMSAwLjQyODg4MTksLTAuMTA4NTMwMyB6IiBzdHlsZT0iY29sb3I6IzAwMDAwMDtmb250LXN0eWxlOm5vcm1hbDtmb250LXZhcmlhbnQ6bm9ybWFsO2ZvbnQtd2VpZ2h0Om5vcm1hbDtmb250LXN0cmV0Y2g6bm9ybWFsO2ZvbnQtc2l6ZTptZWRpdW07bGluZS1oZWlnaHQ6bm9ybWFsO2ZvbnQtZmFtaWx5OlNhbnM7LWlua3NjYXBlLWZvbnQtc3BlY2lmaWNhdGlvbjpTYW5zO3RleHQtaW5kZW50OjA7dGV4dC1hbGlnbjpzdGFydDt0ZXh0LWRlY29yYXRpb246bm9uZTt0ZXh0LWRlY29yYXRpb24tbGluZTpub25lO2xldHRlci1zcGFjaW5nOm5vcm1hbDt3b3JkLXNwYWNpbmc6bm9ybWFsO3RleHQtdHJhbnNmb3JtOm5vbmU7d3JpdGluZy1tb2RlOmxyLXRiO2RpcmVjdGlvbjpsdHI7YmFzZWxpbmUtc2hpZnQ6YmFzZWxpbmU7dGV4dC1hbmNob3I6c3RhcnQ7ZGlzcGxheTppbmxpbmU7b3ZlcmZsb3c6dmlzaWJsZTt2aXNpYmlsaXR5OnZpc2libGU7ZmlsbDojZmZmZmZmO2ZpbGwtb3BhY2l0eToxO2ZpbGwtcnVsZTpub256ZXJvO3N0cm9rZTpub25lO3N0cm9rZS13aWR0aDowO3N0cm9rZS1taXRlcmxpbWl0OjQ7c3Ryb2tlLWRhc2hhcnJheTpub25lO21hcmtlcjpub25lO2VuYWJsZS1iYWNrZ3JvdW5kOmFjY3VtdWxhdGUiIGlua3NjYXBlOmNvbm5lY3Rvci1jdXJ2YXR1cmU9IjAiLz4mI3hhOyAgICA8L2c+JiN4YTsgICAgPHRleHQgaWQ9InRleHQyMDY2IiB5PSIxNi44MTE3NzUiIHg9IjEwLjA1NTc2OSIgc3R5bGU9ImZvbnQtc3R5bGU6bm9ybWFsO2ZvbnQtd2VpZ2h0Om5vcm1hbDtmb250LXNpemU6MTAuNTgzMzMzMDJweDtsaW5lLWhlaWdodDo2LjYxNDU4MzQ5cHg7Zm9udC1mYW1pbHk6U2FucztsZXR0ZXItc3BhY2luZzowcHg7d29yZC1zcGFjaW5nOjBweDtmaWxsOiNmZmZmZmY7ZmlsbC1vcGFjaXR5OjE7c3Ryb2tlOm5vbmU7c3Ryb2tlLXdpZHRoOjAuMjY0NTgzMzJweDtzdHJva2UtbGluZWNhcDpidXR0O3N0cm9rZS1saW5lam9pbjptaXRlcjtzdHJva2Utb3BhY2l0eToxIiB4bWw6c3BhY2U9InByZXNlcnZlIj48dHNwYW4gc3R5bGU9ImZvbnQtc3R5bGU6bm9ybWFsO2ZvbnQtdmFyaWFudDpub3JtYWw7Zm9udC13ZWlnaHQ6bm9ybWFsO2ZvbnQtc3RyZXRjaDpub3JtYWw7Zm9udC1zaXplOjIuODIyMjIyMjNweDtmb250LWZhbWlseTpBcmlhbDstaW5rc2NhcGUtZm9udC1zcGVjaWZpY2F0aW9uOidBcmlhbCwgTm9ybWFsJzt0ZXh0LWFsaWduOmNlbnRlcjt3cml0aW5nLW1vZGU6bHItdGI7dGV4dC1hbmNob3I6bWlkZGxlO2ZpbGw6I2ZmZmZmZjtmaWxsLW9wYWNpdHk6MTtzdHJva2Utd2lkdGg6MC4yNjQ1ODMzMnB4IiB5PSIxNi44MTE3NzUiIHg9IjEwLjA1NTc2OSIgaWQ9InRzcGFuMjA2NCIgc29kaXBvZGk6cm9sZT0ibGluZSI+YXBpPC90c3Bhbj48L3RleHQ+JiN4YTsgICAgPHBhdGggaWQ9InBhdGgxOTg0IiBkPSJtIDkuOTkyMjU3NCw0LjQ0Njk5MjUgYyAtMC4xMzgzMjM0LC0wLjAwNDQgLTMuOTk1MzEzOSwxLjg5MTc3OTEgLTQuMDQ1NzQyOSwxLjk4OTAyNDEgLTAuMTIxMTUzLDAuMjMzNjgyIC0wLjk5ODgwMiw0LjI4MTQ3ODQgLTAuOTQ3MjM1LDQuMzY4NzI0NCAwLjAzLDAuMDUwNjUgMC42NjIxOTksMC44NTIzMDUgMS40MDQ1NjcsMS43ODA3NzEgbCAxLjM0OTc5OCwxLjY4Nzc1NCAyLjIyMTU3NDMsMC4wMDExIDIuMjIxNTcyMiwwLjAwMTEgMS40MTI4MTksLTEuNzY1Nzg0IDEuNDEzODgsLTEuNzY1MjY1IC0wLjQ5NDU2LC0yLjE2ODg2MDcgQyAxNC4yNTY3Myw3LjM4MjgxNTUgMTQuMDEzMjksNi4zODcyNzU2IDEzLjk4ODQyLDYuMzYzMjg1NiAxMy45MTg5Miw2LjI5NjQwNTYgMTAuMDY3MjQsNC40NDk1NDY1IDkuOTkyMjU3NCw0LjQ0NzEyNTUgWiBtIDAuMjM2MTY2NiwxLjk4MjgyNDEgYyAwLjE4NjYzNywwLjAwOCAwLjIwNTc5MiwwLjI5MTU3MSAwLjYwNTEyOCwwLjMyMTQyNyAwLjUyMTYsMC4wMzkgMC40NjU1MDgsLTAuNDQ2NjUxIDAuODY0NTUzLC0wLjEwODUyMiAwLjM5OTA0NCwwLjMzODEyNSAtMC4wODg5LDAuMzYyNjQxIDAuMDM1MTQsMC44NzA3NDkgMC4xMjQwOSwwLjUwODEwNDEgMC41Njg4MDEsMC4zMDUwOTkxIDAuMzcwNTIzLDAuNzg5MDk4NyAtMC4xOTgyNzksMC40ODQwMDIgLTAuMzcyNjEzLDAuMDI3MjggLTAuODE3NTEsMC4zMDIzMDggLTAuNDQ0ODk3LDAuMjc1MDIzIC0wLjExNDU2NCwwLjYzNTM0NiAtMC42MzYxMzgsMC41OTYzNDcgLTAuNTIxNjUyLC0wLjAzOSAtMC4xNDA0NjcsLTAuMzQ2MDY1IC0wLjUzOTUxLC0wLjY4NDE5NyBDIDkuNzExNTY2LDguMTc4ODk1NSA5LjQ3MDM3MTgsOC42MDQ0ODczIDkuMzQ2MzA4OCw4LjA5NjM3OTcgOS4yMjIyMTg4LDcuNTg4MjcxNiA5LjYzMjI0NCw3Ljg1NTM2MjUgOS44MzA1MjMsNy4zNzEzNjA3IDEwLjAyOTIyNCw2Ljg4NzMxMzYgOS41NDk0Mjg4LDYuNzkwMTA3NiA5Ljk5NDM1MjQsNi41MTUwODE2IGMgMC4wNTU2NCwtMC4wMzQzNCAwLjEwMTg5MDYsLTAuMDU2ODggMC4xNDIxMDU2LC0wLjA3MDI4IDAuMDM1MDgsLTAuMDExNjcgMC4wNjUzMywtMC4wMTYxNCAwLjA5MTk3LC0wLjAxNDk3IHogbSAwLjUyMTQ5MywwLjU3MjA1OSBjIC0wLjA3NTc4LC01LjMwNmUtNCAtMC4xNTEyMDksMC4wMTAyMSAtMC4yMjM3NTgsMC4wMzIwNCAtMC40MDAzOTMsMC4xMjA3MzIgLTAuNjI2OTU0LDAuNTQzMzIxOSAtMC41MDU5MDksMC45NDM2MTMgMC4xMjA5NCwwLjM5OTkxOTcgMC41NDMxMSwwLjYyNjE0ODcgMC45NDMxMDcsMC41MDUzOTM3IDAuMzk5ODM4LC0wLjEyMDc0NiAwLjYyNjI2OCwtMC41NDI2MTA3IDAuNTA1OTA5LC0wLjk0MjU3ODggQyAxMS4zNzM1MTYsNy4yMjI1MjM2IDExLjA4MTgzNyw3LjAwNDE4OTYgMTAuNzQ5OTE3LDcuMDAxODc3NiBaIE0gNy43NTcyNjk1LDguMzAzNjAzMyBjIDAuMDM5NjksNy45ZS00IDAuMDg4MzIsMC4wMDkgMC4xNDgyOTkxLDAuMDI3MzkgMC40Nzk5Mjc5LDAuMTQ3MTM4IC0wLjAwNzcsMC4zOTk1MDMgMC4zMzQzNTQsMC43NjY4NzkgMC4zNDIwNTMxLDAuMzY3Mzc3IDAuNjI4NTE4MiwtMC4xMDEwODYgMC43NDEwNDUyLDAuMzg4MDkxIDAuMTEyNTI3LDAuNDg5MTc3NyAtMC4zNDk5OTEzLDAuMTkyOTIxIC0wLjQ5NzEyNjEsMC42NzI4Mjc3IC0wLjE0NzE2MTIsMC40Nzk5MDQgMC40MDE0NzkxLDAuNDk0MDgzIDAuMDM0MTEsMC44MzYxMjMgLTAuMzY3Mzc0LDAuMzQyMDQxIC0wLjM0MTgxNTEsLTAuMjA2MDYgLTAuODMwOTUwMSwtMC4wOTM1MyAtMC40ODkxODgsMC4xMTI1MjcgLTAuMjI3MDM5LDAuNTk0NjU0IC0wLjcwNjk0LDAuNDQ3NTE2IC0wLjQ3OTkyOCwtMC4xNDcxMzcgMC4wMDc3LC0wLjM5OTUgLTAuMzM0MzU0LC0wLjc2Njg3NiAtMC4zNDIwNTQsLTAuMzY3Mzc5IC0wLjYyODUxOCwwLjEwMDU3MSAtMC43NDEwNDUsLTAuMzg4NjA3IC0wLjExMjUyOCwtMC40ODkxOCAwLjM0OTk5MSwtMC4xOTI5MjQgMC40OTcxMjUsLTAuNjcyODI2NyAwLjE0NzE2MiwtMC40Nzk5MDcgLTAuNDAxOTgxLC0wLjQ5MzU3IC0wLjAzNDYxLC0wLjgzNTYxIDAuMzY3Mzc0LC0wLjM0MjA0MyAwLjM0MjI5MSwwLjIwNjA2NSAwLjgzMTQ1MywwLjA5MzU0IDAuNDI4MDQzLC0wLjA5ODQ2IDAuMjgwNjQzLC0wLjQ3OTYwNyAwLjU1ODY0MSwtMC40NzQ5MDYgeiBtIDMuNTY3MjE2NSwwLjUyNDUxNiBjIDAuMDQ1NTEsNS4zNmUtNCAwLjEwMDgwNywwLjAxMjQzIDAuMTcwMDIyLDAuMDM5MjcgMC41NTMyNywwLjIxNDczOSAtMC4xNzUyMzQsMC41NDU4OTQgMC4yNTM3MzUsMC45NTYwMTM3IDAuNDI4OTY5LDAuNDEwMTE4IDAuNzI3NDcyLC0wLjMzMjc0MTcgMC45NjY4NjcsMC4yMTAzMjMgMC4yMzkzNjksMC41NDMwNjUgLTAuNTEwNDM0LDAuMjYyNDMyIC0wLjQ5NzEyNiwwLjg1NTc2MyAwLjAxMzIzLDAuNTkzMzMxIDAuNzQ5NTkxLDAuMjc4NzIgMC41MzQ4MjksMC44MzE5OSAtMC4yMTQ3MDksMC41NTMyNjggLTAuNTQ1ODg4LC0wLjE3NTI0NyAtMC45NTU5OTIsMC4yNTM3MyAtMC40MTAxMzEsMC40Mjg5NzcgMC4zMzIyMSwwLjcyNjk3MiAtMC4yMTA4NDcsMC45NjYzNDggLTAuNTQzMDU3LDAuMjM5MzggLTAuMjYxMzgyLC0wLjUwOTkzOSAtMC44NTQ3MzYsLTAuNDk2NjA5IC0wLjU5MzMyOCwwLjAxMzMzIC0wLjI3OTIxNSwwLjc0OTA3MiAtMC44MzI1MSwwLjUzNDMzNCBDIDkuMzQ1NDg0OCwxMi43NjQ1NDMgMTAuMDczOTg3LDEyLjQzMzM4OCA5LjY0NDk5MywxMi4wMjMyNjggOS4yMTYwMjM4LDExLjYxMzE0OCA4LjkxODAyMzgsMTIuMzU2MDA4IDguNjc4NjU0NiwxMS44MTI5NDUgOC40MzkyODY3LDExLjI2OTg4IDkuMTg4NTU5OCwxMS41NTEwMzIgOS4xNzUyNzc4LDEwLjk1NzcwMSA5LjE2MTc4NzgsMTAuMzY0MzcgOC40MjU2ODY3LDEwLjY3ODQ2MiA4LjY0MDQyMjUsMTAuMTI1MTkyIDguODU1MTU4OCw5LjU3MTkyMjMgOS4xODY4MTM4LDEwLjMwMDk1NSA5LjU5Njk0NSw5Ljg3MTk3OCAxMC4wMDcwNDgsOS40NDMwMDEzIDkuMjY0MTc3OCw5LjE0NDQ5MDMgOS44MDcyNjIsOC45MDUxMTQzIGMgMC41NDMwNTUsLTAuMjM5Mzc3IDAuMjYxOTEsMC41MDk5MzkgMC44NTUyMzcsMC40OTY2MDkgMC41MTkxOTIsLTAuMDExNjcgMC4zNDM0MjksLTAuNTc2NDA4IDAuNjYxOTg3LC0wLjU3MzYwOCB6IG0gLTMuODgxNDA5NSwwLjI1NTI4IGMgLTAuNDE3OTg4LC0xLjU4ZS00IC0wLjc1Njk0NiwwLjMzODU2NCAtMC43NTcwNzgsMC43NTY1NDQ3IC0xLjU5ZS00LDAuNDE4MTgyIDAuMzM4OTA1LDAuNzU3MjE5IDAuNzU3MDc4LDAuNzU3MDYgMC40MTc5NjMxLC0xLjQ4ZS00IDAuNzU2NjgyLC0wLjMzOTA5NSAwLjc1NjUyMzksLTAuNzU3MDYgQyA4LjE5OTQ2NzUsOS40MjIxODAzIDcuODYwODI3Niw5LjA4MzU0NzMgNy40NDMwNzY1LDkuMDgzMzk5MyBaIE0gMTAuNjk2NjMsOS44MDg0MjEgYyAtMC42MTU2ODQsNC4yZS01IC0xLjExNDg0NiwwLjQ5ODk4MyAtMS4xMTUxOSwxLjExNDY2MSAtMi4zOGUtNCwwLjYxNjA4MiAwLjQ5OTEwOSwxLjExNTY1IDEuMTE1MTksMS4xMTU2OTIgMC42MTYyNjgsMi4yMmUtNCAxLjExNTkwNywtMC40OTk0MjUgMS4xMTU2NjksLTEuMTE1NjkyIDAsLTAuNjE1ODY2IC0wLjQ5OTc5OCwtMS4xMTQ4ODMgLTEuMTE1NjY5LC0xLjExNDY2MSB6IiBzdHlsZT0ib3BhY2l0eToxO2ZpbGw6I2ZmZmZmZjtmaWxsLW9wYWNpdHk6MTtzdHJva2U6I2VlZWVlZTtzdHJva2Utd2lkdGg6MDtzdHJva2UtbWl0ZXJsaW1pdDoxMDtzdHJva2UtZGFzaGFycmF5Om5vbmU7c3Ryb2tlLWRhc2hvZmZzZXQ6MTEuMjM2NDIzNDk7c3Ryb2tlLW9wYWNpdHk6MSIgaW5rc2NhcGU6Y29ubmVjdG9yLWN1cnZhdHVyZT0iMCIgc29kaXBvZGk6bm9kZXR5cGVzPSJjY2NjY2NjY2NjY2Njc2NjY2Njc2NjY2NjY2NjY2NjY2Njc2NzY2NjY2NjY2NjY2NjY2NjY2NjY2Njc2NjY2NjY2NjY2NjY2NjIi8+JiN4YTsgIDwvZz4mI3hhOzwvc3ZnPg==;" vertex="1" parent="fbrefnu1O2uLkhK6T9n--86">
          <mxGeometry x="367.5" y="120" width="50" height="50" as="geometry" />
        </mxCell>
        <mxCell id="fbrefnu1O2uLkhK6T9n--97" value="" style="shape=image;verticalLabelPosition=bottom;verticalAlign=top;imageAspect=0;aspect=fixed;image=data:image/svg+xml,PHN2ZyB4bWxuczpkYz0iaHR0cDovL3B1cmwub3JnL2RjL2VsZW1lbnRzLzEuMS8iIHhtbG5zOmNjPSJodHRwOi8vY3JlYXRpdmVjb21tb25zLm9yZy9ucyMiIHhtbG5zOnJkZj0iaHR0cDovL3d3dy53My5vcmcvMTk5OS8wMi8yMi1yZGYtc3ludGF4LW5zIyIgeG1sbnM6c3ZnPSJodHRwOi8vd3d3LnczLm9yZy8yMDAwL3N2ZyIgeG1sbnM9Imh0dHA6Ly93d3cudzMub3JnLzIwMDAvc3ZnIiB4bWxuczpzb2RpcG9kaT0iaHR0cDovL3NvZGlwb2RpLnNvdXJjZWZvcmdlLm5ldC9EVEQvc29kaXBvZGktMC5kdGQiIHhtbG5zOmlua3NjYXBlPSJodHRwOi8vd3d3Lmlua3NjYXBlLm9yZy9uYW1lc3BhY2VzL2lua3NjYXBlIiB3aWR0aD0iMTguMDM1MzM0bW0iIGhlaWdodD0iMTcuNTAwMzc4bW0iIHZpZXdCb3g9IjAgMCAxOC4wMzUzMzQgMTcuNTAwMzc4IiB2ZXJzaW9uPSIxLjEiIGlkPSJzdmcxMTUzMSIgaW5rc2NhcGU6dmVyc2lvbj0iMC45MSByMTM3MjUiIHNvZGlwb2RpOmRvY25hbWU9ImFwaS5zdmciPiYjeGE7ICA8ZGVmcyBpZD0iZGVmczExNTI1Ii8+JiN4YTsgIDxzb2RpcG9kaTpuYW1lZHZpZXcgaWQ9ImJhc2UiIHBhZ2Vjb2xvcj0iI2ZmZmZmZiIgYm9yZGVyY29sb3I9IiM2NjY2NjYiIGJvcmRlcm9wYWNpdHk9IjEuMCIgaW5rc2NhcGU6cGFnZW9wYWNpdHk9IjAuMCIgaW5rc2NhcGU6cGFnZXNoYWRvdz0iMiIgaW5rc2NhcGU6em9vbT0iOCIgaW5rc2NhcGU6Y3g9IjE2Ljk2ODYyMSIgaW5rc2NhcGU6Y3k9IjMzLjUwOTA4MSIgaW5rc2NhcGU6ZG9jdW1lbnQtdW5pdHM9Im1tIiBpbmtzY2FwZTpjdXJyZW50LWxheWVyPSJsYXllcjEiIHNob3dncmlkPSJmYWxzZSIgaW5rc2NhcGU6d2luZG93LXdpZHRoPSIxNDQwIiBpbmtzY2FwZTp3aW5kb3ctaGVpZ2h0PSI3NzEiIGlua3NjYXBlOndpbmRvdy14PSI1NSIgaW5rc2NhcGU6d2luZG93LXk9IjAiIGlua3NjYXBlOndpbmRvdy1tYXhpbWl6ZWQ9IjAiIGZpdC1tYXJnaW4tdG9wPSIwIiBmaXQtbWFyZ2luLWxlZnQ9IjAiIGZpdC1tYXJnaW4tcmlnaHQ9IjAiIGZpdC1tYXJnaW4tYm90dG9tPSIwIi8+JiN4YTsgIDxtZXRhZGF0YSBpZD0ibWV0YWRhdGExMTUyOCI+JiN4YTsgICAgPHJkZjpSREY+JiN4YTsgICAgICA8Y2M6V29yayByZGY6YWJvdXQ9IiI+JiN4YTsgICAgICAgIDxkYzpmb3JtYXQ+aW1hZ2Uvc3ZnK3htbDwvZGM6Zm9ybWF0PiYjeGE7ICAgICAgICA8ZGM6dHlwZSByZGY6cmVzb3VyY2U9Imh0dHA6Ly9wdXJsLm9yZy9kYy9kY21pdHlwZS9TdGlsbEltYWdlIi8+JiN4YTsgICAgICAgIDxkYzp0aXRsZS8+JiN4YTsgICAgICA8L2NjOldvcms+JiN4YTsgICAgPC9yZGY6UkRGPiYjeGE7ICA8L21ldGFkYXRhPiYjeGE7ICA8ZyBpbmtzY2FwZTpsYWJlbD0iQ2FscXVlIDEiIGlua3NjYXBlOmdyb3VwbW9kZT0ibGF5ZXIiIGlkPSJsYXllcjEiIHRyYW5zZm9ybT0idHJhbnNsYXRlKC0wLjk5MjYyNjM4LC0xLjE3NDE4MSkiPiYjeGE7ICAgIDxnIGlkPSJnNzAiIHRyYW5zZm9ybT0ibWF0cml4KDEuMDE0ODg4NywwLDAsMS4wMTQ4ODg3LDE2LjkwMjE0NiwtMi42OTg3MjYpIj4mI3hhOyAgICAgIDxwYXRoIGlua3NjYXBlOmV4cG9ydC15ZHBpPSIyNTAuNTUiIGlua3NjYXBlOmV4cG9ydC14ZHBpPSIyNTAuNTUiIGlua3NjYXBlOmV4cG9ydC1maWxlbmFtZT0ibmV3LnBuZyIgaW5rc2NhcGU6Y29ubmVjdG9yLWN1cnZhdHVyZT0iMCIgaWQ9InBhdGgzMDU1IiBkPSJtIC02Ljg0OTIwMTUsNC4yNzI0NjY4IGEgMS4xMTkxMjU1LDEuMTA5OTY3MSAwIDAgMCAtMC40Mjg4ODE4LDAuMTA4NTMwMyBsIC01Ljg1MjQwMzcsMi43OTYzMzk0IGEgMS4xMTkxMjU1LDEuMTA5OTY3MSAwIDAgMCAtMC42MDU1MjQsMC43NTI5NzU5IGwgLTEuNDQzODI4LDYuMjgxMjg0NiBhIDEuMTE5MTI1NSwxLjEwOTk2NzEgMCAwIDAgMC4xNTE5NDMsMC44NTEwMjggMS4xMTkxMjU1LDEuMTA5OTY3MSAwIDAgMCAwLjA2MzYyLDAuMDg4MzIgbCA0LjA1MDgsNS4wMzY1NTUgYSAxLjExOTEyNTUsMS4xMDk5NjcxIDAgMCAwIDAuODc0OTc5LDAuNDE3NjU0IGwgNi40OTYxMDExLC0wLjAwMTUgYSAxLjExOTEyNTUsMS4xMDk5NjcxIDAgMCAwIDAuODc0OTc4OCwtMC40MTY5MDYgTCAxLjM4MTg4NzIsMTUuMTQ5NDUzIEEgMS4xMTkxMjU1LDEuMTA5OTY3MSAwIDAgMCAxLjU5ODE5ODYsMTQuMjEwMTA0IEwgMC4xNTIxMjY1Nyw3LjkyODgxNTQgQSAxLjExOTEyNTUsMS4xMDk5NjcxIDAgMCAwIC0wLjQ1MzM5Nzk0LDcuMTc1ODM5NiBMIC02LjMwNjU0OTYsNC4zODA5OTcxIEEgMS4xMTkxMjU1LDEuMTA5OTY3MSAwIDAgMCAtNi44NDkyMDE1LDQuMjcyNDY2OCBaIiBzdHlsZT0iZmlsbDojMzI2Y2U1O2ZpbGwtb3BhY2l0eToxO3N0cm9rZTpub25lO3N0cm9rZS13aWR0aDowO3N0cm9rZS1taXRlcmxpbWl0OjQ7c3Ryb2tlLWRhc2hhcnJheTpub25lO3N0cm9rZS1vcGFjaXR5OjEiLz4mI3hhOyAgICAgIDxwYXRoIGlkPSJwYXRoMzA1NC0yLTkiIGQ9Ik0gLTYuODUyMzQzNSwzLjgxNzYzNzIgQSAxLjE4MTQzMDQsMS4xNzE3NjIgMCAwIDAgLTcuMzA0NDI4NCwzLjkzMjkwNCBsIC02LjE3ODc0MjYsMi45NTEyNzU4IGEgMS4xODE0MzA0LDEuMTcxNzYyIDAgMCAwIC0wLjYzOTIwNiwwLjc5NDg5MSBsIC0xLjUyMzkxNSw2LjYzMDgyODIgYSAxLjE4MTQzMDQsMS4xNzE3NjIgMCAwIDAgMC4xNjAxNzUsMC44OTg5MyAxLjE4MTQzMDQsMS4xNzE3NjIgMCAwIDAgMC4wNjczNiwwLjA5MjgxIGwgNC4yNzYwOTQsNS4zMTcyMzYgYSAxLjE4MTQzMDQsMS4xNzE3NjIgMCAwIDAgMC45MjM2MywwLjQ0MDg1OCBsIDYuODU3NjE4OCwtMC4wMDE1IGEgMS4xODE0MzA0LDEuMTcxNzYyIDAgMCAwIDAuOTIzNjMwOCwtMC40NDAxMSBsIDQuMjc0NTk2NiwtNS4zMTc5ODUgYSAxLjE4MTQzMDQsMS4xNzE3NjIgMCAwIDAgMC4yMjgyODgsLTAuOTkwOTkzIEwgMC41Mzg5NDQzOSw3LjY3NzU3MzggQSAxLjE4MTQzMDQsMS4xNzE3NjIgMCAwIDAgLTAuMTAwMjYxMDEsNi44ODM0MzEzIEwgLTYuMjc5MDAzNywzLjkzMjE1NTUgQSAxLjE4MTQzMDQsMS4xNzE3NjIgMCAwIDAgLTYuODUyMzQzNSwzLjgxNzYzNzIgWiBtIDAuMDAyOTksMC40NTUwNzg5IGEgMS4xMTkxMjU1LDEuMTA5OTY3MSAwIDAgMSAwLjU0MjY1MTcsMC4xMDg1MzAzIGwgNS44NTMxNTE2OSwyLjc5NDg0MjUgQSAxLjExOTEyNTUsMS4xMDk5NjcxIDAgMCAxIDAuMTUxOTc4MTEsNy45MjkwNjQ4IEwgMS41OTgwNTEsMTQuMjEwMzUgYSAxLjExOTEyNTUsMS4xMDk5NjcxIDAgMCAxIC0wLjIxNjMxMjMsMC45MzkzNDggbCAtNC4wNDkzMDMyLDUuMDM3MzA0IGEgMS4xMTkxMjU1LDEuMTA5OTY3MSAwIDAgMSAtMC44NzQ5Nzg5LDAuNDE2OTA2IGwgLTYuNDk2MTAwNiwwLjAwMTUgYSAxLjExOTEyNTUsMS4xMDk5NjcxIDAgMCAxIC0wLjg3NDk3OSwtMC40MTc2NTIgbCAtNC4wNTA4LC01LjAzNjU1NCBhIDEuMTE5MTI1NSwxLjEwOTk2NzEgMCAwIDEgLTAuMDYzNjIsLTAuMDg4MzIgMS4xMTkxMjU1LDEuMTA5OTY3MSAwIDAgMSAtMC4xNTE5NDIsLTAuODUxMDI4IGwgMS40NDM4MjcsLTYuMjgxMjg1MyBhIDEuMTE5MTI1NSwxLjEwOTk2NzEgMCAwIDEgMC42MDU1MjQsLTAuNzUyOTc1OCBsIDUuODUyNDAzNiwtMi43OTYzMzk1IGEgMS4xMTkxMjU1LDEuMTA5OTY3MSAwIDAgMSAwLjQyODg4MTksLTAuMTA4NTMwMyB6IiBzdHlsZT0iY29sb3I6IzAwMDAwMDtmb250LXN0eWxlOm5vcm1hbDtmb250LXZhcmlhbnQ6bm9ybWFsO2ZvbnQtd2VpZ2h0Om5vcm1hbDtmb250LXN0cmV0Y2g6bm9ybWFsO2ZvbnQtc2l6ZTptZWRpdW07bGluZS1oZWlnaHQ6bm9ybWFsO2ZvbnQtZmFtaWx5OlNhbnM7LWlua3NjYXBlLWZvbnQtc3BlY2lmaWNhdGlvbjpTYW5zO3RleHQtaW5kZW50OjA7dGV4dC1hbGlnbjpzdGFydDt0ZXh0LWRlY29yYXRpb246bm9uZTt0ZXh0LWRlY29yYXRpb24tbGluZTpub25lO2xldHRlci1zcGFjaW5nOm5vcm1hbDt3b3JkLXNwYWNpbmc6bm9ybWFsO3RleHQtdHJhbnNmb3JtOm5vbmU7d3JpdGluZy1tb2RlOmxyLXRiO2RpcmVjdGlvbjpsdHI7YmFzZWxpbmUtc2hpZnQ6YmFzZWxpbmU7dGV4dC1hbmNob3I6c3RhcnQ7ZGlzcGxheTppbmxpbmU7b3ZlcmZsb3c6dmlzaWJsZTt2aXNpYmlsaXR5OnZpc2libGU7ZmlsbDojZmZmZmZmO2ZpbGwtb3BhY2l0eToxO2ZpbGwtcnVsZTpub256ZXJvO3N0cm9rZTpub25lO3N0cm9rZS13aWR0aDowO3N0cm9rZS1taXRlcmxpbWl0OjQ7c3Ryb2tlLWRhc2hhcnJheTpub25lO21hcmtlcjpub25lO2VuYWJsZS1iYWNrZ3JvdW5kOmFjY3VtdWxhdGUiIGlua3NjYXBlOmNvbm5lY3Rvci1jdXJ2YXR1cmU9IjAiLz4mI3hhOyAgICA8L2c+JiN4YTsgICAgPHRleHQgaWQ9InRleHQyMDY2IiB5PSIxNi44MTE3NzUiIHg9IjEwLjA1NTc2OSIgc3R5bGU9ImZvbnQtc3R5bGU6bm9ybWFsO2ZvbnQtd2VpZ2h0Om5vcm1hbDtmb250LXNpemU6MTAuNTgzMzMzMDJweDtsaW5lLWhlaWdodDo2LjYxNDU4MzQ5cHg7Zm9udC1mYW1pbHk6U2FucztsZXR0ZXItc3BhY2luZzowcHg7d29yZC1zcGFjaW5nOjBweDtmaWxsOiNmZmZmZmY7ZmlsbC1vcGFjaXR5OjE7c3Ryb2tlOm5vbmU7c3Ryb2tlLXdpZHRoOjAuMjY0NTgzMzJweDtzdHJva2UtbGluZWNhcDpidXR0O3N0cm9rZS1saW5lam9pbjptaXRlcjtzdHJva2Utb3BhY2l0eToxIiB4bWw6c3BhY2U9InByZXNlcnZlIj48dHNwYW4gc3R5bGU9ImZvbnQtc3R5bGU6bm9ybWFsO2ZvbnQtdmFyaWFudDpub3JtYWw7Zm9udC13ZWlnaHQ6bm9ybWFsO2ZvbnQtc3RyZXRjaDpub3JtYWw7Zm9udC1zaXplOjIuODIyMjIyMjNweDtmb250LWZhbWlseTpBcmlhbDstaW5rc2NhcGUtZm9udC1zcGVjaWZpY2F0aW9uOidBcmlhbCwgTm9ybWFsJzt0ZXh0LWFsaWduOmNlbnRlcjt3cml0aW5nLW1vZGU6bHItdGI7dGV4dC1hbmNob3I6bWlkZGxlO2ZpbGw6I2ZmZmZmZjtmaWxsLW9wYWNpdHk6MTtzdHJva2Utd2lkdGg6MC4yNjQ1ODMzMnB4IiB5PSIxNi44MTE3NzUiIHg9IjEwLjA1NTc2OSIgaWQ9InRzcGFuMjA2NCIgc29kaXBvZGk6cm9sZT0ibGluZSI+YXBpPC90c3Bhbj48L3RleHQ+JiN4YTsgICAgPHBhdGggaWQ9InBhdGgxOTg0IiBkPSJtIDkuOTkyMjU3NCw0LjQ0Njk5MjUgYyAtMC4xMzgzMjM0LC0wLjAwNDQgLTMuOTk1MzEzOSwxLjg5MTc3OTEgLTQuMDQ1NzQyOSwxLjk4OTAyNDEgLTAuMTIxMTUzLDAuMjMzNjgyIC0wLjk5ODgwMiw0LjI4MTQ3ODQgLTAuOTQ3MjM1LDQuMzY4NzI0NCAwLjAzLDAuMDUwNjUgMC42NjIxOTksMC44NTIzMDUgMS40MDQ1NjcsMS43ODA3NzEgbCAxLjM0OTc5OCwxLjY4Nzc1NCAyLjIyMTU3NDMsMC4wMDExIDIuMjIxNTcyMiwwLjAwMTEgMS40MTI4MTksLTEuNzY1Nzg0IDEuNDEzODgsLTEuNzY1MjY1IC0wLjQ5NDU2LC0yLjE2ODg2MDcgQyAxNC4yNTY3Myw3LjM4MjgxNTUgMTQuMDEzMjksNi4zODcyNzU2IDEzLjk4ODQyLDYuMzYzMjg1NiAxMy45MTg5Miw2LjI5NjQwNTYgMTAuMDY3MjQsNC40NDk1NDY1IDkuOTkyMjU3NCw0LjQ0NzEyNTUgWiBtIDAuMjM2MTY2NiwxLjk4MjgyNDEgYyAwLjE4NjYzNywwLjAwOCAwLjIwNTc5MiwwLjI5MTU3MSAwLjYwNTEyOCwwLjMyMTQyNyAwLjUyMTYsMC4wMzkgMC40NjU1MDgsLTAuNDQ2NjUxIDAuODY0NTUzLC0wLjEwODUyMiAwLjM5OTA0NCwwLjMzODEyNSAtMC4wODg5LDAuMzYyNjQxIDAuMDM1MTQsMC44NzA3NDkgMC4xMjQwOSwwLjUwODEwNDEgMC41Njg4MDEsMC4zMDUwOTkxIDAuMzcwNTIzLDAuNzg5MDk4NyAtMC4xOTgyNzksMC40ODQwMDIgLTAuMzcyNjEzLDAuMDI3MjggLTAuODE3NTEsMC4zMDIzMDggLTAuNDQ0ODk3LDAuMjc1MDIzIC0wLjExNDU2NCwwLjYzNTM0NiAtMC42MzYxMzgsMC41OTYzNDcgLTAuNTIxNjUyLC0wLjAzOSAtMC4xNDA0NjcsLTAuMzQ2MDY1IC0wLjUzOTUxLC0wLjY4NDE5NyBDIDkuNzExNTY2LDguMTc4ODk1NSA5LjQ3MDM3MTgsOC42MDQ0ODczIDkuMzQ2MzA4OCw4LjA5NjM3OTcgOS4yMjIyMTg4LDcuNTg4MjcxNiA5LjYzMjI0NCw3Ljg1NTM2MjUgOS44MzA1MjMsNy4zNzEzNjA3IDEwLjAyOTIyNCw2Ljg4NzMxMzYgOS41NDk0Mjg4LDYuNzkwMTA3NiA5Ljk5NDM1MjQsNi41MTUwODE2IGMgMC4wNTU2NCwtMC4wMzQzNCAwLjEwMTg5MDYsLTAuMDU2ODggMC4xNDIxMDU2LC0wLjA3MDI4IDAuMDM1MDgsLTAuMDExNjcgMC4wNjUzMywtMC4wMTYxNCAwLjA5MTk3LC0wLjAxNDk3IHogbSAwLjUyMTQ5MywwLjU3MjA1OSBjIC0wLjA3NTc4LC01LjMwNmUtNCAtMC4xNTEyMDksMC4wMTAyMSAtMC4yMjM3NTgsMC4wMzIwNCAtMC40MDAzOTMsMC4xMjA3MzIgLTAuNjI2OTU0LDAuNTQzMzIxOSAtMC41MDU5MDksMC45NDM2MTMgMC4xMjA5NCwwLjM5OTkxOTcgMC41NDMxMSwwLjYyNjE0ODcgMC45NDMxMDcsMC41MDUzOTM3IDAuMzk5ODM4LC0wLjEyMDc0NiAwLjYyNjI2OCwtMC41NDI2MTA3IDAuNTA1OTA5LC0wLjk0MjU3ODggQyAxMS4zNzM1MTYsNy4yMjI1MjM2IDExLjA4MTgzNyw3LjAwNDE4OTYgMTAuNzQ5OTE3LDcuMDAxODc3NiBaIE0gNy43NTcyNjk1LDguMzAzNjAzMyBjIDAuMDM5NjksNy45ZS00IDAuMDg4MzIsMC4wMDkgMC4xNDgyOTkxLDAuMDI3MzkgMC40Nzk5Mjc5LDAuMTQ3MTM4IC0wLjAwNzcsMC4zOTk1MDMgMC4zMzQzNTQsMC43NjY4NzkgMC4zNDIwNTMxLDAuMzY3Mzc3IDAuNjI4NTE4MiwtMC4xMDEwODYgMC43NDEwNDUyLDAuMzg4MDkxIDAuMTEyNTI3LDAuNDg5MTc3NyAtMC4zNDk5OTEzLDAuMTkyOTIxIC0wLjQ5NzEyNjEsMC42NzI4Mjc3IC0wLjE0NzE2MTIsMC40Nzk5MDQgMC40MDE0NzkxLDAuNDk0MDgzIDAuMDM0MTEsMC44MzYxMjMgLTAuMzY3Mzc0LDAuMzQyMDQxIC0wLjM0MTgxNTEsLTAuMjA2MDYgLTAuODMwOTUwMSwtMC4wOTM1MyAtMC40ODkxODgsMC4xMTI1MjcgLTAuMjI3MDM5LDAuNTk0NjU0IC0wLjcwNjk0LDAuNDQ3NTE2IC0wLjQ3OTkyOCwtMC4xNDcxMzcgMC4wMDc3LC0wLjM5OTUgLTAuMzM0MzU0LC0wLjc2Njg3NiAtMC4zNDIwNTQsLTAuMzY3Mzc5IC0wLjYyODUxOCwwLjEwMDU3MSAtMC43NDEwNDUsLTAuMzg4NjA3IC0wLjExMjUyOCwtMC40ODkxOCAwLjM0OTk5MSwtMC4xOTI5MjQgMC40OTcxMjUsLTAuNjcyODI2NyAwLjE0NzE2MiwtMC40Nzk5MDcgLTAuNDAxOTgxLC0wLjQ5MzU3IC0wLjAzNDYxLC0wLjgzNTYxIDAuMzY3Mzc0LC0wLjM0MjA0MyAwLjM0MjI5MSwwLjIwNjA2NSAwLjgzMTQ1MywwLjA5MzU0IDAuNDI4MDQzLC0wLjA5ODQ2IDAuMjgwNjQzLC0wLjQ3OTYwNyAwLjU1ODY0MSwtMC40NzQ5MDYgeiBtIDMuNTY3MjE2NSwwLjUyNDUxNiBjIDAuMDQ1NTEsNS4zNmUtNCAwLjEwMDgwNywwLjAxMjQzIDAuMTcwMDIyLDAuMDM5MjcgMC41NTMyNywwLjIxNDczOSAtMC4xNzUyMzQsMC41NDU4OTQgMC4yNTM3MzUsMC45NTYwMTM3IDAuNDI4OTY5LDAuNDEwMTE4IDAuNzI3NDcyLC0wLjMzMjc0MTcgMC45NjY4NjcsMC4yMTAzMjMgMC4yMzkzNjksMC41NDMwNjUgLTAuNTEwNDM0LDAuMjYyNDMyIC0wLjQ5NzEyNiwwLjg1NTc2MyAwLjAxMzIzLDAuNTkzMzMxIDAuNzQ5NTkxLDAuMjc4NzIgMC41MzQ4MjksMC44MzE5OSAtMC4yMTQ3MDksMC41NTMyNjggLTAuNTQ1ODg4LC0wLjE3NTI0NyAtMC45NTU5OTIsMC4yNTM3MyAtMC40MTAxMzEsMC40Mjg5NzcgMC4zMzIyMSwwLjcyNjk3MiAtMC4yMTA4NDcsMC45NjYzNDggLTAuNTQzMDU3LDAuMjM5MzggLTAuMjYxMzgyLC0wLjUwOTkzOSAtMC44NTQ3MzYsLTAuNDk2NjA5IC0wLjU5MzMyOCwwLjAxMzMzIC0wLjI3OTIxNSwwLjc0OTA3MiAtMC44MzI1MSwwLjUzNDMzNCBDIDkuMzQ1NDg0OCwxMi43NjQ1NDMgMTAuMDczOTg3LDEyLjQzMzM4OCA5LjY0NDk5MywxMi4wMjMyNjggOS4yMTYwMjM4LDExLjYxMzE0OCA4LjkxODAyMzgsMTIuMzU2MDA4IDguNjc4NjU0NiwxMS44MTI5NDUgOC40MzkyODY3LDExLjI2OTg4IDkuMTg4NTU5OCwxMS41NTEwMzIgOS4xNzUyNzc4LDEwLjk1NzcwMSA5LjE2MTc4NzgsMTAuMzY0MzcgOC40MjU2ODY3LDEwLjY3ODQ2MiA4LjY0MDQyMjUsMTAuMTI1MTkyIDguODU1MTU4OCw5LjU3MTkyMjMgOS4xODY4MTM4LDEwLjMwMDk1NSA5LjU5Njk0NSw5Ljg3MTk3OCAxMC4wMDcwNDgsOS40NDMwMDEzIDkuMjY0MTc3OCw5LjE0NDQ5MDMgOS44MDcyNjIsOC45MDUxMTQzIGMgMC41NDMwNTUsLTAuMjM5Mzc3IDAuMjYxOTEsMC41MDk5MzkgMC44NTUyMzcsMC40OTY2MDkgMC41MTkxOTIsLTAuMDExNjcgMC4zNDM0MjksLTAuNTc2NDA4IDAuNjYxOTg3LC0wLjU3MzYwOCB6IG0gLTMuODgxNDA5NSwwLjI1NTI4IGMgLTAuNDE3OTg4LC0xLjU4ZS00IC0wLjc1Njk0NiwwLjMzODU2NCAtMC43NTcwNzgsMC43NTY1NDQ3IC0xLjU5ZS00LDAuNDE4MTgyIDAuMzM4OTA1LDAuNzU3MjE5IDAuNzU3MDc4LDAuNzU3MDYgMC40MTc5NjMxLC0xLjQ4ZS00IDAuNzU2NjgyLC0wLjMzOTA5NSAwLjc1NjUyMzksLTAuNzU3MDYgQyA4LjE5OTQ2NzUsOS40MjIxODAzIDcuODYwODI3Niw5LjA4MzU0NzMgNy40NDMwNzY1LDkuMDgzMzk5MyBaIE0gMTAuNjk2NjMsOS44MDg0MjEgYyAtMC42MTU2ODQsNC4yZS01IC0xLjExNDg0NiwwLjQ5ODk4MyAtMS4xMTUxOSwxLjExNDY2MSAtMi4zOGUtNCwwLjYxNjA4MiAwLjQ5OTEwOSwxLjExNTY1IDEuMTE1MTksMS4xMTU2OTIgMC42MTYyNjgsMi4yMmUtNCAxLjExNTkwNywtMC40OTk0MjUgMS4xMTU2NjksLTEuMTE1NjkyIDAsLTAuNjE1ODY2IC0wLjQ5OTc5OCwtMS4xMTQ4ODMgLTEuMTE1NjY5LC0xLjExNDY2MSB6IiBzdHlsZT0ib3BhY2l0eToxO2ZpbGw6I2ZmZmZmZjtmaWxsLW9wYWNpdHk6MTtzdHJva2U6I2VlZWVlZTtzdHJva2Utd2lkdGg6MDtzdHJva2UtbWl0ZXJsaW1pdDoxMDtzdHJva2UtZGFzaGFycmF5Om5vbmU7c3Ryb2tlLWRhc2hvZmZzZXQ6MTEuMjM2NDIzNDk7c3Ryb2tlLW9wYWNpdHk6MSIgaW5rc2NhcGU6Y29ubmVjdG9yLWN1cnZhdHVyZT0iMCIgc29kaXBvZGk6bm9kZXR5cGVzPSJjY2NjY2NjY2NjY2Njc2NjY2Njc2NjY2NjY2NjY2NjY2Njc2NzY2NjY2NjY2NjY2NjY2NjY2NjY2Njc2NjY2NjY2NjY2NjY2NjIi8+JiN4YTsgIDwvZz4mI3hhOzwvc3ZnPg==;" vertex="1" parent="fbrefnu1O2uLkhK6T9n--86">
          <mxGeometry x="227.5" y="80" width="50" height="50" as="geometry" />
        </mxCell>
        <mxCell id="fbrefnu1O2uLkhK6T9n--90" value="" style="shape=image;verticalLabelPosition=bottom;verticalAlign=top;imageAspect=0;aspect=fixed;image=data:image/svg+xml,PHN2ZyB4bWxuczpkYz0iaHR0cDovL3B1cmwub3JnL2RjL2VsZW1lbnRzLzEuMS8iIHhtbG5zOmNjPSJodHRwOi8vY3JlYXRpdmVjb21tb25zLm9yZy9ucyMiIHhtbG5zOnJkZj0iaHR0cDovL3d3dy53My5vcmcvMTk5OS8wMi8yMi1yZGYtc3ludGF4LW5zIyIgeG1sbnM6c3ZnPSJodHRwOi8vd3d3LnczLm9yZy8yMDAwL3N2ZyIgeG1sbnM9Imh0dHA6Ly93d3cudzMub3JnLzIwMDAvc3ZnIiB4bWxuczpzb2RpcG9kaT0iaHR0cDovL3NvZGlwb2RpLnNvdXJjZWZvcmdlLm5ldC9EVEQvc29kaXBvZGktMC5kdGQiIHhtbG5zOmlua3NjYXBlPSJodHRwOi8vd3d3Lmlua3NjYXBlLm9yZy9uYW1lc3BhY2VzL2lua3NjYXBlIiB3aWR0aD0iMTguMDM1MzM0bW0iIGhlaWdodD0iMTcuNTAwMzc4bW0iIHZpZXdCb3g9IjAgMCAxOC4wMzUzMzQgMTcuNTAwMzc4IiB2ZXJzaW9uPSIxLjEiIGlkPSJzdmcxMTUzMSIgaW5rc2NhcGU6dmVyc2lvbj0iMC45MSByMTM3MjUiIHNvZGlwb2RpOmRvY25hbWU9ImFwaS5zdmciPiYjeGE7ICA8ZGVmcyBpZD0iZGVmczExNTI1Ii8+JiN4YTsgIDxzb2RpcG9kaTpuYW1lZHZpZXcgaWQ9ImJhc2UiIHBhZ2Vjb2xvcj0iI2ZmZmZmZiIgYm9yZGVyY29sb3I9IiM2NjY2NjYiIGJvcmRlcm9wYWNpdHk9IjEuMCIgaW5rc2NhcGU6cGFnZW9wYWNpdHk9IjAuMCIgaW5rc2NhcGU6cGFnZXNoYWRvdz0iMiIgaW5rc2NhcGU6em9vbT0iOCIgaW5rc2NhcGU6Y3g9IjE2Ljk2ODYyMSIgaW5rc2NhcGU6Y3k9IjMzLjUwOTA4MSIgaW5rc2NhcGU6ZG9jdW1lbnQtdW5pdHM9Im1tIiBpbmtzY2FwZTpjdXJyZW50LWxheWVyPSJsYXllcjEiIHNob3dncmlkPSJmYWxzZSIgaW5rc2NhcGU6d2luZG93LXdpZHRoPSIxNDQwIiBpbmtzY2FwZTp3aW5kb3ctaGVpZ2h0PSI3NzEiIGlua3NjYXBlOndpbmRvdy14PSI1NSIgaW5rc2NhcGU6d2luZG93LXk9IjAiIGlua3NjYXBlOndpbmRvdy1tYXhpbWl6ZWQ9IjAiIGZpdC1tYXJnaW4tdG9wPSIwIiBmaXQtbWFyZ2luLWxlZnQ9IjAiIGZpdC1tYXJnaW4tcmlnaHQ9IjAiIGZpdC1tYXJnaW4tYm90dG9tPSIwIi8+JiN4YTsgIDxtZXRhZGF0YSBpZD0ibWV0YWRhdGExMTUyOCI+JiN4YTsgICAgPHJkZjpSREY+JiN4YTsgICAgICA8Y2M6V29yayByZGY6YWJvdXQ9IiI+JiN4YTsgICAgICAgIDxkYzpmb3JtYXQ+aW1hZ2Uvc3ZnK3htbDwvZGM6Zm9ybWF0PiYjeGE7ICAgICAgICA8ZGM6dHlwZSByZGY6cmVzb3VyY2U9Imh0dHA6Ly9wdXJsLm9yZy9kYy9kY21pdHlwZS9TdGlsbEltYWdlIi8+JiN4YTsgICAgICAgIDxkYzp0aXRsZS8+JiN4YTsgICAgICA8L2NjOldvcms+JiN4YTsgICAgPC9yZGY6UkRGPiYjeGE7ICA8L21ldGFkYXRhPiYjeGE7ICA8ZyBpbmtzY2FwZTpsYWJlbD0iQ2FscXVlIDEiIGlua3NjYXBlOmdyb3VwbW9kZT0ibGF5ZXIiIGlkPSJsYXllcjEiIHRyYW5zZm9ybT0idHJhbnNsYXRlKC0wLjk5MjYyNjM4LC0xLjE3NDE4MSkiPiYjeGE7ICAgIDxnIGlkPSJnNzAiIHRyYW5zZm9ybT0ibWF0cml4KDEuMDE0ODg4NywwLDAsMS4wMTQ4ODg3LDE2LjkwMjE0NiwtMi42OTg3MjYpIj4mI3hhOyAgICAgIDxwYXRoIGlua3NjYXBlOmV4cG9ydC15ZHBpPSIyNTAuNTUiIGlua3NjYXBlOmV4cG9ydC14ZHBpPSIyNTAuNTUiIGlua3NjYXBlOmV4cG9ydC1maWxlbmFtZT0ibmV3LnBuZyIgaW5rc2NhcGU6Y29ubmVjdG9yLWN1cnZhdHVyZT0iMCIgaWQ9InBhdGgzMDU1IiBkPSJtIC02Ljg0OTIwMTUsNC4yNzI0NjY4IGEgMS4xMTkxMjU1LDEuMTA5OTY3MSAwIDAgMCAtMC40Mjg4ODE4LDAuMTA4NTMwMyBsIC01Ljg1MjQwMzcsMi43OTYzMzk0IGEgMS4xMTkxMjU1LDEuMTA5OTY3MSAwIDAgMCAtMC42MDU1MjQsMC43NTI5NzU5IGwgLTEuNDQzODI4LDYuMjgxMjg0NiBhIDEuMTE5MTI1NSwxLjEwOTk2NzEgMCAwIDAgMC4xNTE5NDMsMC44NTEwMjggMS4xMTkxMjU1LDEuMTA5OTY3MSAwIDAgMCAwLjA2MzYyLDAuMDg4MzIgbCA0LjA1MDgsNS4wMzY1NTUgYSAxLjExOTEyNTUsMS4xMDk5NjcxIDAgMCAwIDAuODc0OTc5LDAuNDE3NjU0IGwgNi40OTYxMDExLC0wLjAwMTUgYSAxLjExOTEyNTUsMS4xMDk5NjcxIDAgMCAwIDAuODc0OTc4OCwtMC40MTY5MDYgTCAxLjM4MTg4NzIsMTUuMTQ5NDUzIEEgMS4xMTkxMjU1LDEuMTA5OTY3MSAwIDAgMCAxLjU5ODE5ODYsMTQuMjEwMTA0IEwgMC4xNTIxMjY1Nyw3LjkyODgxNTQgQSAxLjExOTEyNTUsMS4xMDk5NjcxIDAgMCAwIC0wLjQ1MzM5Nzk0LDcuMTc1ODM5NiBMIC02LjMwNjU0OTYsNC4zODA5OTcxIEEgMS4xMTkxMjU1LDEuMTA5OTY3MSAwIDAgMCAtNi44NDkyMDE1LDQuMjcyNDY2OCBaIiBzdHlsZT0iZmlsbDojMzI2Y2U1O2ZpbGwtb3BhY2l0eToxO3N0cm9rZTpub25lO3N0cm9rZS13aWR0aDowO3N0cm9rZS1taXRlcmxpbWl0OjQ7c3Ryb2tlLWRhc2hhcnJheTpub25lO3N0cm9rZS1vcGFjaXR5OjEiLz4mI3hhOyAgICAgIDxwYXRoIGlkPSJwYXRoMzA1NC0yLTkiIGQ9Ik0gLTYuODUyMzQzNSwzLjgxNzYzNzIgQSAxLjE4MTQzMDQsMS4xNzE3NjIgMCAwIDAgLTcuMzA0NDI4NCwzLjkzMjkwNCBsIC02LjE3ODc0MjYsMi45NTEyNzU4IGEgMS4xODE0MzA0LDEuMTcxNzYyIDAgMCAwIC0wLjYzOTIwNiwwLjc5NDg5MSBsIC0xLjUyMzkxNSw2LjYzMDgyODIgYSAxLjE4MTQzMDQsMS4xNzE3NjIgMCAwIDAgMC4xNjAxNzUsMC44OTg5MyAxLjE4MTQzMDQsMS4xNzE3NjIgMCAwIDAgMC4wNjczNiwwLjA5MjgxIGwgNC4yNzYwOTQsNS4zMTcyMzYgYSAxLjE4MTQzMDQsMS4xNzE3NjIgMCAwIDAgMC45MjM2MywwLjQ0MDg1OCBsIDYuODU3NjE4OCwtMC4wMDE1IGEgMS4xODE0MzA0LDEuMTcxNzYyIDAgMCAwIDAuOTIzNjMwOCwtMC40NDAxMSBsIDQuMjc0NTk2NiwtNS4zMTc5ODUgYSAxLjE4MTQzMDQsMS4xNzE3NjIgMCAwIDAgMC4yMjgyODgsLTAuOTkwOTkzIEwgMC41Mzg5NDQzOSw3LjY3NzU3MzggQSAxLjE4MTQzMDQsMS4xNzE3NjIgMCAwIDAgLTAuMTAwMjYxMDEsNi44ODM0MzEzIEwgLTYuMjc5MDAzNywzLjkzMjE1NTUgQSAxLjE4MTQzMDQsMS4xNzE3NjIgMCAwIDAgLTYuODUyMzQzNSwzLjgxNzYzNzIgWiBtIDAuMDAyOTksMC40NTUwNzg5IGEgMS4xMTkxMjU1LDEuMTA5OTY3MSAwIDAgMSAwLjU0MjY1MTcsMC4xMDg1MzAzIGwgNS44NTMxNTE2OSwyLjc5NDg0MjUgQSAxLjExOTEyNTUsMS4xMDk5NjcxIDAgMCAxIDAuMTUxOTc4MTEsNy45MjkwNjQ4IEwgMS41OTgwNTEsMTQuMjEwMzUgYSAxLjExOTEyNTUsMS4xMDk5NjcxIDAgMCAxIC0wLjIxNjMxMjMsMC45MzkzNDggbCAtNC4wNDkzMDMyLDUuMDM3MzA0IGEgMS4xMTkxMjU1LDEuMTA5OTY3MSAwIDAgMSAtMC44NzQ5Nzg5LDAuNDE2OTA2IGwgLTYuNDk2MTAwNiwwLjAwMTUgYSAxLjExOTEyNTUsMS4xMDk5NjcxIDAgMCAxIC0wLjg3NDk3OSwtMC40MTc2NTIgbCAtNC4wNTA4LC01LjAzNjU1NCBhIDEuMTE5MTI1NSwxLjEwOTk2NzEgMCAwIDEgLTAuMDYzNjIsLTAuMDg4MzIgMS4xMTkxMjU1LDEuMTA5OTY3MSAwIDAgMSAtMC4xNTE5NDIsLTAuODUxMDI4IGwgMS40NDM4MjcsLTYuMjgxMjg1MyBhIDEuMTE5MTI1NSwxLjEwOTk2NzEgMCAwIDEgMC42MDU1MjQsLTAuNzUyOTc1OCBsIDUuODUyNDAzNiwtMi43OTYzMzk1IGEgMS4xMTkxMjU1LDEuMTA5OTY3MSAwIDAgMSAwLjQyODg4MTksLTAuMTA4NTMwMyB6IiBzdHlsZT0iY29sb3I6IzAwMDAwMDtmb250LXN0eWxlOm5vcm1hbDtmb250LXZhcmlhbnQ6bm9ybWFsO2ZvbnQtd2VpZ2h0Om5vcm1hbDtmb250LXN0cmV0Y2g6bm9ybWFsO2ZvbnQtc2l6ZTptZWRpdW07bGluZS1oZWlnaHQ6bm9ybWFsO2ZvbnQtZmFtaWx5OlNhbnM7LWlua3NjYXBlLWZvbnQtc3BlY2lmaWNhdGlvbjpTYW5zO3RleHQtaW5kZW50OjA7dGV4dC1hbGlnbjpzdGFydDt0ZXh0LWRlY29yYXRpb246bm9uZTt0ZXh0LWRlY29yYXRpb24tbGluZTpub25lO2xldHRlci1zcGFjaW5nOm5vcm1hbDt3b3JkLXNwYWNpbmc6bm9ybWFsO3RleHQtdHJhbnNmb3JtOm5vbmU7d3JpdGluZy1tb2RlOmxyLXRiO2RpcmVjdGlvbjpsdHI7YmFzZWxpbmUtc2hpZnQ6YmFzZWxpbmU7dGV4dC1hbmNob3I6c3RhcnQ7ZGlzcGxheTppbmxpbmU7b3ZlcmZsb3c6dmlzaWJsZTt2aXNpYmlsaXR5OnZpc2libGU7ZmlsbDojZmZmZmZmO2ZpbGwtb3BhY2l0eToxO2ZpbGwtcnVsZTpub256ZXJvO3N0cm9rZTpub25lO3N0cm9rZS13aWR0aDowO3N0cm9rZS1taXRlcmxpbWl0OjQ7c3Ryb2tlLWRhc2hhcnJheTpub25lO21hcmtlcjpub25lO2VuYWJsZS1iYWNrZ3JvdW5kOmFjY3VtdWxhdGUiIGlua3NjYXBlOmNvbm5lY3Rvci1jdXJ2YXR1cmU9IjAiLz4mI3hhOyAgICA8L2c+JiN4YTsgICAgPHRleHQgaWQ9InRleHQyMDY2IiB5PSIxNi44MTE3NzUiIHg9IjEwLjA1NTc2OSIgc3R5bGU9ImZvbnQtc3R5bGU6bm9ybWFsO2ZvbnQtd2VpZ2h0Om5vcm1hbDtmb250LXNpemU6MTAuNTgzMzMzMDJweDtsaW5lLWhlaWdodDo2LjYxNDU4MzQ5cHg7Zm9udC1mYW1pbHk6U2FucztsZXR0ZXItc3BhY2luZzowcHg7d29yZC1zcGFjaW5nOjBweDtmaWxsOiNmZmZmZmY7ZmlsbC1vcGFjaXR5OjE7c3Ryb2tlOm5vbmU7c3Ryb2tlLXdpZHRoOjAuMjY0NTgzMzJweDtzdHJva2UtbGluZWNhcDpidXR0O3N0cm9rZS1saW5lam9pbjptaXRlcjtzdHJva2Utb3BhY2l0eToxIiB4bWw6c3BhY2U9InByZXNlcnZlIj48dHNwYW4gc3R5bGU9ImZvbnQtc3R5bGU6bm9ybWFsO2ZvbnQtdmFyaWFudDpub3JtYWw7Zm9udC13ZWlnaHQ6bm9ybWFsO2ZvbnQtc3RyZXRjaDpub3JtYWw7Zm9udC1zaXplOjIuODIyMjIyMjNweDtmb250LWZhbWlseTpBcmlhbDstaW5rc2NhcGUtZm9udC1zcGVjaWZpY2F0aW9uOidBcmlhbCwgTm9ybWFsJzt0ZXh0LWFsaWduOmNlbnRlcjt3cml0aW5nLW1vZGU6bHItdGI7dGV4dC1hbmNob3I6bWlkZGxlO2ZpbGw6I2ZmZmZmZjtmaWxsLW9wYWNpdHk6MTtzdHJva2Utd2lkdGg6MC4yNjQ1ODMzMnB4IiB5PSIxNi44MTE3NzUiIHg9IjEwLjA1NTc2OSIgaWQ9InRzcGFuMjA2NCIgc29kaXBvZGk6cm9sZT0ibGluZSI+YXBpPC90c3Bhbj48L3RleHQ+JiN4YTsgICAgPHBhdGggaWQ9InBhdGgxOTg0IiBkPSJtIDkuOTkyMjU3NCw0LjQ0Njk5MjUgYyAtMC4xMzgzMjM0LC0wLjAwNDQgLTMuOTk1MzEzOSwxLjg5MTc3OTEgLTQuMDQ1NzQyOSwxLjk4OTAyNDEgLTAuMTIxMTUzLDAuMjMzNjgyIC0wLjk5ODgwMiw0LjI4MTQ3ODQgLTAuOTQ3MjM1LDQuMzY4NzI0NCAwLjAzLDAuMDUwNjUgMC42NjIxOTksMC44NTIzMDUgMS40MDQ1NjcsMS43ODA3NzEgbCAxLjM0OTc5OCwxLjY4Nzc1NCAyLjIyMTU3NDMsMC4wMDExIDIuMjIxNTcyMiwwLjAwMTEgMS40MTI4MTksLTEuNzY1Nzg0IDEuNDEzODgsLTEuNzY1MjY1IC0wLjQ5NDU2LC0yLjE2ODg2MDcgQyAxNC4yNTY3Myw3LjM4MjgxNTUgMTQuMDEzMjksNi4zODcyNzU2IDEzLjk4ODQyLDYuMzYzMjg1NiAxMy45MTg5Miw2LjI5NjQwNTYgMTAuMDY3MjQsNC40NDk1NDY1IDkuOTkyMjU3NCw0LjQ0NzEyNTUgWiBtIDAuMjM2MTY2NiwxLjk4MjgyNDEgYyAwLjE4NjYzNywwLjAwOCAwLjIwNTc5MiwwLjI5MTU3MSAwLjYwNTEyOCwwLjMyMTQyNyAwLjUyMTYsMC4wMzkgMC40NjU1MDgsLTAuNDQ2NjUxIDAuODY0NTUzLC0wLjEwODUyMiAwLjM5OTA0NCwwLjMzODEyNSAtMC4wODg5LDAuMzYyNjQxIDAuMDM1MTQsMC44NzA3NDkgMC4xMjQwOSwwLjUwODEwNDEgMC41Njg4MDEsMC4zMDUwOTkxIDAuMzcwNTIzLDAuNzg5MDk4NyAtMC4xOTgyNzksMC40ODQwMDIgLTAuMzcyNjEzLDAuMDI3MjggLTAuODE3NTEsMC4zMDIzMDggLTAuNDQ0ODk3LDAuMjc1MDIzIC0wLjExNDU2NCwwLjYzNTM0NiAtMC42MzYxMzgsMC41OTYzNDcgLTAuNTIxNjUyLC0wLjAzOSAtMC4xNDA0NjcsLTAuMzQ2MDY1IC0wLjUzOTUxLC0wLjY4NDE5NyBDIDkuNzExNTY2LDguMTc4ODk1NSA5LjQ3MDM3MTgsOC42MDQ0ODczIDkuMzQ2MzA4OCw4LjA5NjM3OTcgOS4yMjIyMTg4LDcuNTg4MjcxNiA5LjYzMjI0NCw3Ljg1NTM2MjUgOS44MzA1MjMsNy4zNzEzNjA3IDEwLjAyOTIyNCw2Ljg4NzMxMzYgOS41NDk0Mjg4LDYuNzkwMTA3NiA5Ljk5NDM1MjQsNi41MTUwODE2IGMgMC4wNTU2NCwtMC4wMzQzNCAwLjEwMTg5MDYsLTAuMDU2ODggMC4xNDIxMDU2LC0wLjA3MDI4IDAuMDM1MDgsLTAuMDExNjcgMC4wNjUzMywtMC4wMTYxNCAwLjA5MTk3LC0wLjAxNDk3IHogbSAwLjUyMTQ5MywwLjU3MjA1OSBjIC0wLjA3NTc4LC01LjMwNmUtNCAtMC4xNTEyMDksMC4wMTAyMSAtMC4yMjM3NTgsMC4wMzIwNCAtMC40MDAzOTMsMC4xMjA3MzIgLTAuNjI2OTU0LDAuNTQzMzIxOSAtMC41MDU5MDksMC45NDM2MTMgMC4xMjA5NCwwLjM5OTkxOTcgMC41NDMxMSwwLjYyNjE0ODcgMC45NDMxMDcsMC41MDUzOTM3IDAuMzk5ODM4LC0wLjEyMDc0NiAwLjYyNjI2OCwtMC41NDI2MTA3IDAuNTA1OTA5LC0wLjk0MjU3ODggQyAxMS4zNzM1MTYsNy4yMjI1MjM2IDExLjA4MTgzNyw3LjAwNDE4OTYgMTAuNzQ5OTE3LDcuMDAxODc3NiBaIE0gNy43NTcyNjk1LDguMzAzNjAzMyBjIDAuMDM5NjksNy45ZS00IDAuMDg4MzIsMC4wMDkgMC4xNDgyOTkxLDAuMDI3MzkgMC40Nzk5Mjc5LDAuMTQ3MTM4IC0wLjAwNzcsMC4zOTk1MDMgMC4zMzQzNTQsMC43NjY4NzkgMC4zNDIwNTMxLDAuMzY3Mzc3IDAuNjI4NTE4MiwtMC4xMDEwODYgMC43NDEwNDUyLDAuMzg4MDkxIDAuMTEyNTI3LDAuNDg5MTc3NyAtMC4zNDk5OTEzLDAuMTkyOTIxIC0wLjQ5NzEyNjEsMC42NzI4Mjc3IC0wLjE0NzE2MTIsMC40Nzk5MDQgMC40MDE0NzkxLDAuNDk0MDgzIDAuMDM0MTEsMC44MzYxMjMgLTAuMzY3Mzc0LDAuMzQyMDQxIC0wLjM0MTgxNTEsLTAuMjA2MDYgLTAuODMwOTUwMSwtMC4wOTM1MyAtMC40ODkxODgsMC4xMTI1MjcgLTAuMjI3MDM5LDAuNTk0NjU0IC0wLjcwNjk0LDAuNDQ3NTE2IC0wLjQ3OTkyOCwtMC4xNDcxMzcgMC4wMDc3LC0wLjM5OTUgLTAuMzM0MzU0LC0wLjc2Njg3NiAtMC4zNDIwNTQsLTAuMzY3Mzc5IC0wLjYyODUxOCwwLjEwMDU3MSAtMC43NDEwNDUsLTAuMzg4NjA3IC0wLjExMjUyOCwtMC40ODkxOCAwLjM0OTk5MSwtMC4xOTI5MjQgMC40OTcxMjUsLTAuNjcyODI2NyAwLjE0NzE2MiwtMC40Nzk5MDcgLTAuNDAxOTgxLC0wLjQ5MzU3IC0wLjAzNDYxLC0wLjgzNTYxIDAuMzY3Mzc0LC0wLjM0MjA0MyAwLjM0MjI5MSwwLjIwNjA2NSAwLjgzMTQ1MywwLjA5MzU0IDAuNDI4MDQzLC0wLjA5ODQ2IDAuMjgwNjQzLC0wLjQ3OTYwNyAwLjU1ODY0MSwtMC40NzQ5MDYgeiBtIDMuNTY3MjE2NSwwLjUyNDUxNiBjIDAuMDQ1NTEsNS4zNmUtNCAwLjEwMDgwNywwLjAxMjQzIDAuMTcwMDIyLDAuMDM5MjcgMC41NTMyNywwLjIxNDczOSAtMC4xNzUyMzQsMC41NDU4OTQgMC4yNTM3MzUsMC45NTYwMTM3IDAuNDI4OTY5LDAuNDEwMTE4IDAuNzI3NDcyLC0wLjMzMjc0MTcgMC45NjY4NjcsMC4yMTAzMjMgMC4yMzkzNjksMC41NDMwNjUgLTAuNTEwNDM0LDAuMjYyNDMyIC0wLjQ5NzEyNiwwLjg1NTc2MyAwLjAxMzIzLDAuNTkzMzMxIDAuNzQ5NTkxLDAuMjc4NzIgMC41MzQ4MjksMC44MzE5OSAtMC4yMTQ3MDksMC41NTMyNjggLTAuNTQ1ODg4LC0wLjE3NTI0NyAtMC45NTU5OTIsMC4yNTM3MyAtMC40MTAxMzEsMC40Mjg5NzcgMC4zMzIyMSwwLjcyNjk3MiAtMC4yMTA4NDcsMC45NjYzNDggLTAuNTQzMDU3LDAuMjM5MzggLTAuMjYxMzgyLC0wLjUwOTkzOSAtMC44NTQ3MzYsLTAuNDk2NjA5IC0wLjU5MzMyOCwwLjAxMzMzIC0wLjI3OTIxNSwwLjc0OTA3MiAtMC44MzI1MSwwLjUzNDMzNCBDIDkuMzQ1NDg0OCwxMi43NjQ1NDMgMTAuMDczOTg3LDEyLjQzMzM4OCA5LjY0NDk5MywxMi4wMjMyNjggOS4yMTYwMjM4LDExLjYxMzE0OCA4LjkxODAyMzgsMTIuMzU2MDA4IDguNjc4NjU0NiwxMS44MTI5NDUgOC40MzkyODY3LDExLjI2OTg4IDkuMTg4NTU5OCwxMS41NTEwMzIgOS4xNzUyNzc4LDEwLjk1NzcwMSA5LjE2MTc4NzgsMTAuMzY0MzcgOC40MjU2ODY3LDEwLjY3ODQ2MiA4LjY0MDQyMjUsMTAuMTI1MTkyIDguODU1MTU4OCw5LjU3MTkyMjMgOS4xODY4MTM4LDEwLjMwMDk1NSA5LjU5Njk0NSw5Ljg3MTk3OCAxMC4wMDcwNDgsOS40NDMwMDEzIDkuMjY0MTc3OCw5LjE0NDQ5MDMgOS44MDcyNjIsOC45MDUxMTQzIGMgMC41NDMwNTUsLTAuMjM5Mzc3IDAuMjYxOTEsMC41MDk5MzkgMC44NTUyMzcsMC40OTY2MDkgMC41MTkxOTIsLTAuMDExNjcgMC4zNDM0MjksLTAuNTc2NDA4IDAuNjYxOTg3LC0wLjU3MzYwOCB6IG0gLTMuODgxNDA5NSwwLjI1NTI4IGMgLTAuNDE3OTg4LC0xLjU4ZS00IC0wLjc1Njk0NiwwLjMzODU2NCAtMC43NTcwNzgsMC43NTY1NDQ3IC0xLjU5ZS00LDAuNDE4MTgyIDAuMzM4OTA1LDAuNzU3MjE5IDAuNzU3MDc4LDAuNzU3MDYgMC40MTc5NjMxLC0xLjQ4ZS00IDAuNzU2NjgyLC0wLjMzOTA5NSAwLjc1NjUyMzksLTAuNzU3MDYgQyA4LjE5OTQ2NzUsOS40MjIxODAzIDcuODYwODI3Niw5LjA4MzU0NzMgNy40NDMwNzY1LDkuMDgzMzk5MyBaIE0gMTAuNjk2NjMsOS44MDg0MjEgYyAtMC42MTU2ODQsNC4yZS01IC0xLjExNDg0NiwwLjQ5ODk4MyAtMS4xMTUxOSwxLjExNDY2MSAtMi4zOGUtNCwwLjYxNjA4MiAwLjQ5OTEwOSwxLjExNTY1IDEuMTE1MTksMS4xMTU2OTIgMC42MTYyNjgsMi4yMmUtNCAxLjExNTkwNywtMC40OTk0MjUgMS4xMTU2NjksLTEuMTE1NjkyIDAsLTAuNjE1ODY2IC0wLjQ5OTc5OCwtMS4xMTQ4ODMgLTEuMTE1NjY5LC0xLjExNDY2MSB6IiBzdHlsZT0ib3BhY2l0eToxO2ZpbGw6I2ZmZmZmZjtmaWxsLW9wYWNpdHk6MTtzdHJva2U6I2VlZWVlZTtzdHJva2Utd2lkdGg6MDtzdHJva2UtbWl0ZXJsaW1pdDoxMDtzdHJva2UtZGFzaGFycmF5Om5vbmU7c3Ryb2tlLWRhc2hvZmZzZXQ6MTEuMjM2NDIzNDk7c3Ryb2tlLW9wYWNpdHk6MSIgaW5rc2NhcGU6Y29ubmVjdG9yLWN1cnZhdHVyZT0iMCIgc29kaXBvZGk6bm9kZXR5cGVzPSJjY2NjY2NjY2NjY2Njc2NjY2Njc2NjY2NjY2NjY2NjY2Njc2NzY2NjY2NjY2NjY2NjY2NjY2NjY2Njc2NjY2NjY2NjY2NjY2NjIi8+JiN4YTsgIDwvZz4mI3hhOzwvc3ZnPg==;" vertex="1" parent="fbrefnu1O2uLkhK6T9n--1">
          <mxGeometry x="190" y="600" width="50" height="50" as="geometry" />
        </mxCell>
        <mxCell id="fbrefnu1O2uLkhK6T9n--92" value="" style="shape=image;verticalLabelPosition=bottom;verticalAlign=top;imageAspect=0;aspect=fixed;image=data:image/svg+xml,PHN2ZyB4bWxuczpkYz0iaHR0cDovL3B1cmwub3JnL2RjL2VsZW1lbnRzLzEuMS8iIHhtbG5zOmNjPSJodHRwOi8vY3JlYXRpdmVjb21tb25zLm9yZy9ucyMiIHhtbG5zOnJkZj0iaHR0cDovL3d3dy53My5vcmcvMTk5OS8wMi8yMi1yZGYtc3ludGF4LW5zIyIgeG1sbnM6c3ZnPSJodHRwOi8vd3d3LnczLm9yZy8yMDAwL3N2ZyIgeG1sbnM9Imh0dHA6Ly93d3cudzMub3JnLzIwMDAvc3ZnIiB4bWxuczpzb2RpcG9kaT0iaHR0cDovL3NvZGlwb2RpLnNvdXJjZWZvcmdlLm5ldC9EVEQvc29kaXBvZGktMC5kdGQiIHhtbG5zOmlua3NjYXBlPSJodHRwOi8vd3d3Lmlua3NjYXBlLm9yZy9uYW1lc3BhY2VzL2lua3NjYXBlIiB3aWR0aD0iMTguMDM1MzM0bW0iIGhlaWdodD0iMTcuNTAwMzc4bW0iIHZpZXdCb3g9IjAgMCAxOC4wMzUzMzQgMTcuNTAwMzc4IiB2ZXJzaW9uPSIxLjEiIGlkPSJzdmcxMTUzMSIgaW5rc2NhcGU6dmVyc2lvbj0iMC45MSByMTM3MjUiIHNvZGlwb2RpOmRvY25hbWU9ImFwaS5zdmciPiYjeGE7ICA8ZGVmcyBpZD0iZGVmczExNTI1Ii8+JiN4YTsgIDxzb2RpcG9kaTpuYW1lZHZpZXcgaWQ9ImJhc2UiIHBhZ2Vjb2xvcj0iI2ZmZmZmZiIgYm9yZGVyY29sb3I9IiM2NjY2NjYiIGJvcmRlcm9wYWNpdHk9IjEuMCIgaW5rc2NhcGU6cGFnZW9wYWNpdHk9IjAuMCIgaW5rc2NhcGU6cGFnZXNoYWRvdz0iMiIgaW5rc2NhcGU6em9vbT0iOCIgaW5rc2NhcGU6Y3g9IjE2Ljk2ODYyMSIgaW5rc2NhcGU6Y3k9IjMzLjUwOTA4MSIgaW5rc2NhcGU6ZG9jdW1lbnQtdW5pdHM9Im1tIiBpbmtzY2FwZTpjdXJyZW50LWxheWVyPSJsYXllcjEiIHNob3dncmlkPSJmYWxzZSIgaW5rc2NhcGU6d2luZG93LXdpZHRoPSIxNDQwIiBpbmtzY2FwZTp3aW5kb3ctaGVpZ2h0PSI3NzEiIGlua3NjYXBlOndpbmRvdy14PSI1NSIgaW5rc2NhcGU6d2luZG93LXk9IjAiIGlua3NjYXBlOndpbmRvdy1tYXhpbWl6ZWQ9IjAiIGZpdC1tYXJnaW4tdG9wPSIwIiBmaXQtbWFyZ2luLWxlZnQ9IjAiIGZpdC1tYXJnaW4tcmlnaHQ9IjAiIGZpdC1tYXJnaW4tYm90dG9tPSIwIi8+JiN4YTsgIDxtZXRhZGF0YSBpZD0ibWV0YWRhdGExMTUyOCI+JiN4YTsgICAgPHJkZjpSREY+JiN4YTsgICAgICA8Y2M6V29yayByZGY6YWJvdXQ9IiI+JiN4YTsgICAgICAgIDxkYzpmb3JtYXQ+aW1hZ2Uvc3ZnK3htbDwvZGM6Zm9ybWF0PiYjeGE7ICAgICAgICA8ZGM6dHlwZSByZGY6cmVzb3VyY2U9Imh0dHA6Ly9wdXJsLm9yZy9kYy9kY21pdHlwZS9TdGlsbEltYWdlIi8+JiN4YTsgICAgICAgIDxkYzp0aXRsZS8+JiN4YTsgICAgICA8L2NjOldvcms+JiN4YTsgICAgPC9yZGY6UkRGPiYjeGE7ICA8L21ldGFkYXRhPiYjeGE7ICA8ZyBpbmtzY2FwZTpsYWJlbD0iQ2FscXVlIDEiIGlua3NjYXBlOmdyb3VwbW9kZT0ibGF5ZXIiIGlkPSJsYXllcjEiIHRyYW5zZm9ybT0idHJhbnNsYXRlKC0wLjk5MjYyNjM4LC0xLjE3NDE4MSkiPiYjeGE7ICAgIDxnIGlkPSJnNzAiIHRyYW5zZm9ybT0ibWF0cml4KDEuMDE0ODg4NywwLDAsMS4wMTQ4ODg3LDE2LjkwMjE0NiwtMi42OTg3MjYpIj4mI3hhOyAgICAgIDxwYXRoIGlua3NjYXBlOmV4cG9ydC15ZHBpPSIyNTAuNTUiIGlua3NjYXBlOmV4cG9ydC14ZHBpPSIyNTAuNTUiIGlua3NjYXBlOmV4cG9ydC1maWxlbmFtZT0ibmV3LnBuZyIgaW5rc2NhcGU6Y29ubmVjdG9yLWN1cnZhdHVyZT0iMCIgaWQ9InBhdGgzMDU1IiBkPSJtIC02Ljg0OTIwMTUsNC4yNzI0NjY4IGEgMS4xMTkxMjU1LDEuMTA5OTY3MSAwIDAgMCAtMC40Mjg4ODE4LDAuMTA4NTMwMyBsIC01Ljg1MjQwMzcsMi43OTYzMzk0IGEgMS4xMTkxMjU1LDEuMTA5OTY3MSAwIDAgMCAtMC42MDU1MjQsMC43NTI5NzU5IGwgLTEuNDQzODI4LDYuMjgxMjg0NiBhIDEuMTE5MTI1NSwxLjEwOTk2NzEgMCAwIDAgMC4xNTE5NDMsMC44NTEwMjggMS4xMTkxMjU1LDEuMTA5OTY3MSAwIDAgMCAwLjA2MzYyLDAuMDg4MzIgbCA0LjA1MDgsNS4wMzY1NTUgYSAxLjExOTEyNTUsMS4xMDk5NjcxIDAgMCAwIDAuODc0OTc5LDAuNDE3NjU0IGwgNi40OTYxMDExLC0wLjAwMTUgYSAxLjExOTEyNTUsMS4xMDk5NjcxIDAgMCAwIDAuODc0OTc4OCwtMC40MTY5MDYgTCAxLjM4MTg4NzIsMTUuMTQ5NDUzIEEgMS4xMTkxMjU1LDEuMTA5OTY3MSAwIDAgMCAxLjU5ODE5ODYsMTQuMjEwMTA0IEwgMC4xNTIxMjY1Nyw3LjkyODgxNTQgQSAxLjExOTEyNTUsMS4xMDk5NjcxIDAgMCAwIC0wLjQ1MzM5Nzk0LDcuMTc1ODM5NiBMIC02LjMwNjU0OTYsNC4zODA5OTcxIEEgMS4xMTkxMjU1LDEuMTA5OTY3MSAwIDAgMCAtNi44NDkyMDE1LDQuMjcyNDY2OCBaIiBzdHlsZT0iZmlsbDojMzI2Y2U1O2ZpbGwtb3BhY2l0eToxO3N0cm9rZTpub25lO3N0cm9rZS13aWR0aDowO3N0cm9rZS1taXRlcmxpbWl0OjQ7c3Ryb2tlLWRhc2hhcnJheTpub25lO3N0cm9rZS1vcGFjaXR5OjEiLz4mI3hhOyAgICAgIDxwYXRoIGlkPSJwYXRoMzA1NC0yLTkiIGQ9Ik0gLTYuODUyMzQzNSwzLjgxNzYzNzIgQSAxLjE4MTQzMDQsMS4xNzE3NjIgMCAwIDAgLTcuMzA0NDI4NCwzLjkzMjkwNCBsIC02LjE3ODc0MjYsMi45NTEyNzU4IGEgMS4xODE0MzA0LDEuMTcxNzYyIDAgMCAwIC0wLjYzOTIwNiwwLjc5NDg5MSBsIC0xLjUyMzkxNSw2LjYzMDgyODIgYSAxLjE4MTQzMDQsMS4xNzE3NjIgMCAwIDAgMC4xNjAxNzUsMC44OTg5MyAxLjE4MTQzMDQsMS4xNzE3NjIgMCAwIDAgMC4wNjczNiwwLjA5MjgxIGwgNC4yNzYwOTQsNS4zMTcyMzYgYSAxLjE4MTQzMDQsMS4xNzE3NjIgMCAwIDAgMC45MjM2MywwLjQ0MDg1OCBsIDYuODU3NjE4OCwtMC4wMDE1IGEgMS4xODE0MzA0LDEuMTcxNzYyIDAgMCAwIDAuOTIzNjMwOCwtMC40NDAxMSBsIDQuMjc0NTk2NiwtNS4zMTc5ODUgYSAxLjE4MTQzMDQsMS4xNzE3NjIgMCAwIDAgMC4yMjgyODgsLTAuOTkwOTkzIEwgMC41Mzg5NDQzOSw3LjY3NzU3MzggQSAxLjE4MTQzMDQsMS4xNzE3NjIgMCAwIDAgLTAuMTAwMjYxMDEsNi44ODM0MzEzIEwgLTYuMjc5MDAzNywzLjkzMjE1NTUgQSAxLjE4MTQzMDQsMS4xNzE3NjIgMCAwIDAgLTYuODUyMzQzNSwzLjgxNzYzNzIgWiBtIDAuMDAyOTksMC40NTUwNzg5IGEgMS4xMTkxMjU1LDEuMTA5OTY3MSAwIDAgMSAwLjU0MjY1MTcsMC4xMDg1MzAzIGwgNS44NTMxNTE2OSwyLjc5NDg0MjUgQSAxLjExOTEyNTUsMS4xMDk5NjcxIDAgMCAxIDAuMTUxOTc4MTEsNy45MjkwNjQ4IEwgMS41OTgwNTEsMTQuMjEwMzUgYSAxLjExOTEyNTUsMS4xMDk5NjcxIDAgMCAxIC0wLjIxNjMxMjMsMC45MzkzNDggbCAtNC4wNDkzMDMyLDUuMDM3MzA0IGEgMS4xMTkxMjU1LDEuMTA5OTY3MSAwIDAgMSAtMC44NzQ5Nzg5LDAuNDE2OTA2IGwgLTYuNDk2MTAwNiwwLjAwMTUgYSAxLjExOTEyNTUsMS4xMDk5NjcxIDAgMCAxIC0wLjg3NDk3OSwtMC40MTc2NTIgbCAtNC4wNTA4LC01LjAzNjU1NCBhIDEuMTE5MTI1NSwxLjEwOTk2NzEgMCAwIDEgLTAuMDYzNjIsLTAuMDg4MzIgMS4xMTkxMjU1LDEuMTA5OTY3MSAwIDAgMSAtMC4xNTE5NDIsLTAuODUxMDI4IGwgMS40NDM4MjcsLTYuMjgxMjg1MyBhIDEuMTE5MTI1NSwxLjEwOTk2NzEgMCAwIDEgMC42MDU1MjQsLTAuNzUyOTc1OCBsIDUuODUyNDAzNiwtMi43OTYzMzk1IGEgMS4xMTkxMjU1LDEuMTA5OTY3MSAwIDAgMSAwLjQyODg4MTksLTAuMTA4NTMwMyB6IiBzdHlsZT0iY29sb3I6IzAwMDAwMDtmb250LXN0eWxlOm5vcm1hbDtmb250LXZhcmlhbnQ6bm9ybWFsO2ZvbnQtd2VpZ2h0Om5vcm1hbDtmb250LXN0cmV0Y2g6bm9ybWFsO2ZvbnQtc2l6ZTptZWRpdW07bGluZS1oZWlnaHQ6bm9ybWFsO2ZvbnQtZmFtaWx5OlNhbnM7LWlua3NjYXBlLWZvbnQtc3BlY2lmaWNhdGlvbjpTYW5zO3RleHQtaW5kZW50OjA7dGV4dC1hbGlnbjpzdGFydDt0ZXh0LWRlY29yYXRpb246bm9uZTt0ZXh0LWRlY29yYXRpb24tbGluZTpub25lO2xldHRlci1zcGFjaW5nOm5vcm1hbDt3b3JkLXNwYWNpbmc6bm9ybWFsO3RleHQtdHJhbnNmb3JtOm5vbmU7d3JpdGluZy1tb2RlOmxyLXRiO2RpcmVjdGlvbjpsdHI7YmFzZWxpbmUtc2hpZnQ6YmFzZWxpbmU7dGV4dC1hbmNob3I6c3RhcnQ7ZGlzcGxheTppbmxpbmU7b3ZlcmZsb3c6dmlzaWJsZTt2aXNpYmlsaXR5OnZpc2libGU7ZmlsbDojZmZmZmZmO2ZpbGwtb3BhY2l0eToxO2ZpbGwtcnVsZTpub256ZXJvO3N0cm9rZTpub25lO3N0cm9rZS13aWR0aDowO3N0cm9rZS1taXRlcmxpbWl0OjQ7c3Ryb2tlLWRhc2hhcnJheTpub25lO21hcmtlcjpub25lO2VuYWJsZS1iYWNrZ3JvdW5kOmFjY3VtdWxhdGUiIGlua3NjYXBlOmNvbm5lY3Rvci1jdXJ2YXR1cmU9IjAiLz4mI3hhOyAgICA8L2c+JiN4YTsgICAgPHRleHQgaWQ9InRleHQyMDY2IiB5PSIxNi44MTE3NzUiIHg9IjEwLjA1NTc2OSIgc3R5bGU9ImZvbnQtc3R5bGU6bm9ybWFsO2ZvbnQtd2VpZ2h0Om5vcm1hbDtmb250LXNpemU6MTAuNTgzMzMzMDJweDtsaW5lLWhlaWdodDo2LjYxNDU4MzQ5cHg7Zm9udC1mYW1pbHk6U2FucztsZXR0ZXItc3BhY2luZzowcHg7d29yZC1zcGFjaW5nOjBweDtmaWxsOiNmZmZmZmY7ZmlsbC1vcGFjaXR5OjE7c3Ryb2tlOm5vbmU7c3Ryb2tlLXdpZHRoOjAuMjY0NTgzMzJweDtzdHJva2UtbGluZWNhcDpidXR0O3N0cm9rZS1saW5lam9pbjptaXRlcjtzdHJva2Utb3BhY2l0eToxIiB4bWw6c3BhY2U9InByZXNlcnZlIj48dHNwYW4gc3R5bGU9ImZvbnQtc3R5bGU6bm9ybWFsO2ZvbnQtdmFyaWFudDpub3JtYWw7Zm9udC13ZWlnaHQ6bm9ybWFsO2ZvbnQtc3RyZXRjaDpub3JtYWw7Zm9udC1zaXplOjIuODIyMjIyMjNweDtmb250LWZhbWlseTpBcmlhbDstaW5rc2NhcGUtZm9udC1zcGVjaWZpY2F0aW9uOidBcmlhbCwgTm9ybWFsJzt0ZXh0LWFsaWduOmNlbnRlcjt3cml0aW5nLW1vZGU6bHItdGI7dGV4dC1hbmNob3I6bWlkZGxlO2ZpbGw6I2ZmZmZmZjtmaWxsLW9wYWNpdHk6MTtzdHJva2Utd2lkdGg6MC4yNjQ1ODMzMnB4IiB5PSIxNi44MTE3NzUiIHg9IjEwLjA1NTc2OSIgaWQ9InRzcGFuMjA2NCIgc29kaXBvZGk6cm9sZT0ibGluZSI+YXBpPC90c3Bhbj48L3RleHQ+JiN4YTsgICAgPHBhdGggaWQ9InBhdGgxOTg0IiBkPSJtIDkuOTkyMjU3NCw0LjQ0Njk5MjUgYyAtMC4xMzgzMjM0LC0wLjAwNDQgLTMuOTk1MzEzOSwxLjg5MTc3OTEgLTQuMDQ1NzQyOSwxLjk4OTAyNDEgLTAuMTIxMTUzLDAuMjMzNjgyIC0wLjk5ODgwMiw0LjI4MTQ3ODQgLTAuOTQ3MjM1LDQuMzY4NzI0NCAwLjAzLDAuMDUwNjUgMC42NjIxOTksMC44NTIzMDUgMS40MDQ1NjcsMS43ODA3NzEgbCAxLjM0OTc5OCwxLjY4Nzc1NCAyLjIyMTU3NDMsMC4wMDExIDIuMjIxNTcyMiwwLjAwMTEgMS40MTI4MTksLTEuNzY1Nzg0IDEuNDEzODgsLTEuNzY1MjY1IC0wLjQ5NDU2LC0yLjE2ODg2MDcgQyAxNC4yNTY3Myw3LjM4MjgxNTUgMTQuMDEzMjksNi4zODcyNzU2IDEzLjk4ODQyLDYuMzYzMjg1NiAxMy45MTg5Miw2LjI5NjQwNTYgMTAuMDY3MjQsNC40NDk1NDY1IDkuOTkyMjU3NCw0LjQ0NzEyNTUgWiBtIDAuMjM2MTY2NiwxLjk4MjgyNDEgYyAwLjE4NjYzNywwLjAwOCAwLjIwNTc5MiwwLjI5MTU3MSAwLjYwNTEyOCwwLjMyMTQyNyAwLjUyMTYsMC4wMzkgMC40NjU1MDgsLTAuNDQ2NjUxIDAuODY0NTUzLC0wLjEwODUyMiAwLjM5OTA0NCwwLjMzODEyNSAtMC4wODg5LDAuMzYyNjQxIDAuMDM1MTQsMC44NzA3NDkgMC4xMjQwOSwwLjUwODEwNDEgMC41Njg4MDEsMC4zMDUwOTkxIDAuMzcwNTIzLDAuNzg5MDk4NyAtMC4xOTgyNzksMC40ODQwMDIgLTAuMzcyNjEzLDAuMDI3MjggLTAuODE3NTEsMC4zMDIzMDggLTAuNDQ0ODk3LDAuMjc1MDIzIC0wLjExNDU2NCwwLjYzNTM0NiAtMC42MzYxMzgsMC41OTYzNDcgLTAuNTIxNjUyLC0wLjAzOSAtMC4xNDA0NjcsLTAuMzQ2MDY1IC0wLjUzOTUxLC0wLjY4NDE5NyBDIDkuNzExNTY2LDguMTc4ODk1NSA5LjQ3MDM3MTgsOC42MDQ0ODczIDkuMzQ2MzA4OCw4LjA5NjM3OTcgOS4yMjIyMTg4LDcuNTg4MjcxNiA5LjYzMjI0NCw3Ljg1NTM2MjUgOS44MzA1MjMsNy4zNzEzNjA3IDEwLjAyOTIyNCw2Ljg4NzMxMzYgOS41NDk0Mjg4LDYuNzkwMTA3NiA5Ljk5NDM1MjQsNi41MTUwODE2IGMgMC4wNTU2NCwtMC4wMzQzNCAwLjEwMTg5MDYsLTAuMDU2ODggMC4xNDIxMDU2LC0wLjA3MDI4IDAuMDM1MDgsLTAuMDExNjcgMC4wNjUzMywtMC4wMTYxNCAwLjA5MTk3LC0wLjAxNDk3IHogbSAwLjUyMTQ5MywwLjU3MjA1OSBjIC0wLjA3NTc4LC01LjMwNmUtNCAtMC4xNTEyMDksMC4wMTAyMSAtMC4yMjM3NTgsMC4wMzIwNCAtMC40MDAzOTMsMC4xMjA3MzIgLTAuNjI2OTU0LDAuNTQzMzIxOSAtMC41MDU5MDksMC45NDM2MTMgMC4xMjA5NCwwLjM5OTkxOTcgMC41NDMxMSwwLjYyNjE0ODcgMC45NDMxMDcsMC41MDUzOTM3IDAuMzk5ODM4LC0wLjEyMDc0NiAwLjYyNjI2OCwtMC41NDI2MTA3IDAuNTA1OTA5LC0wLjk0MjU3ODggQyAxMS4zNzM1MTYsNy4yMjI1MjM2IDExLjA4MTgzNyw3LjAwNDE4OTYgMTAuNzQ5OTE3LDcuMDAxODc3NiBaIE0gNy43NTcyNjk1LDguMzAzNjAzMyBjIDAuMDM5NjksNy45ZS00IDAuMDg4MzIsMC4wMDkgMC4xNDgyOTkxLDAuMDI3MzkgMC40Nzk5Mjc5LDAuMTQ3MTM4IC0wLjAwNzcsMC4zOTk1MDMgMC4zMzQzNTQsMC43NjY4NzkgMC4zNDIwNTMxLDAuMzY3Mzc3IDAuNjI4NTE4MiwtMC4xMDEwODYgMC43NDEwNDUyLDAuMzg4MDkxIDAuMTEyNTI3LDAuNDg5MTc3NyAtMC4zNDk5OTEzLDAuMTkyOTIxIC0wLjQ5NzEyNjEsMC42NzI4Mjc3IC0wLjE0NzE2MTIsMC40Nzk5MDQgMC40MDE0NzkxLDAuNDk0MDgzIDAuMDM0MTEsMC44MzYxMjMgLTAuMzY3Mzc0LDAuMzQyMDQxIC0wLjM0MTgxNTEsLTAuMjA2MDYgLTAuODMwOTUwMSwtMC4wOTM1MyAtMC40ODkxODgsMC4xMTI1MjcgLTAuMjI3MDM5LDAuNTk0NjU0IC0wLjcwNjk0LDAuNDQ3NTE2IC0wLjQ3OTkyOCwtMC4xNDcxMzcgMC4wMDc3LC0wLjM5OTUgLTAuMzM0MzU0LC0wLjc2Njg3NiAtMC4zNDIwNTQsLTAuMzY3Mzc5IC0wLjYyODUxOCwwLjEwMDU3MSAtMC43NDEwNDUsLTAuMzg4NjA3IC0wLjExMjUyOCwtMC40ODkxOCAwLjM0OTk5MSwtMC4xOTI5MjQgMC40OTcxMjUsLTAuNjcyODI2NyAwLjE0NzE2MiwtMC40Nzk5MDcgLTAuNDAxOTgxLC0wLjQ5MzU3IC0wLjAzNDYxLC0wLjgzNTYxIDAuMzY3Mzc0LC0wLjM0MjA0MyAwLjM0MjI5MSwwLjIwNjA2NSAwLjgzMTQ1MywwLjA5MzU0IDAuNDI4MDQzLC0wLjA5ODQ2IDAuMjgwNjQzLC0wLjQ3OTYwNyAwLjU1ODY0MSwtMC40NzQ5MDYgeiBtIDMuNTY3MjE2NSwwLjUyNDUxNiBjIDAuMDQ1NTEsNS4zNmUtNCAwLjEwMDgwNywwLjAxMjQzIDAuMTcwMDIyLDAuMDM5MjcgMC41NTMyNywwLjIxNDczOSAtMC4xNzUyMzQsMC41NDU4OTQgMC4yNTM3MzUsMC45NTYwMTM3IDAuNDI4OTY5LDAuNDEwMTE4IDAuNzI3NDcyLC0wLjMzMjc0MTcgMC45NjY4NjcsMC4yMTAzMjMgMC4yMzkzNjksMC41NDMwNjUgLTAuNTEwNDM0LDAuMjYyNDMyIC0wLjQ5NzEyNiwwLjg1NTc2MyAwLjAxMzIzLDAuNTkzMzMxIDAuNzQ5NTkxLDAuMjc4NzIgMC41MzQ4MjksMC44MzE5OSAtMC4yMTQ3MDksMC41NTMyNjggLTAuNTQ1ODg4LC0wLjE3NTI0NyAtMC45NTU5OTIsMC4yNTM3MyAtMC40MTAxMzEsMC40Mjg5NzcgMC4zMzIyMSwwLjcyNjk3MiAtMC4yMTA4NDcsMC45NjYzNDggLTAuNTQzMDU3LDAuMjM5MzggLTAuMjYxMzgyLC0wLjUwOTkzOSAtMC44NTQ3MzYsLTAuNDk2NjA5IC0wLjU5MzMyOCwwLjAxMzMzIC0wLjI3OTIxNSwwLjc0OTA3MiAtMC44MzI1MSwwLjUzNDMzNCBDIDkuMzQ1NDg0OCwxMi43NjQ1NDMgMTAuMDczOTg3LDEyLjQzMzM4OCA5LjY0NDk5MywxMi4wMjMyNjggOS4yMTYwMjM4LDExLjYxMzE0OCA4LjkxODAyMzgsMTIuMzU2MDA4IDguNjc4NjU0NiwxMS44MTI5NDUgOC40MzkyODY3LDExLjI2OTg4IDkuMTg4NTU5OCwxMS41NTEwMzIgOS4xNzUyNzc4LDEwLjk1NzcwMSA5LjE2MTc4NzgsMTAuMzY0MzcgOC40MjU2ODY3LDEwLjY3ODQ2MiA4LjY0MDQyMjUsMTAuMTI1MTkyIDguODU1MTU4OCw5LjU3MTkyMjMgOS4xODY4MTM4LDEwLjMwMDk1NSA5LjU5Njk0NSw5Ljg3MTk3OCAxMC4wMDcwNDgsOS40NDMwMDEzIDkuMjY0MTc3OCw5LjE0NDQ5MDMgOS44MDcyNjIsOC45MDUxMTQzIGMgMC41NDMwNTUsLTAuMjM5Mzc3IDAuMjYxOTEsMC41MDk5MzkgMC44NTUyMzcsMC40OTY2MDkgMC41MTkxOTIsLTAuMDExNjcgMC4zNDM0MjksLTAuNTc2NDA4IDAuNjYxOTg3LC0wLjU3MzYwOCB6IG0gLTMuODgxNDA5NSwwLjI1NTI4IGMgLTAuNDE3OTg4LC0xLjU4ZS00IC0wLjc1Njk0NiwwLjMzODU2NCAtMC43NTcwNzgsMC43NTY1NDQ3IC0xLjU5ZS00LDAuNDE4MTgyIDAuMzM4OTA1LDAuNzU3MjE5IDAuNzU3MDc4LDAuNzU3MDYgMC40MTc5NjMxLC0xLjQ4ZS00IDAuNzU2NjgyLC0wLjMzOTA5NSAwLjc1NjUyMzksLTAuNzU3MDYgQyA4LjE5OTQ2NzUsOS40MjIxODAzIDcuODYwODI3Niw5LjA4MzU0NzMgNy40NDMwNzY1LDkuMDgzMzk5MyBaIE0gMTAuNjk2NjMsOS44MDg0MjEgYyAtMC42MTU2ODQsNC4yZS01IC0xLjExNDg0NiwwLjQ5ODk4MyAtMS4xMTUxOSwxLjExNDY2MSAtMi4zOGUtNCwwLjYxNjA4MiAwLjQ5OTEwOSwxLjExNTY1IDEuMTE1MTksMS4xMTU2OTIgMC42MTYyNjgsMi4yMmUtNCAxLjExNTkwNywtMC40OTk0MjUgMS4xMTU2NjksLTEuMTE1NjkyIDAsLTAuNjE1ODY2IC0wLjQ5OTc5OCwtMS4xMTQ4ODMgLTEuMTE1NjY5LC0xLjExNDY2MSB6IiBzdHlsZT0ib3BhY2l0eToxO2ZpbGw6I2ZmZmZmZjtmaWxsLW9wYWNpdHk6MTtzdHJva2U6I2VlZWVlZTtzdHJva2Utd2lkdGg6MDtzdHJva2UtbWl0ZXJsaW1pdDoxMDtzdHJva2UtZGFzaGFycmF5Om5vbmU7c3Ryb2tlLWRhc2hvZmZzZXQ6MTEuMjM2NDIzNDk7c3Ryb2tlLW9wYWNpdHk6MSIgaW5rc2NhcGU6Y29ubmVjdG9yLWN1cnZhdHVyZT0iMCIgc29kaXBvZGk6bm9kZXR5cGVzPSJjY2NjY2NjY2NjY2Njc2NjY2Njc2NjY2NjY2NjY2NjY2Njc2NzY2NjY2NjY2NjY2NjY2NjY2NjY2Njc2NjY2NjY2NjY2NjY2NjIi8+JiN4YTsgIDwvZz4mI3hhOzwvc3ZnPg==;" vertex="1" parent="fbrefnu1O2uLkhK6T9n--1">
          <mxGeometry x="290" y="580" width="50" height="50" as="geometry" />
        </mxCell>
        <mxCell id="fbrefnu1O2uLkhK6T9n--98" value="&lt;font style=&quot;font-size: 14px;&quot;&gt;authService&lt;/font&gt;" style="text;html=1;align=center;verticalAlign=middle;whiteSpace=wrap;rounded=0;" vertex="1" parent="fbrefnu1O2uLkhK6T9n--1">
          <mxGeometry x="185" y="650" width="60" height="30" as="geometry" />
        </mxCell>
        <mxCell id="fbrefnu1O2uLkhK6T9n--99" value="&lt;font style=&quot;font-size: 14px;&quot;&gt;baseService&lt;/font&gt;" style="text;html=1;align=center;verticalAlign=middle;whiteSpace=wrap;rounded=0;" vertex="1" parent="fbrefnu1O2uLkhK6T9n--1">
          <mxGeometry x="270" y="730" width="60" height="30" as="geometry" />
        </mxCell>
        <mxCell id="fbrefnu1O2uLkhK6T9n--4" value="&lt;font style=&quot;font-size: 16px;&quot;&gt;EC2&lt;/font&gt;" style="points=[[0,0],[0.25,0],[0.5,0],[0.75,0],[1,0],[1,0.25],[1,0.5],[1,0.75],[1,1],[0.75,1],[0.5,1],[0.25,1],[0,1],[0,0.75],[0,0.5],[0,0.25]];outlineConnect=0;gradientColor=none;html=1;whiteSpace=wrap;fontSize=12;fontStyle=0;container=1;pointerEvents=0;collapsible=0;recursiveResize=0;shape=mxgraph.aws4.group;grIcon=mxgraph.aws4.group_ec2_instance_contents;strokeColor=#D86613;fillColor=none;verticalAlign=top;align=left;spacingLeft=30;fontColor=#D86613;dashed=0;" vertex="1" parent="fbrefnu1O2uLkhK6T9n--5">
          <mxGeometry x="30" y="470" width="100" height="130" as="geometry" />
        </mxCell>
        <mxCell id="fbrefnu1O2uLkhK6T9n--3" value="" style="shape=image;verticalLabelPosition=bottom;labelBackgroundColor=default;verticalAlign=top;aspect=fixed;imageAspect=0;image=data:image/svg+xml,PHN2ZyB4bWxuczp4bGluaz0iaHR0cDovL3d3dy53My5vcmcvMTk5OS94bGluayIgeG1sbnM9Imh0dHA6Ly93d3cudzMub3JnLzIwMDAvc3ZnIiBwcmVzZXJ2ZUFzcGVjdFJhdGlvPSJ4TWlkWU1pZCIgdmVyc2lvbj0iMS4xIiB2aWV3Qm94PSIwLjg5MzAyMzI1MjQ4NzE4MjYgMC4yOTU5OTQyODE3Njg3OTg4MyAyNTQuMzEzMTg2NjQ1NTA3OCA0MTYuNjQ2NjM2OTYyODkwNiIgaGVpZ2h0PSI3OTkuMzIyMDg1MzAwNTA5NiIgd2lkdGg9IjQ4Ny44OTEwMDU1NTQ5MzEwNCI+JiN4YTsJPGc+JiN4YTsJCTxwYXRoIGZpbGw9IiNEMzM4MzMiIGQ9Ik0yNTAuNzQxMDg1LDE2OS4yNzc1MTkgQzI1MC43NDEwODUsMjM4LjczNDg4NCAxOTUuNjcxMzE4LDI5NS4wOTQ1NzQgMTI3LjcwMjMyNiwyOTUuMDk0NTc0IEM1OS43MzMzMzMzLDI5NS4wOTQ1NzQgNC42NjM1NjU4OSwyMzguNzM0ODg0IDQuNjYzNTY1ODksMTY5LjI3NzUxOSBDNC42NjM1NjU4OSw5OS44MjAxNTUgNTkuNzMzMzMzMyw0My40NjA0NjUxIDEyNy43MDIzMjYsNDMuNDYwNDY1MSBDMTk1LjY3MTMxOCw0My40NjA0NjUxIDI1MC43NDEwODUsOTkuODIwMTU1IDI1MC43NDEwODUsMTY5LjI3NzUxOSI+JiN4YTsmI3hhOzwvcGF0aD4mI3hhOwkJPHBhdGggZmlsbD0iI0VGM0QzQSIgZD0iTTkuNzI0MDMxMDEsMjAwLjQzNDEwOSBDOS43MjQwMzEwMSwyMDAuNDM0MTA5IDAuNzkzNzk4NDUsNjkuMjU4OTE0NyAxMjEuNzQ4ODM3LDY1LjQ4ODM3MjEgTDExMy4zMTQ3MjksNTEuMzk4NDQ5NiBMNDcuNzI3MTMxOCw3My40MjYzNTY2IEwyOC45NzM2NDM0LDk0Ljk1ODEzOTUgTDEyLjYwMTU1MDQsMTI2LjMxMzE3OCBMMy4yNzQ0MTg2LDE2Mi44Mjc5MDcgTDYuMDUyNzEzMTgsMTg3LjIzNzIwOSI+JiN4YTsmI3hhOzwvcGF0aD4mI3hhOwkJPHBhdGggZmlsbD0iIzIzMUYyMCIgZD0iTTQzLjQ2MDQ2NTEsODMuNDQ4MDYyIEMyMS45Mjg2ODIyLDEwNS41NzUxOTQgOC41MzMzMzMzMywxMzYuMDM3MjA5IDguNTMzMzMzMzMsMTY5Ljc3MzY0MyBMOC41MzMzMzMzMywxNjkuNzczNjQzIEM4LjUzMzMzMzMzLDIwMy41MTAwNzggMjEuOTI4NjgyMiwyMzMuOTcyMDkzIDQzLjQ2MDQ2NTEsMjU2LjA5OTIyNSBMNDMuNDYwNDY1MSwyNTYuMDk5MjI1IEM2NS4wOTE0NzI5LDI3OC4yMjYzNTcgOTQuNzU5Njg5OSwyOTEuODIwMTU1IDEyNy43MDIzMjYsMjkxLjgyMDE1NSBMMTI3LjcwMjMyNiwyOTEuODIwMTU1IEMxNjAuNjQ0OTYxLDI5MS44MjAxNTUgMTkwLjMxMzE3OCwyNzguMjI2MzU3IDIxMS45NDQxODYsMjU2LjA5OTIyNSBMMjExLjk0NDE4NiwyNTYuMDk5MjI1IEMyMzMuNDc1OTY5LDIzMy45NzIwOTMgMjQ2Ljg3MTMxOCwyMDMuNTEwMDc4IDI0Ni44NzEzMTgsMTY5Ljc3MzY0MyBMMjQ2Ljg3MTMxOCwxNjkuNzczNjQzIEMyNDYuODcxMzE4LDEzNi4wMzcyMDkgMjMzLjQ3NTk2OSwxMDUuNTc1MTk0IDIxMS45NDQxODYsODMuNDQ4MDYyIEwyMTEuOTQ0MTg2LDgzLjQ0ODA2MiBDMTkwLjMxMzE3OCw2MS40MjAxNTUgMTYwLjY0NDk2MSw0Ny43MjcxMzE4IDEyNy43MDIzMjYsNDcuNzI3MTMxOCBMMTI3LjcwMjMyNiw0Ny43MjcxMzE4IEM5NC44NTg5MTQ3LDQ3LjcyNzEzMTggNjUuMDkxNDcyOSw2MS4zMjA5MzAyIDQzLjQ2MDQ2NTEsODMuNDQ4MDYyIEw0My40NjA0NjUxLDgzLjQ0ODA2MiBMNDMuNDYwNDY1MSw4My40NDgwNjIgWiBNMzguMDAzMTAwOCwyNjEuMzU4MTQgQzE1LjA4MjE3MDUsMjM3Ljk0MTA4NSAwLjg5MzAyMzI1NiwyMDUuNDk0NTc0IDAuODkzMDIzMjU2LDE2OS43NzM2NDMgTDAuODkzMDIzMjU2LDE2OS43NzM2NDMgQzAuODkzMDIzMjU2LDEzNC4wNTI3MTMgMTUuMDgyMTcwNSwxMDEuNjA2MjAyIDM4LjAwMzEwMDgsNzguMDg5OTIyNSBMMzguMDAzMTAwOCw3OC4wODk5MjI1IEM2MC45MjQwMzEsNTQuNjcyODY4MiA5Mi42NzU5NjksNDAuMDg2ODIxNyAxMjcuNzAyMzI2LDQwLjA4NjgyMTcgTDEyNy43MDIzMjYsNDAuMDg2ODIxNyBDMTYyLjcyODY4Miw0MC4wODY4MjE3IDE5NC40ODA2Miw1NC42NzI4NjgyIDIxNy40MDE1NSw3OC4wODk5MjI1IEwyMTcuNDAxNTUsNzguMDg5OTIyNSBDMjQwLjMyMjQ4MSwxMDEuNTA2OTc3IDI1NC41MTE2MjgsMTMzLjk1MzQ4OCAyNTQuNTExNjI4LDE2OS43NzM2NDMgTDI1NC41MTE2MjgsMTY5Ljc3MzY0MyBDMjU0LjUxMTYyOCwyMDUuNDk0NTc0IDI0MC4zMjI0ODEsMjM3Ljk0MTA4NSAyMTcuNDAxNTUsMjYxLjM1ODE0IEwyMTcuNDAxNTUsMjYxLjM1ODE0IEMxOTQuNDgwNjIsMjg0Ljg3NDQxOSAxNjIuNzI4NjgyLDI5OS4zNjEyNCAxMjcuNzAyMzI2LDI5OS4zNjEyNCBMMTI3LjcwMjMyNiwyOTkuMzYxMjQgQzkyLjY3NTk2OSwyOTkuMzYxMjQgNjAuOTI0MDMxLDI4NC44NzQ0MTkgMzguMDAzMTAwOCwyNjEuMzU4MTQgTDM4LjAwMzEwMDgsMjYxLjM1ODE0IEwzOC4wMDMxMDA4LDI2MS4zNTgxNCBaIj4mI3hhOyYjeGE7PC9wYXRoPiYjeGE7CQk8cGF0aCBmaWxsPSIjRjBENkI3IiBkPSJNMTc5LjQ5NzY3NCwxNjkuOTcyMDkzIEwxNjAuNzQ0MTg2LDE3Mi43NTAzODggTDEzNS40NDE4NiwxNzUuNjI3OTA3IEwxMTkuMDY5NzY3LDE3Ni4wMjQ4MDYgTDEwMy4wOTQ1NzQsMTc1LjUyODY4MiBMOTAuODg5OTIyNSwxNzEuNzU4MTQgTDgwLjA3NDQxODYsMTYwLjA0OTYxMiBMNzEuNjQwMzEwMSwxMzYuMTM2NDM0IEw2OS43NTUwMzg4LDEzMC45NzY3NDQgTDU4LjU0MjYzNTcsMTI3LjIwNjIwMiBMNTEuOTkzNzk4NCwxMTYuMzkwNjk4IEw0Ny4zMzAyMzI2LDEwMC45MTE2MjggTDUyLjQ4OTkyMjUsODcuMzE3ODI5NSBMNjQuNjk0NTczNiw4My4wNTExNjI4IEw3NC41MTc4Mjk1LDg3LjcxNDcyODcgTDc5LjE4MTM5NTMsOTguMDM0MTA4NSBMODQuODM3MjA5Myw5Ny4xNDEwODUzIEw4Ni43MjI0ODA2LDk0Ljc1OTY4OTkgTDg0LjgzNzIwOTMsODMuOTQ0MTg2IEw4NC4zNDEwODUzLDcwLjM1MDM4NzYgTDg3LjExOTM3OTgsNTEuNTk2ODk5MiBMODcuMDIwMTU1LDQwLjg4MDYyMDIgTDk1LjU1MzQ4ODQsMjcuMTg3NTk2OSBMMTEwLjUzNjQzNCwxNi4zNzIwOTMgTDEzNi43MzE3ODMsNS4xNTk2ODk5MiBMMTY1LjgwNDY1MSw5LjQyNjM1NjU5IEwxOTEuMTA2OTc3LDI3LjY4MzcyMDkgTDIwMi44MTU1MDQsNDYuNDM3MjA5MyBMMjEwLjM1NjU4OSw2MC4wMzEwMDc4IEwyMTIuMjQxODYsOTMuNzY3NDQxOSBMMjA2LjU4NjA0NywxMjIuODQwMzEgTDE5Ni4yNjY2NjcsMTQ4LjYzODc2IEwxODYuNTQyNjM2LDE2Mi40MzEwMDgiPiYjeGE7JiN4YTs8L3BhdGg+JiN4YTsJCTxwYXRoIGZpbGw9IiMzMzUwNjEiIGQ9Ik0xNjMuNjIxNzA1LDI1MS4wMzg3NiBMOTYuNjQ0OTYxMiwyNTMuODE3MDU0IEw5Ni42NDQ5NjEyLDI2NS4wMjk0NTcgTDEwMi4zMDA3NzUsMzA0LjQyMTcwNSBMOTkuNTIyNDgwNiwzMDcuNjk2MTI0IEw1Mi42ODgzNzIxLDI5MS43MjA5MyBMNDkuNDEzOTUzNSwyODYuMDY1MTE2IEw0NC43NTAzODc2LDIzMy4wNzkwNyBMMzMuNzM2NDM0MSwyMDEuMzI3MTMyIEwzMS4zNTUwMzg4LDE5My43ODYwNDcgTDY4Ljg2MjAxNTUsMTY3Ljk4NzU5NyBMODAuNTcwNTQyNiwxNjMuMzI0MDMxIEw5MC44ODk5MjI1LDE3Ni4wMjQ4MDYgTDk5LjgyMDE1NSwxODMuOTYyNzkxIEwxMTAuMTM5NTM1LDE4Ny4yMzcyMDkgTDExNC44MDMxMDEsMTg4LjYyNjM1NyBMMTIwLjQ1ODkxNSwyMTMuMDM1NjU5IEwxMjQuNzI1NTgxLDIxOC4xOTUzNDkgTDEzNS41NDEwODUsMjE0LjQyNDgwNiBMMTI4LDIyOS4wMTA4NTMgTDE2OC42ODIxNzEsMjQ4LjI2MDQ2NSBMMTYzLjYyMTcwNSwyNTEuMDM4NzYiPiYjeGE7JiN4YTs8L3BhdGg+JiN4YTsJCTxwYXRoIGZpbGw9IiM2RDZCNkQiIGQ9Ik01Mi40ODk5MjI1LDg3LjUxNjI3OTEgTDY0LjY5NDU3MzYsODMuMjQ5NjEyNCBMNzQuNTE3ODI5NSw4Ny45MTMxNzgzIEw3OS4xODEzOTUzLDk4LjIzMjU1ODEgTDg0LjgzNzIwOTMsOTcuMzM5NTM0OSBMODYuMjI2MzU2Niw5MS42ODM3MjA5IEw4My40NDgwNjIsODAuODY4MjE3MSBMODYuMjI2MzU2Niw1NS4wNjk3Njc0IEw4My44NDQ5NjEyLDQwLjk3OTg0NSBMOTIuMjc5MDY5OCwzMS4xNTY1ODkxIEwxMTAuNTM2NDM0LDE2LjY2OTc2NzQgTDEwNS4zNzY3NDQsOS42MjQ4MDYyIEw3OS41NzgyOTQ2LDIyLjMyNTU4MTQgTDY4Ljc2Mjc5MDcsMzAuNzU5Njg5OSBMNjIuNzEwMDc3NSw0My44NTczNjQzIEw1My4zODI5NDU3LDU2LjU1ODEzOTUgTDUwLjYwNDY1MTIsNzEuNTQxMDg1MyBMNTIuNDg5OTIyNSw4Ny41MTYyNzkxIj4mI3hhOyYjeGE7PC9wYXRoPiYjeGE7CQk8cGF0aCBmaWxsPSIjRENEOUQ4IiBkPSJNNzEuNzM5NTM0OSw0My40NjA0NjUxIEM3MS43Mzk1MzQ5LDQzLjQ2MDQ2NTEgNzguNzg0NDk2MSwyNi4wOTYxMjQgMTA2Ljg2NTExNiwxNy42NjIwMTU1IEMxMzQuOTQ1NzM2LDkuMjI3OTA2OTggMTA4LjI1NDI2NCwxMS42MDkzMDIzIDEwOC4yNTQyNjQsMTEuNjA5MzAyMyBMNzcuNzkyMjQ4MSwyMy4zMTc4Mjk1IEw2Ni4wODM3MjA5LDM1LjAyNjM1NjYgTDYwLjkyNDAzMSw0NC4zNTM0ODg0IEw3MS43Mzk1MzQ5LDQzLjQ2MDQ2NTEiPiYjeGE7JiN4YTs8L3BhdGg+JiN4YTsJCTxwYXRoIGZpbGw9IiNEQ0Q5RDgiIGQ9Ik01Ny42NDk2MTI0LDg0LjI0MTg2MDUgQzU3LjY0OTYxMjQsODQuMjQxODYwNSA0Ny44MjYzNTY2LDUxLjM5ODQ0OTYgODUuMzMzMzMzMyw0Ni43MzQ4ODM3IEw4My45NDQxODYsNDEuMDc5MDY5OCBMNTguMTQ1NzM2NCw0Ny4xMzE3ODI5IEw1MC42MDQ2NTEyLDcxLjU0MTA4NTMgTDUyLjQ4OTkyMjUsODcuNTE2Mjc5MSBMNTcuNjQ5NjEyNCw4NC4yNDE4NjA1Ij4mI3hhOyYjeGE7PC9wYXRoPiYjeGE7CQk8cGF0aCBmaWxsPSIjRjdFNENEIiBkPSJNNzIuNjMyNTU4MSwxMjcuODAxNTUgTDc4Ljc4NDQ5NjEsMTIxLjg0ODA2MiBDNzguNzg0NDk2MSwxMjEuODQ4MDYyIDgxLjU2Mjc5MDcsMTIyLjE0NTczNiA4Mi4wNTg5MTQ3LDEyNS40MjAxNTUgQzgyLjU1NTAzODgsMTI4LjY5NDU3NCA4My45NDQxODYsMTU4LjI2MzU2NiAxMDQuMDg2ODIyLDE3NC4xMzk1MzUgQzEwNS45NzIwOTMsMTc1LjYyNzkwNyA4OS4xMDM4NzYsMTcxLjc1ODE0IDg5LjEwMzg3NiwxNzEuNzU4MTQgTDc0LjEyMDkzMDIsMTQ4LjM0MTA4NSI+JiN4YTsmI3hhOzwvcGF0aD4mI3hhOwkJPHBhdGggZmlsbD0iI0Y3RTRDRCIgZD0iTTE1OC44NTg5MTUsMTE4Ljg3MTMxOCBDMTU4Ljg1ODkxNSwxMTguODcxMzE4IDE1OS45NTAzODgsMTA0LjY4MjE3MSAxNjMuODIwMTU1LDEwNS43NzM2NDMgQzE2Ny42ODk5MjIsMTA2Ljg2NTExNiAxNjcuNjg5OTIyLDExMC43MzQ4ODQgMTY3LjY4OTkyMiwxMTAuNzM0ODg0IEMxNjcuNjg5OTIyLDExMC43MzQ4ODQgMTU4LjM2Mjc5MSwxMTYuNjg4MzcyIDE1OC44NTg5MTUsMTE4Ljg3MTMxOCI+JiN4YTsmI3hhOzwvcGF0aD4mI3hhOwkJPHBhdGggZmlsbD0iI0Y3RTRDRCIgZD0iTTE5Ny43NTUwMzksNjYuODc3NTE5NCBDMTk3Ljc1NTAzOSw2Ni44Nzc1MTk0IDE5MC4wMTU1MDQsNjguNDY1MTE2MyAxODkuMzIwOTMsNzUuMzExNjI3OSBDMTg4LjYyNjM1Nyw4Mi4xNTgxMzk1IDE5Ny43NTUwMzksNzYuNzAwNzc1MiAxOTkuMTQ0MTg2LDc2LjIwNDY1MTIiPiYjeGE7JiN4YTs8L3BhdGg+JiN4YTsJCTxwYXRoIGZpbGw9IiNGN0U0Q0QiIGQ9Ik0xNDEuMDk3Njc0LDY3LjM3MzY0MzQgQzE0MS4wOTc2NzQsNjcuMzczNjQzNCAxMzAuNzc4Mjk1LDY4Ljc2Mjc5MDcgMTMwLjc3ODI5NSw3NS4zMTE2Mjc5IEMxMzAuNzc4Mjk1LDgxLjg2MDQ2NTEgMTQyLjQ4NjgyMiw4MS4zNjQzNDExIDE0NS43NjEyNCw3OC41ODYwNDY1Ij4mI3hhOyYjeGE7PC9wYXRoPiYjeGE7CQk8cGF0aCBmaWxsPSIjRjdFNENEIiBkPSJNNzcuMzk1MzQ4OCw5Ny44MzU2NTg5IEM3Ny4zOTUzNDg4LDk3LjgzNTY1ODkgNTkuNjM0MTA4NSw4Ny4wMjAxNTUgNTcuNzQ4ODM3Miw5Ny4zMzk1MzQ5IEM1NS44NjM1NjU5LDEwNy42NTg5MTUgNTEuNjk2MTI0LDExNS4xMDA3NzUgNjAuNTI3MTMxOCwxMjUuOTE2Mjc5IEw1NC40NzQ0MTg2LDEyNC4wMzEwMDggTDQ4LjgxODYwNDcsMTA5LjU0NDE4NiBMNDYuOTMzMzMzMyw5NS40NTQyNjM2IEw1Ny43NDg4MzcyLDg0LjI0MTg2MDUgTDY5Ljk1MzQ4ODQsODUuMTM0ODgzNyBMNzYuOTk4NDQ5Niw5MC43OTA2OTc3IEw3Ny4zOTUzNDg4LDk3LjgzNTY1ODkiPiYjeGE7JiN4YTs8L3BhdGg+JiN4YTsJCTxwYXRoIGZpbGw9IiNGN0U0Q0QiIGQ9Ik04NS44Mjk0NTc0LDY4LjI2NjY2NjcgQzg1LjgyOTQ1NzQsNjguMjY2NjY2NyA5My43Njc0NDE5LDI2Ljk4OTE0NzMgMTM0LjA1MjcxMywxOS4wNTExNjI4IEMxNjcuMTkzNzk4LDEyLjUwMjMyNTYgMTg0LjY1NzM2NCwyMC40NDAzMTAxIDE5MS4yMDYyMDIsMjcuOTgxMzk1MyBDMTkxLjIwNjIwMiwyNy45ODEzOTUzIDE2MS42MzcyMDksLTcuMTQ0MTg2MDUgMTMzLjU1NjU4OSwzLjU3MjA5MzAyIEMxMDUuNDc1OTY5LDE0LjM4NzU5NjkgODQuODM3MjA5MywzNC4wMzQxMDg1IDg1LjMzMzMzMzMsNDYuNjM1NjU4OSBDODYuMTI3MTMxOCw2OC4yNjY2NjY3IDg1LjgyOTQ1NzQsNjguMjY2NjY2NyA4NS44Mjk0NTc0LDY4LjI2NjY2NjciPiYjeGE7JiN4YTs8L3BhdGg+JiN4YTsJCTxwYXRoIGZpbGw9IiNGN0U0Q0QiIGQ9Ik0xOTQuNDgwNjIsMzIuNjQ0OTYxMiBDMTk0LjQ4MDYyLDMyLjY0NDk2MTIgMTgwLjg4NjgyMiwzMi4xNDg4MzcyIDE4MC4zOTA2OTgsNDQuMzUzNDg4NCBDMTgwLjM5MDY5OCw0NC4zNTM0ODg0IDE4MC4zOTA2OTgsNDYuMjM4NzU5NyAxODEuMjgzNzIxLDQ4LjEyNDAzMSBDMTgxLjI4MzcyMSw0OC4xMjQwMzEgMTkyLjA5OTIyNSwzNS45MTkzNzk4IDE5OC42NDgwNjIsNDIuNDY4MjE3MSI+JiN4YTsmI3hhOzwvcGF0aD4mI3hhOwkJPHBhdGggZmlsbD0iI0Y3RTRDRCIgZD0iTTEzNS4wNDQ5NjEsNDkuNDEzOTUzNSBDMTM1LjA0NDk2MSw0OS40MTM5NTM1IDEzMi42NjM1NjYsMzAuNzU5Njg5OSAxMTYuNzg3NTk3LDQxLjU3NTE5MzggQzEwNi40NjgyMTcsNDguNjIwMTU1IDEwNy40NjA0NjUsNTguNDQzNDEwOSAxMDkuMjQ2NTEyLDYwLjMyODY4MjIgQzExMS4xMzE3ODMsNjIuMjEzOTUzNSAxMTAuNjM1NjU5LDY1Ljk4NDQ5NjEgMTEyLjAyNDgwNiw2My40MDQ2NTEyIEMxMTMuNDEzOTUzLDYwLjgyNDgwNjIgMTEzLjAxNzA1NCw1Mi4zOTA2OTc3IDExOC4xNzY3NDQsNTAuMDA5MzAyMyBDMTIzLjIzNzIwOSw0Ny42Mjc5MDcgMTMxLjc3MDU0Myw0NS4wNDgwNjIgMTM1LjA0NDk2MSw0OS40MTM5NTM1Ij4mI3hhOyYjeGE7PC9wYXRoPiYjeGE7CQk8cGF0aCBmaWxsPSIjNDk3MjhCIiBkPSJNOTAuOTg5MTQ3MywxNzYuMDI0ODA2IEw0Ni45MzMzMzMzLDE5NS42NzEzMTggQzQ2LjkzMzMzMzMsMTk1LjY3MTMxOCA2NS4xOTA2OTc3LDI2OC4zMDM4NzYgNTUuODYzNTY1OSwyOTAuODI3OTA3IEw0OS4zMTQ3Mjg3LDI4OC40NDY1MTIgTDQ4LjgxODYwNDcsMjYwLjc2Mjc5MSBMMzYuNjEzOTUzNSwyMDguMzcyMDkzIEwzMS40NTQyNjM2LDE5My44ODUyNzEgTDc3LjM5NTM0ODgsMTYyLjkyNzEzMiBMOTAuOTg5MTQ3MywxNzYuMDI0ODA2Ij4mI3hhOyYjeGE7PC9wYXRoPiYjeGE7CQk8cGF0aCBmaWxsPSIjNDk3MjhCIiBkPSJNOTUuNDU0MjYzNiwyMTYuMjEwODUzIEwxMDEuNzA1NDI2LDIyMy44NTExNjMgTDEwMS43MDU0MjYsMjUxLjkzMTc4MyBMOTQuMjYzNTY1OSwyNTEuOTMxNzgzIEM5NC4yNjM1NjU5LDI1MS45MzE3ODMgOTMuMzcwNTQyNiwyMzIuMjg1MjcxIDkzLjM3MDU0MjYsMjI5LjkwMzg3NiBDOTMuMzcwNTQyNiwyMjcuNTIyNDgxIDk0LjI2MzU2NTksMjE5LjA4ODM3MiA5NC4yNjM1NjU5LDIxOS4wODgzNzIiPiYjeGE7JiN4YTs8L3BhdGg+JiN4YTsJCTxwYXRoIGZpbGw9IiM0OTcyOEIiIGQ9Ik05NS42NTI3MTMyLDI1Ni4xOTg0NSBMNzQuNTE3ODI5NSwyNTcuMDkxNDczIEw4MC41NzA1NDI2LDI2MS4zNTgxNCBMOTUuNTUzNDg4NCwyNjMuNzM5NTM1Ij4mI3hhOyYjeGE7PC9wYXRoPiYjeGE7CQk8cGF0aCBmaWxsPSIjMzM1MDYxIiBkPSJNMTY3Ljc4OTE0NywyNTEuNTM0ODg0IEwxODUuMTUzNDg4LDI1MS4wMzg3NiBMMTg5LjQyMDE1NSwyOTQuMTAyMzI2IEwxNzEuNjU4OTE1LDI5Ni40ODM3MjEgTDE2Ny43ODkxNDcsMjUxLjUzNDg4NCI+JiN4YTsmI3hhOzwvcGF0aD4mI3hhOwkJPHBhdGggZmlsbD0iIzMzNTA2MSIgZD0iTTE3Mi40NTI3MTMsMjUxLjUzNDg4NCBMMTk4LjY0ODA2MiwyNTAuMTQ1NzM2IEMxOTguNjQ4MDYyLDI1MC4xNDU3MzYgMjA5LjQ2MzU2NiwyMjIuOTU4MTQgMjA5LjQ2MzU2NiwyMjEuNTY4OTkyIEMyMDkuNDYzNTY2LDIyMC4xNzk4NDUgMjE4Ljc5MDY5OCwxODIuMTc2NzQ0IDIxOC43OTA2OTgsMTgyLjE3Njc0NCBMMTk3LjY1NTgxNCwxNjAuMTQ4ODM3IEwxOTMuMzg5MTQ3LDE1Ni4zNzgyOTUgTDE4Mi4xNzY3NDQsMTY3LjU5MDY5OCBMMTgyLjE3Njc0NCwyMTEuMTUwMzg4IEwxNzIuNDUyNzEzLDI1MS41MzQ4ODQiPiYjeGE7JiN4YTs8L3BhdGg+JiN4YTsJCTxwYXRoIGZpbGw9IiM0OTcyOEIiIGQ9Ik0xODQuMTYxMjQsMjQ4LjI2MDQ2NSBMMTY3Ljc4OTE0NywyNTEuNTM0ODg0IEwxNzAuMTcwNTQzLDI2NC42MzI1NTggQzE3Ni4yMjMyNTYsMjY3LjQxMDg1MyAxODYuNTQyNjM2LDI1OS45Njg5OTIgMTg2LjU0MjYzNiwyNTkuOTY4OTkyIj4mI3hhOyYjeGE7PC9wYXRoPiYjeGE7CQk8cGF0aCBmaWxsPSIjNDk3MjhCIiBkPSJNMTg0LjY1NzM2NCwxNjYuMjAxNTUgTDIxNy41MDA3NzUsMTkwLjYxMDg1MyBMMjE4LjM5Mzc5OCwxNzkuMzk4NDUgTDE5My41ODc1OTcsMTU2LjQ3NzUxOSBMMTg0LjY1NzM2NCwxNjYuMjAxNTUiPiYjeGE7JiN4YTs8L3BhdGg+JiN4YTsJCTxwYXRoIGZpbGw9IiNGRkZGRkYiIGQ9Ik0xMTEuOTI1NTgxLDM0My44MTM5NTMgTDEwMi4yMDE1NSwzMDQuNDIxNzA1IEw5Ny4zMzk1MzQ5LDI3NS4zNDg4MzcgTDk2LjU0NTczNjQsMjUzLjgxNzA1NCBMMTQwLjUwMjMyNiwyNTEuNDM1NjU5IEwxNjcuNzg5MTQ3LDI1MS40MzU2NTkgTDE2NS4zMDg1MjcsMzAwLjY1MTE2MyBMMTY5LjU3NTE5NCwzMzguNjU0MjY0IEwxNjkuMDc5MDcsMzQ1LjY5OTIyNSBMMTMzLjQ1NzM2NCwzNDguNDc3NTE5IEwxMTEuOTI1NTgxLDM0My44MTM5NTMiPiYjeGE7JiN4YTs8L3BhdGg+JiN4YTsJCTxwYXRoIGZpbGw9IiNEQ0Q5RDgiIGQ9Ik0xNjEuNzM2NDM0LDI1MS4wMzg3NiBDMTYxLjczNjQzNCwyNTEuMDM4NzYgMTU5LjM1NTAzOSwyOTkuNzU4MTQgMTY2LjQsMzM0LjQ4NjgyMiBDMTY2LjQsMzM0LjQ4NjgyMiAxNTIuMzEwMDc4LDM0My40MTcwNTQgMTMxLjc3MDU0MywzNDUuNjk5MjI1IEwxNzEuMTYyNzkxLDM0NC4zMTAwNzggTDE3NS44MjYzNTcsMzQxLjUzMTc4MyBMMTcwLjE3MDU0MywyNjQuNzMxNzgzIEwxNjguNjgyMTcxLDI0OC4yNjA0NjUiPiYjeGE7JiN4YTs8L3BhdGg+JiN4YTsJCTxwYXRoIGZpbGw9IiNGRkZGRkYiIGQ9Ik0xOTAuMTE0NzI5LDI5MC40MzEwMDggTDIwOC4zNzIwOTMsMjg1LjI3MTMxOCBMMjQzLjAwMTU1LDI4My4zODYwNDcgTDI0OC4xNjEyNCwyNjcuNDEwODUzIEwyMzguODM0MTA5LDIzOS43MjcxMzIgTDIyOC4wMTg2MDUsMjM4LjMzNzk4NCBMMjEzLjAzNTY1OSwyNDMuMDAxNTUgTDE5OC43NDcyODcsMjUwLjA0NjUxMiBMMTkxLjEwNjk3NywyNDguNjU3MzY0IEwxODUuMTUzNDg4LDI1MS4wMzg3NiI+JiN4YTsmI3hhOzwvcGF0aD4mI3hhOwkJPHBhdGggZmlsbD0iI0RDRDlEOCIgZD0iTTE4OS44MTcwNTQsMjgxLjAwNDY1MSBDMTg5LjgxNzA1NCwyODEuMDA0NjUxIDIwMi4wMjE3MDUsMjc1LjM0ODgzNyAyMDMuOTA2OTc3LDI3NS44NDQ5NjEgTDE5OC43NDcyODcsMjUwLjA0NjUxMiBMMjA0LjgsMjQ3LjY2NTExNiBDMjA0LjgsMjQ3LjY2NTExNiAyMDkuMDY2NjY3LDI3Mi4wNzQ0MTkgMjA5LjA2NjY2NywyNzQuODUyNzEzIEMyMDkuMDY2NjY3LDI3NC44NTI3MTMgMjM1LjI2MjAxNiwyNzYuMjQxODYgMjM3LjY0MzQxMSwyNzYuMjQxODYgQzIzNy42NDM0MTEsMjc2LjI0MTg2IDI0My4yOTkyMjUsMjY1LjQyNjM1NyAyNDEuOTEwMDc4LDI1NC4yMTM5NTMgTDI0Ny4wNjk3NjcsMjY5LjE5Njg5OSBMMjQ3LjU2NTg5MSwyNzcuNjMxMDA4IEwyNDAuMDI0ODA2LDI4OC44NDM0MTEgTDIzMS41OTA2OTgsMjkwLjcyODY4MiBMMjE3LjUwMDc3NSwyOTAuMjMyNTU4IEwyMTIuODM3MjA5LDI4NC4xNzk4NDUgTDE5Ni40NjUxMTYsMjg2LjU2MTI0IEwxOTEuMzA1NDI2LDI4OC40NDY1MTIiPiYjeGE7JiN4YTs8L3BhdGg+JiN4YTsJCTxwYXRoIGZpbGw9IiNGRkZGRkYiIGQ9Ik0xNzEuMzYxMjQsMjQ3Ljc2NDM0MSBMMTYxLjA0MTg2LDIyMS41Njg5OTIgTDE1MC4yMjYzNTcsMjA2LjA4OTkyMiBDMTUwLjIyNjM1NywyMDYuMDg5OTIyIDE1Mi42MDc3NTIsMTk5LjU0MTA4NSAxNTUuODgyMTcxLDE5OS41NDEwODUgTDE2Ni42OTc2NzQsMTk5LjU0MTA4NSBMMTc3LjAxNzA1NCwyMDMuMzExNjI4IEwxNzYuMTI0MDMxLDIyMC42NzU5NjkgTDE3MS4zNjEyNCwyNDcuNzY0MzQxIj4mI3hhOyYjeGE7PC9wYXRoPiYjeGE7CQk8cGF0aCBmaWxsPSIjRENEOUQ4IiBkPSJNMTczLjQ0NDk2MSwyMzguODM0MTA5IEMxNzMuNDQ0OTYxLDIzOC44MzQxMDkgMTYwLjM0NzI4NywyMTMuNTMxNzgzIDE2MC4zNDcyODcsMjA5Ljc2MTI0IEMxNjAuMzQ3Mjg3LDIwOS43NjEyNCAxNjIuNzI4NjgyLDIwNC4xMDU0MjYgMTY2LjAwMzEwMSwyMDUuNDk0NTc0IEMxNjkuMjc3NTE5LDIwNi44ODM3MjEgMTc2LjMyMjQ4MSwyMTAuNjU0MjY0IDE3Ni4zMjI0ODEsMjEwLjY1NDI2NCBMMTc2LjMyMjQ4MSwyMDEuNzI0MDMxIEwxNjAuMzQ3Mjg3LDE5OC40NDk2MTIgTDE0OS41MzE3ODMsMTk5LjgzODc2IEwxNjcuNzg5MTQ3LDI0My4xMDA3NzUgTDE3MS41NTk2OSwyNDMuNTk2ODk5Ij4mI3hhOyYjeGE7PC9wYXRoPiYjeGE7CQk8cGF0aCBmaWxsPSIjRkZGRkZGIiBkPSJNMTE2LjA5MzAyMywxNzcuMDE3MDU0IEwxMDMuMDk0NTc0LDE3NS42Mjc5MDcgTDkwLjg4OTkyMjUsMTcxLjg1NzM2NCBMOTAuODg5OTIyNSwxNzYuMTI0MDMxIEw5Ni44NDM0MTA5LDE4Mi42NzI4NjggTDExNS41OTY4OTksMTkxLjEwNjk3NyI+JiN4YTsmI3hhOzwvcGF0aD4mI3hhOwkJPHBhdGggZmlsbD0iI0RDRDlEOCIgZD0iTTk1LjE1NjU4OTEsMTc4LjQwNjIwMiBDOTUuMTU2NTg5MSwxNzguNDA2MjAyIDEwOS42NDM0MTEsMTg0LjQ1ODkxNSAxMTQuNDA2MjAyLDE4My4wNjk3NjcgTDExNC45MDIzMjYsMTg4LjcyNTU4MSBMMTAxLjgwNDY1MSwxODUuOTQ3Mjg3IEw5My44NjY2NjY3LDE4MC4yOTE0NzMgTDk1LjE1NjU4OTEsMTc4LjQwNjIwMiI+JiN4YTsmI3hhOzwvcGF0aD4mI3hhOwkJPHBhdGggZmlsbD0iI0QzMzgzMyIgZD0iTTE5MC4xMTQ3MjksMjAxLjEyODY4MiBDMTgyLjE3Njc0NCwyMDAuOTMwMjMzIDE3NC45MzMzMzMsMTk5LjkzNzk4NCAxNjguNjgyMTcxLDE5OC4xNTE5MzggQzE2OS4wNzkwNywxOTUuNTcyMDkzIDE2OC4yODUyNzEsMTkzLjA5MTQ3MyAxNjguOTc5ODQ1LDE5MS4yMDYyMDIgQzE3MC43NjU4OTEsMTg5LjkxNjI3OSAxNzMuNjQzNDExLDE4OS45MTYyNzkgMTc2LjMyMjQ4MSwxODkuNjE4NjA1IEMxNzQuMDQwMzEsMTg4LjUyNzEzMiAxNzAuNzY1ODkxLDE4OC4wMzEwMDggMTY4LjE4NjA0NywxODguNzI1NTgxIEMxNjguMDg2ODIyLDE4Ni45Mzk1MzUgMTY3LjI5MzAyMywxODUuODQ4MDYyIDE2Ni43OTY4OTksMTg0LjQ1ODkxNSBDMTcxLjI2MjAxNiwxODIuODcxMzE4IDE4MS43Nzk4NDUsMTcyLjQ1MjcxMyAxODcuNzMzMzMzLDE3NS44MjYzNTcgQzE5MC42MTA4NTMsMTc3LjUxMzE3OCAxOTEuODAxNTUsMTg2Ljg0MDMxIDE5MiwxOTEuNTAzODc2IEMxOTIuMTk4NDUsMTk1LjI3NDQxOSAxOTEuNjAzMTAxLDE5OS4wNDQ5NjEgMTkwLjExNDcyOSwyMDEuMTI4NjgyIj4mI3hhOyYjeGE7PC9wYXRoPiYjeGE7CQk8cGF0aCBzdHJva2Utd2lkdGg9IjIiIHN0cm9rZT0iI0QzMzgzMyIgZD0iTTE5MC4xMTQ3MjksMjAxLjEyODY4MiBDMTgyLjE3Njc0NCwyMDAuOTMwMjMzIDE3NC45MzMzMzMsMTk5LjkzNzk4NCAxNjguNjgyMTcxLDE5OC4xNTE5MzggQzE2OS4wNzkwNywxOTUuNTcyMDkzIDE2OC4yODUyNzEsMTkzLjA5MTQ3MyAxNjguOTc5ODQ1LDE5MS4yMDYyMDIgQzE3MC43NjU4OTEsMTg5LjkxNjI3OSAxNzMuNjQzNDExLDE4OS45MTYyNzkgMTc2LjMyMjQ4MSwxODkuNjE4NjA1IEMxNzQuMDQwMzEsMTg4LjUyNzEzMiAxNzAuNzY1ODkxLDE4OC4wMzEwMDggMTY4LjE4NjA0NywxODguNzI1NTgxIEMxNjguMDg2ODIyLDE4Ni45Mzk1MzUgMTY3LjI5MzAyMywxODUuODQ4MDYyIDE2Ni43OTY4OTksMTg0LjQ1ODkxNSBDMTcxLjI2MjAxNiwxODIuODcxMzE4IDE4MS43Nzk4NDUsMTcyLjQ1MjcxMyAxODcuNzMzMzMzLDE3NS44MjYzNTcgQzE5MC42MTA4NTMsMTc3LjUxMzE3OCAxOTEuODAxNTUsMTg2Ljg0MDMxIDE5MiwxOTEuNTAzODc2IEMxOTIuMTk4NDUsMTk1LjI3NDQxOSAxOTEuNjAzMTAxLDE5OS4wNDQ5NjEgMTkwLjExNDcyOSwyMDEuMTI4NjgyIEwxOTAuMTE0NzI5LDIwMS4xMjg2ODIgWiI+JiN4YTsmI3hhOzwvcGF0aD4mI3hhOwkJPHBhdGggZmlsbD0iI0QzMzgzMyIgZD0iTTE1Mi4xMTE2MjgsMTg4LjEzMDIzMyBDMTUyLjExMTYyOCwxODguNzI1NTgxIDE1Mi4xMTE2MjgsMTg5LjMyMDkzIDE1Mi4wMTI0MDMsMTg5LjkxNjI3OSBDMTQ5LjUzMTc4MywxOTEuNTAzODc2IDE0NS41NjI3OTEsMTkxLjUwMzg3NiAxNDIuNzg0NDk2LDE5Mi44OTMwMjMgQzE0Ni43NTM0ODgsMTkzLjA5MTQ3MyAxNDkuOTI4NjgyLDE5NC4wODM3MjEgMTUyLjcwNjk3NywxOTUuMzczNjQzIEMxNTIuNjA3NzUyLDE5Ni44NjIwMTYgMTUyLjYwNzc1MiwxOTguNDQ5NjEyIDE1Mi41MDg1MjcsMTk5LjkzNzk4NCBDMTQ3Ljk0NDE4NiwyMDMuMDEzOTUzIDE0My43NzY3NDQsMjA3LjY3NzUxOSAxMzguNDE4NjA1LDIxMC42NTQyNjQgQzEzNS44Mzg3NiwyMTIuMDQzNDExIDEyNy4wMDc3NTIsMjE1LjYxNTUwNCAxMjQuMzI4NjgyLDIxNC45MjA5MyBDMTIyLjg0MDMxLDIxNC41MjQwMzEgMTIyLjY0MTg2LDIxMi42Mzg3NiAxMjIuMDQ2NTEyLDIxMC44NTI3MTMgQzEyMC43NTY1ODksMjA3LjA4MjE3MSAxMTcuNzc5ODQ1LDIwMC45MzAyMzMgMTE3LjQ4MjE3MSwxOTUuMTc1MTk0IEMxMTcuMTg0NDk2LDE4Ny45MzE3ODMgMTE2LjM5MDY5OCwxNzUuNzI3MTMyIDEyNC4yMjk0NTcsMTc3LjIxNTUwNCBDMTMwLjU3OTg0NSwxNzguNDA2MjAyIDEzNy45MjI0ODEsMTgxLjI4MzcyMSAxNDIuNzg0NDk2LDE4My45NjI3OTEgQzE0NS44NjA0NjUsMTg1Ljc0ODgzNyAxNDcuNTQ3Mjg3LDE4Ny43MzMzMzMgMTUyLjExMTYyOCwxODguMTMwMjMzIj4mI3hhOyYjeGE7PC9wYXRoPiYjeGE7CQk8cGF0aCBzdHJva2Utd2lkdGg9IjIiIHN0cm9rZT0iI0QzMzgzMyIgZD0iTTE1Mi4xMTE2MjgsMTg4LjEzMDIzMyBDMTUyLjExMTYyOCwxODguNzI1NTgxIDE1Mi4xMTE2MjgsMTg5LjMyMDkzIDE1Mi4wMTI0MDMsMTg5LjkxNjI3OSBDMTQ5LjUzMTc4MywxOTEuNTAzODc2IDE0NS41NjI3OTEsMTkxLjUwMzg3NiAxNDIuNzg0NDk2LDE5Mi44OTMwMjMgQzE0Ni43NTM0ODgsMTkzLjA5MTQ3MyAxNDkuOTI4NjgyLDE5NC4wODM3MjEgMTUyLjcwNjk3NywxOTUuMzczNjQzIEMxNTIuNjA3NzUyLDE5Ni44NjIwMTYgMTUyLjYwNzc1MiwxOTguNDQ5NjEyIDE1Mi41MDg1MjcsMTk5LjkzNzk4NCBDMTQ3Ljk0NDE4NiwyMDMuMDEzOTUzIDE0My43NzY3NDQsMjA3LjY3NzUxOSAxMzguNDE4NjA1LDIxMC42NTQyNjQgQzEzNS44Mzg3NiwyMTIuMDQzNDExIDEyNy4wMDc3NTIsMjE1LjYxNTUwNCAxMjQuMzI4NjgyLDIxNC45MjA5MyBDMTIyLjg0MDMxLDIxNC41MjQwMzEgMTIyLjY0MTg2LDIxMi42Mzg3NiAxMjIuMDQ2NTEyLDIxMC44NTI3MTMgQzEyMC43NTY1ODksMjA3LjA4MjE3MSAxMTcuNzc5ODQ1LDIwMC45MzAyMzMgMTE3LjQ4MjE3MSwxOTUuMTc1MTk0IEMxMTcuMTg0NDk2LDE4Ny45MzE3ODMgMTE2LjM5MDY5OCwxNzUuNzI3MTMyIDEyNC4yMjk0NTcsMTc3LjIxNTUwNCBDMTMwLjU3OTg0NSwxNzguNDA2MjAyIDEzNy45MjI0ODEsMTgxLjI4MzcyMSAxNDIuNzg0NDk2LDE4My45NjI3OTEgQzE0NS44NjA0NjUsMTg1Ljc0ODgzNyAxNDcuNTQ3Mjg3LDE4Ny43MzMzMzMgMTUyLjExMTYyOCwxODguMTMwMjMzIEwxNTIuMTExNjI4LDE4OC4xMzAyMzMgWiI+JiN4YTsmI3hhOzwvcGF0aD4mI3hhOwkJPHBhdGggZmlsbD0iI0QzMzgzMyIgZD0iTTE1Ni41NzY3NDQsMTk2Ljc2Mjc5MSBDMTU1Ljg4MjE3MSwxOTIuNzkzNzk4IDE1NS4wODgzNzIsMTkxLjcwMjMyNiAxNTUuMzg2MDQ3LDE4OC4yMjk0NTcgQzE2Ni4wMDMxMDEsMTgxLjE4NDQ5NiAxNjcuODg4MzcyLDIwMC4zMzQ4ODQgMTU2LjU3Njc0NCwxOTYuNzYyNzkxIj4mI3hhOyYjeGE7PC9wYXRoPiYjeGE7CQk8cGF0aCBzdHJva2Utd2lkdGg9IjIiIHN0cm9rZT0iI0QzMzgzMyIgZD0iTTE1Ni41NzY3NDQsMTk2Ljc2Mjc5MSBDMTU1Ljg4MjE3MSwxOTIuNzkzNzk4IDE1NS4wODgzNzIsMTkxLjcwMjMyNiAxNTUuMzg2MDQ3LDE4OC4yMjk0NTcgQzE2Ni4wMDMxMDEsMTgxLjE4NDQ5NiAxNjcuODg4MzcyLDIwMC4zMzQ4ODQgMTU2LjU3Njc0NCwxOTYuNzYyNzkxIEwxNTYuNTc2NzQ0LDE5Ni43NjI3OTEgWiI+JiN4YTsmI3hhOzwvcGF0aD4mI3hhOwkJPHBhdGggZmlsbD0iI0VGM0QzQSIgZD0iTTE3MS44NTczNjQsMTk5LjkzNzk4NCBDMTcxLjg1NzM2NCwxOTkuOTM3OTg0IDE2OC41ODI5NDYsMTk1LjI3NDQxOSAxNzAuOTY0MzQxLDE5My44ODUyNzEgQzE3My4zNDU3MzYsMTkyLjQ5NjEyNCAxNzUuNjI3OTA3LDE5My44ODUyNzEgMTc3LjAxNzA1NCwxOTEuNTAzODc2IEMxNzguNDA2MjAyLDE4OS4xMjI0ODEgMTc3LjAxNzA1NCwxODcuNzMzMzMzIDE3Ny41MTMxNzgsMTg0Ljk1NTAzOSBDMTc4LjAwOTMwMiwxODIuMTc2NzQ0IDE4MC4yOTE0NzMsMTgxLjY4MDYyIDE4Mi42NzI4NjgsMTgxLjE4NDQ5NiBDMTg1LjA1NDI2NCwxODAuNjg4MzcyIDE5MS42MDMxMDEsMTc5Ljc5NTM0OSAxOTIuNDk2MTI0LDE4Mi4wNzc1MTkgTDE4OS43MTc4MjksMTczLjY0MzQxMSBMMTg0LjA2MjAxNiwxNzEuNzU4MTQgTDE2Ni4zMDA3NzUsMTgyLjA3NzUxOSBMMTY1LjQwNzc1MiwxODcuMjM3MjA5IEwxNjUuNDA3NzUyLDE5Ny41NTY1ODkiPiYjeGE7JiN4YTs8L3BhdGg+JiN4YTsJCTxwYXRoIGZpbGw9IiNFRjNEM0EiIGQ9Ik0xMjIuNjQxODYsMjE1LjQxNzA1NCBDMTIyLjA0NjUxMiwyMDguMDc0NDE5IDEyMS40NTExNjMsMjAwLjgzMTAwOCAxMjAuODU1ODE0LDE5My40ODgzNzIgQzExOS44NjM1NjYsMTgyLjU3MzY0MyAxMjMuNDM1NjU5LDE4NC40NTg5MTUgMTMyLjk2MTI0LDE4NC40NTg5MTUgQzEzNC40NDk2MTIsMTg0LjQ1ODkxNSAxNDEuODkxNDczLDE4Ni4xNDU3MzYgMTQyLjM4NzU5NywxODcuMjM3MjA5IEMxNDQuOTY3NDQyLDE5Mi40OTYxMjQgMTM4LjEyMDkzLDE5MS4zMDU0MjYgMTQ1LjM2NDM0MSwxOTUuMjc0NDE5IEMxNTEuNDE3MDU0LDE5OC41NDg4MzcgMTYyLjIzMjU1OCwxOTMuMjg5OTIyIDE1OS43NTE5MzgsMTg1Ljg0ODA2MiBDMTU4LjM2Mjc5MSwxODQuMTYxMjQgMTUyLjYwNzc1MiwxODUuMzUxOTM4IDE1MC41MjQwMzEsMTg0LjI2MDQ2NSBDMTQ2Ljg1MjcxMywxODIuMzc1MTk0IDE0My4xODEzOTUsMTgwLjQ4OTkyMiAxMzkuNTEwMDc4LDE3OC42MDQ2NTEgQzEzNC44NDY1MTIsMTc2LjIyMzI1NiAxMjQuMTMwMjMzLDE3Mi42NTExNjMgMTE5LjE2ODk5MiwxNzYuMDI0ODA2IEMxMDYuNTY3NDQyLDE4NC41NTgxNCAxMTkuOTYyNzkxLDIwNS45OTA2OTggMTI0LjQyNzkwNywyMTQuOTIwOTMiPiYjeGE7JiN4YTs8L3BhdGg+JiN4YTsJCTxwYXRoIGZpbGw9IiMyMzFGMjAiIGQ9Ik0xMzUuMDQ0OTYxLDQ5LjQxMzk1MzUgQzEyMi4yNDQ5NjEsNDYuNDM3MjA5MyAxMTUuODk0NTc0LDU0Ljc3MjA5MyAxMTIuMDI0ODA2LDYzLjQwNDY1MTIgQzEwOC41NTE5MzgsNjIuNjEwODUyNyAxMDkuOTQxMDg1LDU3Ljg0ODA2MiAxMTAuODM0MTA5LDU1LjQ2NjY2NjcgQzExMy4xMTYyNzksNDkuMjE1NTAzOSAxMjIuMzQ0MTg2LDQwLjc4MTM5NTMgMTI5Ljg4NTI3MSw0MS45NzIwOTMgQzEzMy4wNjA0NjUsNDIuMzY4OTkyMiAxMzcuNDI2MzU3LDQ1LjM0NTczNjQgMTM1LjA0NDk2MSw0OS40MTM5NTM1Ij4mI3hhOyYjeGE7PC9wYXRoPiYjeGE7CQk8cGF0aCBmaWxsPSIjMjMxRjIwIiBkPSJNMTk3LjI1ODkxNSw2My45MDA3NzUyIEwxOTcuODU0MjY0LDYzLjkwMDc3NTIgQzIwMC43MzE3ODMsNjkuODU0MjYzNiAyMDMuMjEyNDAzLDc2LjIwNDY1MTIgMjA2Ljg4MzcyMSw4MS41NjI3OTA3IEMyMDQuNDAzMTAxLDg3LjMxNzgyOTUgMTg4LjQyNzkwNyw5Mi4yNzkwNjk4IDE4OC42MjYzNTcsODIuMTU4MTM5NSBDMTkyLjA5OTIyNSw4MC42Njk3Njc0IDE5OC4wNTI3MTMsODEuODYwNDY1MSAyMDEuMTI4NjgyLDc5Ljg3NTk2OSBDMTk5LjM0MjYzNiw3NS4wMTM5NTM1IDE5Ni44NjIwMTYsNzAuODQ2NTExNiAxOTcuMjU4OTE1LDYzLjkwMDc3NTIiPiYjeGE7JiN4YTs8L3BhdGg+JiN4YTsJCTxwYXRoIGZpbGw9IiMyMzFGMjAiIGQ9Ik0xNDEuNDk0NTc0LDY0LjA5OTIyNDggQzE0NC4yNzI4NjgsNjkuMTU5Njg5OSAxNDUuMTY1ODkxLDc0LjQxODYwNDcgMTQ5LjAzNTY1OSw3OC4xODkxNDczIEMxNTAuODIxNzA1LDc5Ljg3NTk2OSAxNTQuMTk1MzQ5LDgxLjk1OTY4OTkgMTUyLjUwODUyNyw4Ni43MjI0ODA2IEMxNTIuMTExNjI4LDg3LjgxMzk1MzUgMTQ5LjIzNDEwOSw5MC4yOTQ1NzM2IDE0Ny41NDcyODcsOTAuNzkwNjk3NyBDMTQxLjQ5NDU3NCw5Mi41NzY3NDQyIDEyNy4zMDU0MjYsOTEuMTg3NTk2OSAxMzIuMDY4MjE3LDgzLjU0NzI4NjggQzEzNy4xMjg2ODIsODMuNzQ1NzM2NCAxNDMuODc1OTY5LDg2LjgyMTcwNTQgMTQ3LjY0NjUxMiw4My4xNTAzODc2IEMxNDQuNzY4OTkyLDc4LjU4NjA0NjUgMTM5LjYwOTMwMiw2OS40NTczNjQzIDE0MS40OTQ1NzQsNjQuMDk5MjI0OCI+JiN4YTsmI3hhOzwvcGF0aD4mI3hhOwkJPHBhdGggZmlsbD0iIzIzMUYyMCIgZD0iTTE5NC45NzY3NDQsMTE1LjEwMDc3NSBDMTg1Ljg0ODA2MiwxMjAuOTU1MDM5IDE3NS42Mjc5MDcsMTI3LjQwNDY1MSAxNjAuNTQ1NzM2LDEyNS45MTYyNzkgQzE1Ny4zNzA1NDMsMTIzLjEzNzk4NCAxNTYuMDgwNjIsMTE2Ljg4NjgyMiAxNTkuMjU1ODE0LDExMi44MTg2MDUgQzE2MC44NDM0MTEsMTE1LjU5Njg5OSAxNTkuODUxMTYzLDEyMC43NTY1ODkgMTY0LjQxNTUwNCwxMjEuNTUwMzg4IEMxNzIuOTQ4ODM3LDEyMy4wMzg3NiAxODIuODcxMzE4LDExNi4yOTE0NzMgMTg5LjAyMzI1NiwxMTQuMDA5MzAyIEMxOTIuNzkzNzk4LDEwNy41NTk2OSAxODguNzI1NTgxLDEwNS4yNzc1MTkgMTg1LjI1MjcxMywxMDEuMTEwMDc4IEMxNzguMjA3NzUyLDkyLjY3NTk2OSAxNjguODgwNjIsODIuMTU4MTM5NSAxNjkuMTc4Mjk1LDY5LjU1NjU4OTEgQzE3Mi4wNTU4MTQsNjcuNDcyODY4MiAxNzIuMjU0MjY0LDcyLjczMTc4MjkgMTcyLjY1MTE2Myw3My42MjQ4MDYyIEMxNzYuMzIyNDgxLDgyLjE1ODEzOTUgMTg1LjU1MDM4OCw5My4xNzIwOTMgMTkyLjE5ODQ1LDEwMC41MTQ3MjkgQzE5My44ODUyNzEsMTAyLjMwMDc3NSAxOTYuNTY0MzQxLDEwNC4wODY4MjIgMTk2Ljg2MjAxNiwxMDUuMjc3NTE5IEMxOTcuNzU1MDM5LDEwOC42NTExNjMgMTk0LjU3OTg0NSwxMTIuODE4NjA1IDE5NC45NzY3NDQsMTE1LjEwMDc3NSI+JiN4YTsmI3hhOzwvcGF0aD4mI3hhOwkJPHBhdGggZmlsbD0iIzIzMUYyMCIgZD0iTTc0LjEyMDkzMDIsMTA4Ljk0ODgzNyBDNzEuMjQzNDEwOSwxMDcuMjYyMDE2IDcwLjU0ODgzNzIsMTAwLjExNzgyOSA2Ny4xNzUxOTM4LDk5LjkxOTM3OTggQzYyLjMxMzE3ODMsOTkuNjIxNzA1NCA2My4yMDYyMDE2LDEwOS4yNDY1MTIgNjMuMjA2MjAxNiwxMTQuOTAyMzI2IEM1OS45MzE3ODI5LDExMS45MjU1ODEgNTkuMzM2NDM0MSwxMDIuNTk4NDUgNjEuNzE3ODI5NSw5Ny44MzU2NTg5IEM1OC45Mzk1MzQ5LDk2LjQ0NjUxMTYgNTcuNzQ4ODM3Miw5OS4zMjQwMzEgNTYuMTYxMjQwMywxMDAuMzE2Mjc5IEM1OC4yNDQ5NjEyLDg1LjkyODY4MjIgNzcuMjk2MTI0LDkzLjY2ODIxNzEgNzQuMTIwOTMwMiwxMDguOTQ4ODM3Ij4mI3hhOyYjeGE7PC9wYXRoPiYjeGE7CQk8cGF0aCBmaWxsPSIjMjMxRjIwIiBkPSJNMjAwLjczMTc4MywxMjEuMTUzNDg4IEMxOTYuNDY1MTE2LDEyOS4yODk5MjIgMTkwLjQxMjQwMywxMzguMjIwMTU1IDE3Ny45MTAwNzgsMTM4LjUxNzgyOSBDMTc3LjYxMjQwMywxMzUuOTM3OTg0IDE3Ny40MTM5NTMsMTMxLjg2OTc2NyAxNzcuOTEwMDc4LDEzMC4yODIxNzEgQzE4Ny41MzQ4ODQsMTI5LjI4OTkyMiAxOTMuNDg4MzcyLDEyNC40Mjc5MDcgMjAwLjczMTc4MywxMjEuMTUzNDg4Ij4mI3hhOyYjeGE7PC9wYXRoPiYjeGE7CQk8cGF0aCBmaWxsPSIjMjMxRjIwIiBkPSJNMTQwLjgsMTI2LjQxMjQwMyBDMTQ4LjczNzk4NCwxMzAuNTc5ODQ1IDE2My40MjMyNTYsMTMxLjA3NTk2OSAxNzQuMzM3OTg0LDEzMC43NzgyOTUgQzE3NC45MzMzMzMsMTMzLjE1OTY5IDE3NC45MzMzMzMsMTM2LjEzNjQzNCAxNzQuOTMzMzMzLDEzOS4wMTM5NTMgQzE2MC45NDI2MzYsMTM5LjYwOTMwMiAxNDQuNDcxMzE4LDEzNi4xMzY0MzQgMTQwLjgsMTI2LjQxMjQwMyI+JiN4YTsmI3hhOzwvcGF0aD4mI3hhOwkJPHBhdGggZmlsbD0iIzIzMUYyMCIgZD0iTTEzOS4zMTE2MjgsMTM0LjE1MTkzOCBDMTQ0Ljg2ODIxNywxNDguMDQzNDExIDE2My44MjAxNTUsMTQ2LjQ1NTgxNCAxNzkuNzk1MzQ5LDE0Ni4wNTg5MTUgQzE3OS4xMDA3NzUsMTQ3Ljg0NDk2MSAxNzcuNjEyNDAzLDE1MC4wMjc5MDcgMTc1LjYyNzkwNywxNTAuNzIyNDgxIEMxNzAuNDY4MjE3LDE1Mi44MDYyMDIgMTU2LjM3ODI5NSwxNTQuMzkzNzk4IDE0OS4yMzQxMDksMTUwLjYyMzI1NiBDMTQ0Ljc2ODk5MiwxNDguMjQxODYgMTQxLjc5MjI0OCwxNDIuNzg0NDk2IDEzOS4zMTE2MjgsMTM5LjYwOTMwMiBDMTM4LjIyMDE1NSwxMzguMTIwOTMgMTMyLjI2NjY2NywxMzQuMjUxMTYzIDEzOS4zMTE2MjgsMTM0LjE1MTkzOCI+JiN4YTsmI3hhOzwvcGF0aD4mI3hhOwkJPHBhdGggZmlsbD0iIzgxQjBDNCIgZD0iTTE5NC4yODIxNzEsMjEwLjY1NDI2NCBDMTg3LjgzMjU1OCwyMjEuNzY3NDQyIDE4MS41ODEzOTUsMjMzLjE3ODI5NSAxNzMuOTQxMDg1LDI0Mi45MDIzMjYgQzE3Ny4xMTYyNzksMjMzLjQ3NTk2OSAxNzguNTA1NDI2LDIxNy42IDE3OS4wMDE1NSwyMDUuNDk0NTc0IEMxODUuNzQ4ODM3LDIwMi4zMTkzOCAxOTEuNTAzODc2LDIwNi4xODkxNDcgMTk0LjI4MjE3MSwyMTAuNjU0MjY0Ij4mI3hhOyYjeGE7PC9wYXRoPiYjeGE7CQk8cGF0aCBmaWxsPSIjMjMxRjIwIiBkPSJNMjI5LjExMDA3OCwyNTAuNTQyNjM2IEMyMjEuODY2NjY3LDI1Mi4wMzEwMDggMjE2LjgwNjIwMiwyNTkuMDc1OTY5IDIwOS42NjIwMTYsMjU4LjU3OTg0NSBDMjEzLjYzMTAwOCwyNTMuMTIyNDgxIDIyMC4zNzgyOTUsMjUwLjc0MTA4NSAyMjkuMTEwMDc4LDI1MC41NDI2MzYiPiYjeGE7JiN4YTs8L3BhdGg+JiN4YTsJCTxwYXRoIGZpbGw9IiMyMzFGMjAiIGQ9Ik0yMzIuMjg1MjcxLDI2MS44NTQyNjQgQzIyNi4zMzE3ODMsMjYyLjQ0OTYxMiAyMTkuMzg2MDQ3LDI2My40NDE4NiAyMTMuNDMyNTU4LDI2Mi45NDU3MzYgQzIxNi4zMTAwNzgsMjU4LjU3OTg0NSAyMjcuMjI0ODA2LDI2MC4xNjc0NDIgMjMyLjI4NTI3MSwyNjEuODU0MjY0Ij4mI3hhOyYjeGE7PC9wYXRoPiYjeGE7CQk8cGF0aCBmaWxsPSIjMjMxRjIwIiBkPSJNMjM0LjM2ODk5MiwyNzEuNjc3NTE5IEMyMjcuNzIwOTMsMjcxLjc3Njc0NCAyMTkuNDg1MjcxLDI3MS42Nzc1MTkgMjEzLjEzNDg4NCwyNzEuMTgxMzk1IEMyMTYuOTA1NDI2LDI2Ny4xMTMxNzggMjMwLjEwMjMyNiwyNjkuNjkzMDIzIDIzNC4zNjg5OTIsMjcxLjY3NzUxOSI+JiN4YTsmI3hhOzwvcGF0aD4mI3hhOwkJPHBhdGggZmlsbD0iI0RDRDlEOCIgZD0iTTE4MS43Nzk4NDUsMjk4LjQ2ODIxNyBDMTgyLjc3MjA5MywzMDYuODAzMTAxIDE4Ni4wNDY1MTIsMzE1LjIzNzIwOSAxODUuNjQ5NjEyLDMyNC4zNjU4OTEgQzE4MS45NzgyOTUsMzI1LjU1NjU4OSAxNzkuODk0NTc0LDMyNi42NDgwNjIgMTc0LjkzMzMzMywzMjYuNjQ4MDYyIEMxNzQuNjM1NjU5LDMxOC45MDg1MjcgMTczLjU0NDE4NiwzMDcuMDAxNTUgMTczLjg0MTg2LDI5OS41NTk2OSBDMTc2LjIyMzI1NiwyOTkuNzU4MTQgMTc5Ljc5NTM0OSwyOTcuODcyODY4IDE4MS43Nzk4NDUsMjk4LjQ2ODIxNyI+JiN4YTsmI3hhOzwvcGF0aD4mI3hhOwkJPHBhdGggZmlsbD0iI0YwRDZCNyIgZD0iTTE3MS4wNjM1NjYsMTc1LjQyOTQ1NyBDMTY3LjY4OTkyMiwxNzcuNjEyNDAzIDE2NC45MTE2MjgsMTgwLjI5MTQ3MyAxNjEuNjM3MjA5LDE4Mi42NzI4NjggQzE1NC40OTMwMjMsMTgzLjA2OTc2NyAxNTAuNjIzMjU2LDE4Mi4xNzY3NDQgMTQ1LjQ2MzU2NiwxNzguMTA4NTI3IEMxNDUuNTYyNzkxLDE3Ny44MTA4NTMgMTQ2LjA1ODkxNSwxNzcuOTEwMDc4IDE0Ni4wNTg5MTUsMTc3LjUxMzE3OCBDMTUzLjY5OTIyNSwxODAuODg2ODIyIDE2My40MjMyNTYsMTc2LjEyNDAzMSAxNzEuMDYzNTY2LDE3NS40Mjk0NTciPiYjeGE7JiN4YTs8L3BhdGg+JiN4YTsJCTxwYXRoIGZpbGw9IiM4MUIwQzQiIGQ9Ik0xMzEuMTc1MTk0LDIyNy4zMjQwMzEgQzEzMy4yNTg5MTUsMjE4LjI5NDU3NCAxNDEuNDk0NTc0LDIxMy41MzE3ODMgMTQ4LjkzNjQzNCwyMDguNTcwNTQzIEMxNTYuNTc2NzQ0LDIxOC4yOTQ1NzQgMTYxLjI0MDMxLDIzMC43OTY4OTkgMTY2LjQsMjQyLjkwMjMyNiBDMTU0LjE5NTM0OSwyMzkuMjMxMDA4IDE0MS43OTIyNDgsMjMzLjM3Njc0NCAxMzEuMTc1MTk0LDIyNy4zMjQwMzEiPiYjeGE7JiN4YTs8L3BhdGg+JiN4YTsJCTxwYXRoIGZpbGw9IiMyMzFGMjAiIGQ9Ik0xNzMuODQxODYsMjk5LjY1ODkxNSBDMTczLjU0NDE4NiwzMDcuMTAwNzc1IDE3NC41MzY0MzQsMzE4LjkwODUyNyAxNzQuOTMzMzMzLDMyNi43NDcyODcgQzE3OS44OTQ1NzQsMzI2Ljc0NzI4NyAxODEuOTc4Mjk1LDMyNS42NTU4MTQgMTg1LjY0OTYxMiwzMjQuNDY1MTE2IEMxODYuMDQ2NTEyLDMxNS4zMzY0MzQgMTgyLjc3MjA5MywzMDYuOTAyMzI2IDE4MS43Nzk4NDUsMjk4LjU2NzQ0MiBDMTc5Ljc5NTM0OSwyOTcuODcyODY4IDE3Ni4yMjMyNTYsMjk5Ljc1ODE0IDE3My44NDE4NiwyOTkuNjU4OTE1IEwxNzMuODQxODYsMjk5LjY1ODkxNSBaIE05Ny4yNDAzMTAxLDI1Ny41ODc1OTcgQzEwMC41MTQ3MjksMjg3LjQ1NDI2NCAxMDUuMTc4Mjk1LDMxMi40NTg5MTUgMTEzLjgxMDg1MywzMzguOTUxOTM4IEMxMzIuOTYxMjQsMzQ0LjgwNjIwMiAxNTUuOTgxMzk1LDM0NS4zMDIzMjYgMTcyLjk0ODgzNywzNDAuMDQzNDExIEMxNjkuODcyODY4LDMyNS4xNTk2OSAxNzEuMTYyNzkxLDMwNy4wMDE1NSAxNjkuMzc2NzQ0LDI5MS4wMjYzNTcgQzE2Ny45ODc1OTcsMjc5LjAyMDE1NSAxNjguNjgyMTcxLDI2Ny4wMTM5NTMgMTY2Ljc5Njg5OSwyNTQuODA5MzAyIEMxNDYuMjU3MzY0LDI1MC41NDI2MzYgMTE3LjI4MzcyMSwyNTMuODE3MDU0IDk3LjI0MDMxMDEsMjU3LjU4NzU5NyBMOTcuMjQwMzEwMSwyNTcuNTg3NTk3IFogTTE3MS42NTg5MTUsMjU1LjAwNzc1MiBDMTcxLjQ2MDQ2NSwyNjcuODA3NzUyIDE3Mi4yNTQyNjQsMjgwLjUwODUyNyAxNzMuMjQ2NTEyLDI5My4zMDg1MjcgQzE3OC4yMDc3NTIsMjkyLjYxMzk1MyAxODEuNDgyMTcxLDI5Mi4xMTc4MjkgMTg2LjA0NjUxMiwyOTEuMDI2MzU3IEMxODQuNTU4MTQsMjc4LjcyMjQ4MSAxODQuNzU2NTg5LDI2NC43MzE3ODMgMTgxLjY4MDYyLDI1My44MTcwNTQgQzE3OC4yMDc3NTIsMjUzLjkxNjI3OSAxNzUuMTMxNzgzLDI1My44MTcwNTQgMTcxLjY1ODkxNSwyNTUuMDA3NzUyIEwxNzEuNjU4OTE1LDI1NS4wMDc3NTIgWiBNMTk2LjU2NDM0MSwyNTIuOTI0MDMxIEMxOTQuMTgyOTQ2LDI1Mi40Mjc5MDcgMTkxLjUwMzg3NiwyNTIuOTI0MDMxIDE4OS4zMjA5MywyNTIuOTI0MDMxIEMxOTAuNDEyNDAzLDI2My4zNDI2MzYgMTkyLjg5MzAyMywyNzQuODUyNzEzIDE5My43ODYwNDcsMjg1Ljg2NjY2NyBDMTk3LjI1ODkxNSwyODUuOTY1ODkxIDE5OS4xNDQxODYsMjg0LjI3OTA3IDIwMi4wMjE3MDUsMjgzLjc4Mjk0NiBDMjAyLjIyMDE1NSwyNzQuMTU4MTQgMjAxLjIyNzkwNywyNjAuODYyMDE2IDE5Ni41NjQzNDEsMjUyLjkyNDAzMSBMMTk2LjU2NDM0MSwyNTIuOTI0MDMxIEwxOTYuNTY0MzQxLDI1Mi45MjQwMzEgWiBNMjM0LjM2ODk5MiwyODcuNDU0MjY0IEMyNDEuNzExNjI4LDI4NS42NjgyMTcgMjQ2LjI3NTk2OSwyNzYuNzM3OTg0IDI0NC4xOTIyNDgsMjY3LjUxMDA3OCBDMjQyLjgwMzEwMSwyNjEuMzU4MTQgMjQwLjQyMTcwNSwyNDkuNjQ5NjEyIDIzNy43NDI2MzYsMjQ1LjY4MDYyIEMyMzUuODU3MzY0LDI0Mi44MDMxMDEgMjMwLjU5ODQ1LDIzOC45MzMzMzMgMjI2LjMzMTc4MywyNDEuNjEyNDAzIEMyMTkuNDg1MjcxLDI0NS45NzgyOTUgMjA3LjQ3OTA3LDI0Ny4yNjgyMTcgMjAyLjUxNzgyOSwyNTIuNTI3MTMyIEMyMDQuOTk4NDUsMjYwLjg2MjAxNiAyMDUuNzkyMjQ4LDI3Mi4xNzM2NDMgMjA2Ljc4NDQ5NiwyODIuNjkxNDczIEMyMTUuMzE3ODI5LDI4My4xODc1OTcgMjI1LjczNjQzNCwyODAuMzEwMDc4IDIzMi44ODA2MiwyODMuMzg2MDQ3IEMyMjcuOTE5MzgsMjg0Ljk3MzY0MyAyMjEuNTY4OTkyLDI4NC45NzM2NDMgMjE3LjMwMjMyNiwyODcuMzU1MDM5IEMyMjAuODc0NDE5LDI4OS4wNDE4NiAyMjkuMDEwODUzLDI4OC43NDQxODYgMjM0LjM2ODk5MiwyODcuNDU0MjY0IEwyMzQuMzY4OTkyLDI4Ny40NTQyNjQgTDIzNC4zNjg5OTIsMjg3LjQ1NDI2NCBaIE0xNjYuMzAwNzc1LDI0Mi45MDIzMjYgQzE2MS4xNDEwODUsMjMwLjc5Njg5OSAxNTYuNDc3NTE5LDIxOC4yOTQ1NzQgMTQ4LjgzNzIwOSwyMDguNTcwNTQzIEMxNDEuMzk1MzQ5LDIxMy41MzE3ODMgMTMzLjI1ODkxNSwyMTguMjk0NTc0IDEzMS4wNzU5NjksMjI3LjMyNDAzMSBDMTQxLjc5MjI0OCwyMzMuMzc2NzQ0IDE1NC4xOTUzNDksMjM5LjIzMTAwOCAxNjYuMzAwNzc1LDI0Mi45MDIzMjYgTDE2Ni4zMDA3NzUsMjQyLjkwMjMyNiBaIE0xNzkuMDAxNTUsMjA1LjQ5NDU3NCBDMTc4LjUwNTQyNiwyMTcuNiAxNzcuMTE2Mjc5LDIzMy40NzU5NjkgMTczLjk0MTA4NSwyNDIuOTAyMzI2IEMxODEuNTgxMzk1LDIzMy4wNzkwNyAxODcuODMyNTU4LDIyMS43Njc0NDIgMTk0LjI4MjE3MSwyMTAuNjU0MjY0IEMxOTEuNTAzODc2LDIwNi4xODkxNDcgMTg1Ljc0ODgzNywyMDIuMzE5MzggMTc5LjAwMTU1LDIwNS40OTQ1NzQgTDE3OS4wMDE1NSwyMDUuNDk0NTc0IFogTTE2NC42MTM5NTMsMjAwLjQzNDEwOSBDMTYxLjczNjQzNCwyMDAuMTM2NDM0IDE1OS4yNTU4MTQsMjAzLjgwNzc1MiAxNTUuNDg1MjcxLDIwMi4yMjAxNTUgQzE1NC41OTIyNDgsMjAzLjIxMjQwMyAxNTMuNzk4NDUsMjA0LjIwNDY1MSAxNTIuOTA1NDI2LDIwNS4xOTY4OTkgQzE2MS4yNDAzMSwyMTUuMzE3ODI5IDE2NS4xMTAwNzgsMjI5LjYwNjIwMiAxNzEuNTU5NjksMjQxLjQxMzk1MyBDMTc1LjAzMjU1OCwyMzAuMDAzMTAxIDE3NC42MzU2NTksMjE3LjYgMTc1LjQyOTQ1NywyMDUuMTk2ODk5IEMxNzAuNjY2NjY3LDIwNS4zOTUzNDkgMTY3Ljk4NzU5NywyMDAuNzMxNzgzIDE2NC42MTM5NTMsMjAwLjQzNDEwOSBMMTY0LjYxMzk1MywyMDAuNDM0MTA5IFogTTE1NS4zODYwNDcsMTg4LjIyOTQ1NyBDMTU1LjA4ODM3MiwxOTEuNzAyMzI2IDE1NS44ODIxNzEsMTkyLjc5Mzc5OCAxNTYuNTc2NzQ0LDE5Ni43NjI3OTEgQzE2Ny44ODgzNzIsMjAwLjMzNDg4NCAxNjYuMDAzMTAxLDE4MS4xODQ0OTYgMTU1LjM4NjA0NywxODguMjI5NDU3IEwxNTUuMzg2MDQ3LDE4OC4yMjk0NTcgWiBNMTQyLjc4NDQ5NiwxODQuMDYyMDE2IEMxMzcuOTIyNDgxLDE4MS4zODI5NDYgMTMwLjU3OTg0NSwxNzguNTA1NDI2IDEyNC4yMjk0NTcsMTc3LjMxNDcyOSBDMTE2LjM5MDY5OCwxNzUuODI2MzU3IDExNy4xODQ0OTYsMTg4LjAzMTAwOCAxMTcuNDgyMTcxLDE5NS4yNzQ0MTkgQzExNy43Nzk4NDUsMjAxLjAyOTQ1NyAxMjAuNzU2NTg5LDIwNy4wODIxNzEgMTIyLjA0NjUxMiwyMTAuOTUxOTM4IEMxMjIuNjQxODYsMjEyLjczNzk4NCAxMjIuODQwMzEsMjE0LjYyMzI1NiAxMjQuMzI4NjgyLDIxNS4wMjAxNTUgQzEyNy4wMDc3NTIsMjE1LjYxNTUwNCAxMzUuOTM3OTg0LDIxMi4xNDI2MzYgMTM4LjQxODYwNSwyMTAuNzUzNDg4IEMxNDMuNzc2NzQ0LDIwNy44NzU5NjkgMTQ3Ljk0NDE4NiwyMDMuMjEyNDAzIDE1Mi41MDg1MjcsMjAwLjAzNzIwOSBDMTUyLjYwNzc1MiwxOTguNTQ4ODM3IDE1Mi42MDc3NTIsMTk2Ljk2MTI0IDE1Mi43MDY5NzcsMTk1LjQ3Mjg2OCBDMTQ5LjkyODY4MiwxOTQuMDgzNzIxIDE0Ni44NTI3MTMsMTkzLjE5MDY5OCAxNDIuNzg0NDk2LDE5Mi45OTIyNDggQzE0NS40NjM1NjYsMTkxLjYwMzEwMSAxNDkuNTMxNzgzLDE5MS42MDMxMDEgMTUyLjAxMjQwMywxOTAuMDE1NTA0IEMxNTIuMDEyNDAzLDE4OS40MjAxNTUgMTUyLjAxMjQwMywxODguODI0ODA2IDE1Mi4xMTE2MjgsMTg4LjIyOTQ1NyBDMTQ3LjU0NzI4NywxODcuNzMzMzMzIDE0NS44NjA0NjUsMTg1Ljc0ODgzNyAxNDIuNzg0NDk2LDE4NC4wNjIwMTYgTDE0Mi43ODQ0OTYsMTg0LjA2MjAxNiBaIE05Ni4xNDg4MzcyLDE3NS42Mjc5MDcgQzkyLjA4MDYyMDIsMTc5Ljc5NTM0OSAxMDcuNTU5NjksMTg1LjM1MTkzOCAxMTIuNDIxNzA1LDE4NS42NDk2MTIgQzExMi40MjE3MDUsMTgzLjA2OTc2NyAxMTMuOTEwMDc4LDE4MC41ODkxNDcgMTEzLjYxMjQwMywxNzguNzAzODc2IEMxMDcuNzU4MTQsMTc3LjcxMTYyOCAxMDAuMTE3ODI5LDE3OC40MDYyMDIgOTYuMTQ4ODM3MiwxNzUuNjI3OTA3IEw5Ni4xNDg4MzcyLDE3NS42Mjc5MDcgWiBNMTQ2LjE1ODE0LDE3Ny41MTMxNzggQzE0Ni4xNTgxNCwxNzcuOTEwMDc4IDE0NS42NjIwMTYsMTc3LjgxMDg1MyAxNDUuNTYyNzkxLDE3OC4xMDg1MjcgQzE1MC44MjE3MDUsMTgyLjE3Njc0NCAxNTQuNjkxNDczLDE4My4wNjk3NjcgMTYxLjczNjQzNCwxODIuNjcyODY4IEMxNjQuOTExNjI4LDE4MC4zOTA2OTggMTY3Ljc4OTE0NywxNzcuNjEyNDAzIDE3MS4xNjI3OTEsMTc1LjQyOTQ1NyBDMTYzLjQyMzI1NiwxNzYuMTI0MDMxIDE1My42OTkyMjUsMTgwLjg4NjgyMiAxNDYuMTU4MTQsMTc3LjUxMzE3OCBMMTQ2LjE1ODE0LDE3Ny41MTMxNzggWiBNMTkyLDE5MS40MDQ2NTEgQzE5MS44MDE1NSwxODYuODQwMzEgMTkwLjYxMDg1MywxNzcuNDEzOTUzIDE4Ny43MzMzMzMsMTc1LjcyNzEzMiBDMTgxLjc3OTg0NSwxNzIuMjU0MjY0IDE3MS4yNjIwMTYsMTgyLjc3MjA5MyAxNjYuNzk2ODk5LDE4NC4zNTk2OSBDMTY3LjI5MzAyMywxODUuNzQ4ODM3IDE2OC4wODY4MjIsMTg2Ljg0MDMxIDE2OC4xODYwNDcsMTg4LjYyNjM1NyBDMTcwLjg2NTExNiwxODcuOTMxNzgzIDE3NC4wNDAzMSwxODguNDI3OTA3IDE3Ni4zMjI0ODEsMTg5LjUxOTM4IEMxNzMuNjQzNDExLDE4OS44MTcwNTQgMTcwLjc2NTg5MSwxODkuODE3MDU0IDE2OC45Nzk4NDUsMTkxLjEwNjk3NyBDMTY4LjM4NDQ5NiwxOTIuOTkyMjQ4IDE2OS4xNzgyOTUsMTk1LjQ3Mjg2OCAxNjguNjgyMTcxLDE5OC4wNTI3MTMgQzE3NC45MzMzMzMsMTk5LjgzODc2IDE4Mi4xNzY3NDQsMjAwLjczMTc4MyAxOTAuMTE0NzI5LDIwMS4wMjk0NTcgQzE5MS42MDMxMDEsMTk5LjA0NDk2MSAxOTIuMTk4NDUsMTk1LjI3NDQxOSAxOTIsMTkxLjQwNDY1MSBMMTkyLDE5MS40MDQ2NTEgWiBNODkuMzAyMzI1NiwxNzkuNTk2ODk5IEM4OC4wMTI0MDMxLDE3OC43MDM4NzYgNzkuMzc5ODQ1LDE2Ny40OTE0NzMgNzguMTg5MTQ3MywxNjcuOTg3NTk3IEM2Mi42MTA4NTI3LDE3NC4xMzk1MzUgNDguMDI0ODA2MiwxODQuNzU2NTg5IDM1LjAyNjM1NjYsMTk0Ljg3NzUxOSBDNDcuNDI5NDU3NCwyMjEuNTY4OTkyIDUyLjQ4OTkyMjUsMjU0LjIxMzk1MyA1My4zODI5NDU3LDI4NS42NjgyMTcgQzY3LjU3MjA5MywyOTIuMzE2Mjc5IDgwLjA3NDQxODYsMzAxLjk0MTA4NSA5OS40MjMyNTU4LDMwMi45MzMzMzMgQzk3LjE0MTA4NTMsMjg3LjE1NjU4OSA5NS4xNTY1ODkxLDI3Mi45Njc0NDIgOTMuODY2NjY2NywyNTguMDgzNzIxIEM4OS4wMDQ2NTEyLDI1NiA4Mi4wNTg5MTQ3LDI1OC4xODI5NDYgNzcuNDk0NTczNiwyNTcuNDg4MzcyIEM3Ny40OTQ1NzM2LDI1Mi4wMzEwMDggODQuNDQwMzEwMSwyNTUuMTA2OTc3IDg1LjAzNTY1ODksMjUxLjQzNTY1OSBDODUuNDMyNTU4MSwyNDguNjU3MzY0IDgxLjE2NTg5MTUsMjQ4LjQ1ODkxNSA4Mi41NTUwMzg4LDI0NC4wOTMwMjMgQzg2LjEyNzEzMTgsMjQ1LjM4Mjk0NiA4OC4wMTI0MDMxLDI0OC4yNjA0NjUgOTEuNzgyOTQ1NywyNDkuMzUxOTM4IEM5NS4yNTU4MTQsMjQxLjgxMDg1MyA5MS43ODI5NDU3LDIyOC40MTU1MDQgOTIuMjc5MDY5OCwyMjIuMDY1MTE2IEM5Mi4zNzgyOTQ2LDIyMC44NzQ0MTkgOTIuODc0NDE4NiwyMTUuNTE2Mjc5IDk1LjU1MzQ4ODQsMjE2LjQwOTMwMiBDOTcuOTM0ODgzNywyMTcuMjAzMTAxIDk1LjQ1NDI2MzYsMjMwLjc5Njg5OSA5NS42NTI3MTMyLDIzNi43NTAzODggQzk1Ljg1MTE2MjgsMjQyLjMwNjk3NyA5NC45NTgxMzk1LDI0Ny41NjU4OTEgOTcuMjQwMzEwMSwyNTEuMDM4NzYgQzExNS44OTQ1NzQsMjQ4LjQ1ODkxNSAxMzQuODQ2NTEyLDI0Ni44NzEzMTggMTU1LjA4ODM3MiwyNDYuMjc1OTY5IEMxNTAuNjIzMjU2LDI0NC4zOTA2OTggMTQ1LjM2NDM0MSwyNDIuNjA0NjUxIDEzOS42MDkzMDIsMjM5LjMzMDIzMyBDMTM2LjQzNDEwOSwyMzcuNTQ0MTg2IDEyNi42MTA4NTMsMjMzLjg3Mjg2OCAxMjUuNzE3ODI5LDIzMC44OTYxMjQgQzEyNC4yMjk0NTcsMjI2LjEzMzMzMyAxMjkuNDg4MzcyLDIyMy42NTI3MTMgMTMwLjM4MTM5NSwyMTkuNTg0NDk2IEMxMjAuOTU1MDM5LDIyNC43NDQxODYgMTE5LjE2ODk5MiwyMTQuNjIzMjU2IDExNi44ODY4MjIsMjA3LjU3ODI5NSBDMTE0LjkwMjMyNiwyMDEuMTI4NjgyIDExMy43MTE2MjgsMTk2LjI2NjY2NyAxMTMuMjE1NTA0LDE5Mi41OTUzNDkgQzEwNC45Nzk4NDUsMTg4LjQyNzkwNyA5Ni4yNDgwNjIsMTg0LjU1ODE0IDg5LjMwMjMyNTYsMTc5LjU5Njg5OSBMODkuMzAyMzI1NiwxNzkuNTk2ODk5IEw4OS4zMDIzMjU2LDE3OS41OTY4OTkgWiBNMTgzLjc2NDM0MSwxNjkuMjc3NTE5IEMxOTYuNzYyNzkxLDE2My4wMjYzNTcgMTk5LjE0NDE4NiwxOTIuNzkzNzk4IDE5My45ODQ0OTYsMjAyLjQxODYwNSBDMTk0Ljc3ODI5NSwyMDUuMjk2MTI0IDE5Ny40NTczNjQsMjA2LjM4NzU5NyAxOTguNTQ4ODM3LDIwOC45Njc0NDIgQzE5MS4zMDU0MjYsMjIxLjk2NTg5MSAxODMuMjY4MjE3LDIzNC4wNzEzMTggMTc1LjgyNjM1NywyNDYuODcxMzE4IEMxODEuMjgzNzIxLDI0My4zOTg0NSAxODkuMjIxNzA1LDI0Ni4yNzU5NjkgMTk1LjY3MTMxOCwyNDMuNjk2MTI0IEMxOTguMDUyNzEzLDI0Mi44MDMxMDEgMTk5LjczOTUzNSwyMzcuMzQ1NzM2IDIwMS41MjU1ODEsMjMyLjk3OTg0NSBDMjA2LjQ4NjgyMiwyMjEuMDcyODY4IDIxMS42NDY1MTIsMjA1Ljk5MDY5OCAyMTMuOTI4NjgyLDE5NC42NzkwNyBDMjE0LjQyNDgwNiwxOTIuMDk5MjI1IDIxNS45MTMxNzgsMTg2LjQ0MzQxMSAyMTUuNTE2Mjc5LDE4NC4xNjEyNCBDMjE0LjkyMDkzLDE3OS45OTM3OTggMjA5LjM2NDM0MSwxNzYuOTE3ODI5IDIwNi40ODY4MjIsMTc0LjQzNzIwOSBDMjAxLjIyNzkwNywxNjkuNjc0NDE5IDE5Ny45NTM0ODgsMTY1LjYwNjIwMiAxOTIuMzk2ODk5LDE2MS4xNDEwODUgQzE5MC4zMTMxNzgsMTY0LjQxNTUwNCAxODUuNTUwMzg4LDE2Ni41OTg0NSAxODMuNzY0MzQxLDE2OS4yNzc1MTkgTDE4My43NjQzNDEsMTY5LjI3NzUxOSBMMTgzLjc2NDM0MSwxNjkuMjc3NTE5IFogTTU5LjYzNDEwODUsNTQuMDc3NTE5NCBDNTMuNDgyMTcwNSw2MC45MjQwMzEgNTQuNzcyMDkzLDczLjYyNDgwNjIgNTUuNDY2NjY2Nyw4Mi43NTM0ODg0IEM2Ni42NzkwNjk4LDc1LjcwODUyNzEgODEuNDYzNTY1OSw4My4zNDg4MzcyIDgxLjM2NDM0MTEsOTUuMjU1ODE0IEM4Ni43MjI0ODA2LDk1LjE1NjU4OTEgODMuMzQ4ODM3Miw4OC42MDc3NTE5IDgyLjM1NjU4OTEsODQuMzQxMDg1MyBDNzkuMTgxMzk1Myw3MC41NDg4MzcyIDg3LjcxNDcyODcsNTUuNjY1MTE2MyA4Mi43NTM0ODg0LDQzLjA2MzU2NTkgQzczLjEyODY4MjIsNDMuODU3MzY0MyA2NS4yODk5MjI1LDQ3LjcyNzEzMTggNTkuNjM0MTA4NSw1NC4wNzc1MTk0IEw1OS42MzQxMDg1LDU0LjA3NzUxOTQgTDU5LjYzNDEwODUsNTQuMDc3NTE5NCBaIE0xMDMuODg4MzcyLDE0LjQ4NjgyMTcgQzg5Ljg5NzY3NDQsMTguNDU1ODE0IDcxLjkzNzk4NDUsMjguNjc1OTY5IDY2LjE4Mjk0NTcsNDEuMjc3NTE5NCBDNzAuNjQ4MDYyLDQwLjU4Mjk0NTcgNzMuNzI0MDMxLDM4LjQgNzguMDg5OTIyNSwzOC4xMDIzMjU2IEM3OS43NzY3NDQyLDM4LjAwMzEwMDggODEuOTU5Njg5OSwzOC43OTY4OTkyIDgzLjg0NDk2MTIsMzguMzAwNzc1MiBDODcuNjE1NTAzOSwzNy4zMDg1MjcxIDkwLjg4OTkyMjUsMjguNzc1MTkzOCA5My43Njc0NDE5LDI1LjYgQzk2LjU0NTczNjQsMjIuNTI0MDMxIDk5LjkxOTM3OTgsMjEuMTM0ODgzNyAxMDIuMjAxNTUsMTguMzU2NTg5MSBDMTAzLjY4OTkyMiwxNy42NjIwMTU1IDEwNS44NzI4NjgsMTcuNjYyMDE1NSAxMDUuOTcyMDkzLDE1LjQ3OTA2OTggQzEwNS4zNzY3NDQsMTQuNzg0NDk2MSAxMDQuNjgyMTcxLDE0LjI4ODM3MjEgMTAzLjg4ODM3MiwxNC40ODY4MjE3IEwxMDMuODg4MzcyLDE0LjQ4NjgyMTcgWiBNMTc2LjgxODYwNSwxOC4yNTczNjQzIEMxNjIuMjMyNTU4LDEwLjAyMTcwNTQgMTM3LjYyNDgwNiwzLjg2OTc2NzQ0IDEyMi4xNDU3MzYsMTEuNjA5MzAyMyBDMTA5LjY0MzQxMSwxNy44NjA0NjUxIDkyLjc3NTE5MzgsMjguMTc5ODQ1IDg3LjAyMDE1NSw0MS4xNzgyOTQ2IEM5Mi4zNzgyOTQ2LDUzLjc3OTg0NSA4NS40MzI1NTgxLDY1LjI4OTkyMjUgODQuOTM2NDM0MSw3OC4wODk5MjI1IEM4NC43Mzc5ODQ1LDg0LjkzNjQzNDEgODguMTExNjI3OSw5MC43OTA2OTc3IDg4LjQwOTMwMjMsOTguMjMyNTU4MSBDODYuNTI0MDMxLDEwMS4zMDg1MjcgODAuOTY3NDQxOSwxMDEuNjA2MjAyIDc3LjA5NzY3NDQsMTAxLjQwNzc1MiBDNzUuODA3NzUxOSw5NC44NTg5MTQ3IDczLjUyNTU4MTQsODcuNTE2Mjc5MSA2Ni43NzgyOTQ2LDg2LjcyMjQ4MDYgQzU3LjI1MjcxMzIsODUuNjMxMDA3OCA1MC4yMDc3NTE5LDkzLjU2ODk5MjIgNDkuODEwODUyNywxMDEuODA0NjUxIEM0OS4zMTQ3Mjg3LDExMS41Mjg2ODIgNTcuMjUyNzEzMiwxMjcuNjAzMTAxIDY4LjU2NDM0MTEsMTI2LjUxMTYyOCBDNzIuOTMwMjMyNiwxMjYuMTE0NzI5IDc0LjAyMTcwNTQsMTIxLjc0ODgzNyA3OC43ODQ0OTYxLDEyMS43NDg4MzcgQzgxLjM2NDM0MTEsMTI2LjkwODUyNyA3NC44MTU1MDM5LDEyOC40OTYxMjQgNzQuMTIwOTMwMiwxMzIuMTY3NDQyIEM3My45MjI0ODA2LDEzMy4xNTk2OSA3NC42MTcwNTQzLDEzNi44MzEwMDggNzUuMTEzMTc4MywxMzguNjE3MDU0IEM3Ny4xOTY4OTkyLDE0Ny4wNTExNjMgODEuNzYxMjQwMywxNTguMDY1MTE2IDg2LjIyNjM1NjYsMTY0LjUxNDcyOSBDOTEuOTgxMzk1MywxNzIuNzUwMzg4IDEwMy4xOTM3OTgsMTczLjk0MTA4NSAxMTUuMjk5MjI1LDE3NC43MzQ4ODQgQzExNy40ODIxNzEsMTcwLjA3MTMxOCAxMjUuNDIwMTU1LDE3MC40NjgyMTcgMTMwLjU3OTg0NSwxNzEuNjU4OTE1IEMxMjQuMzI4NjgyLDE2OS4xNzgyOTUgMTE4LjU3MzY0MywxNjMuMjI0ODA2IDExMy44MTA4NTMsMTU3Ljk2NTg5MSBDMTA4LjM1MzQ4OCwxNTEuOTEzMTc4IDEwMi43OTY4OTksMTQ1LjQ2MzU2NiAxMDIuNDk5MjI1LDEzNy41MjU1ODEgQzExMi45MTc4MjksMTUxLjkxMzE3OCAxMjEuNDUxMTYzLDE2NC41MTQ3MjkgMTQwLjMwMzg3NiwxNzAuODY1MTE2IEMxNTQuNTkyMjQ4LDE3NS42Mjc5MDcgMTcxLjI2MjAxNiwxNjguNjgyMTcxIDE4Mi4yNzU5NjksMTYwLjk0MjYzNiBDMTg2Ljg0MDMxLDE1Ny43Njc0NDIgMTg5LjUxOTM4LDE1Mi42MDc3NTIgMTkyLjc5Mzc5OCwxNDguMDQzNDExIEMyMDQuODk5MjI1LDEzMC41Nzk4NDUgMjEwLjU1NTAzOSwxMDUuNzczNjQzIDIwOS4zNjQzNDEsODEuNjYyMDE1NSBDMjA4Ljg2ODIxNyw3MS43Mzk1MzQ5IDIwOC44NjgyMTcsNjEuODE3MDU0MyAyMDUuNDk0NTc0LDU1LjE2ODk5MjIgQzIwMi4wMjE3MDUsNDguMjIzMjU1OCAxOTAuMjEzOTUzLDQxLjg3Mjg2ODIgMTgzLjI2ODIxNyw0OC4yMjMyNTU4IEMxODEuOTc4Mjk1LDQxLjM3Njc0NDIgMTg5LjAyMzI1NiwzNy4yMDkzMDIzIDE5Ny4yNTg5MTUsMzkuNjg5OTIyNSBDMTkxLjQwNDY1MSwzMi4wNDk2MTI0IDE4NS4yNTI3MTMsMjMuMDIwMTU1IDE3Ni44MTg2MDUsMTguMjU3MzY0MyBMMTc2LjgxODYwNSwxOC4yNTczNjQzIEwxNzYuODE4NjA1LDE4LjI1NzM2NDMgWiBNMjA0LjAwNjIwMiwyNDIuNjA0NjUxIEMyMTUuNDE3MDU0LDIzNi45NDg4MzcgMjM2LjY1MTE2MywyMjcuNDIzMjU2IDI0My42OTYxMjQsMjQyLjYwNDY1MSBDMjQ2LjM3NTE5NCwyNDguMjYwNDY1IDI0OS40NTExNjMsMjU3LjY4NjgyMiAyNTAuNzQxMDg1LDI2My41NDEwODUgQzI1Mi42MjYzNTcsMjcxLjY3NzUxOSAyNDguNjU3MzY0LDI4OC45NDI2MzYgMjQwLjIyMzI1NiwyOTEuNjIxNzA1IEMyMzIuNzgxMzk1LDI5NC4wMDMxMDEgMjI0LjE0ODgzNywyOTMuOTAzODc2IDIxNS4yMTg2MDUsMjkyLjExNzgyOSBDMjE0LjEyNzEzMiwyOTEuMjI0ODA2IDIxMy4wMzU2NTksMjg5LjczNjQzNCAyMTIuMTQyNjM2LDI4OC4xNDg4MzcgQzIwNS43OTIyNDgsMjg3Ljk1MDM4OCAxOTkuNzM5NTM1LDI4OC40NDY1MTIgMTk0Ljc3ODI5NSwyOTEuMTI1NTgxIEMxOTUuMjc0NDE5LDI5NS44ODgzNzIgMTkyLjA5OTIyNSwyOTYuNTgyOTQ2IDE4OS4wMjMyNTYsMjk3LjU3NTE5NCBDMTg2Ljg0MDMxLDMwNi40MDYyMDIgMTkzLjQ4ODM3MiwzMTcuOTE2Mjc5IDE5MS45MDA3NzUsMzI1Ljg1NDI2NCBDMTkwLjgwOTMwMiwzMzEuNjA5MzAyIDE4My43NjQzNDEsMzMyLjUwMjMyNiAxNzguNjA0NjUxLDMzMy40OTQ1NzQgQzE3OC40MDYyMDIsMzM2LjY2OTc2NyAxNzguODAzMTAxLDMzOS4zNDg4MzcgMTc5LjIsMzQyLjAyNzkwNyBDMTc4LjAwOTMwMiwzNDYuMzkzNzk4IDE3Mi43NTAzODgsMzQ4Ljg3NDQxOSAxNjcuNjg5OTIyLDM0OS40Njk3NjcgQzE1MS4xMTkzOCwzNTEuNDU0MjY0IDEyNi4wMTU1MDQsMzUyLjM0NzI4NyAxMTAuMTM5NTM1LDM0Ni41OTIyNDggQzEwNS42NzQ0MTksMzM1LjY3NzUxOSAxMDIuMjAxNTUsMzIyLjQ4MDYyIDk4LjUzMDIzMjYsMzEwLjA3NzUxOSBDODMuMDUxMTYyOCwzMTEuNzY0MzQxIDcwLjQ0OTYxMjQsMzAzLjQyOTQ1NyA1OC42NDE4NjA1LDI5Ny44NzI4NjggQzU0LjU3MzY0MzQsMjk1Ljk4NzU5NyA0OC45MTc4Mjk1LDI5NC44OTYxMjQgNDcuMzMwMjMyNiwyOTEuNjIxNzA1IEM0NS44NDE4NjA1LDI4OC40NDY1MTIgNDYuNDM3MjA5MywyODIuMzkzNzk4IDQ2LjA0MDMxMDEsMjc2LjczNzk4NCBDNDUuMTQ3Mjg2OCwyNjIuMTUxOTM4IDQ0LjI1NDI2MzYsMjQ4LjA2MjAxNiA0MC40ODM3MjA5LDIzMy4xNzgyOTUgQzM4Ljc5Njg5OTIsMjI2LjQzMTAwOCAzNS43MjA5MzAyLDIyMC41NzY3NDQgMzMuNjM3MjA5MywyMTQuMTI3MTMyIEMzMS42NTI3MTMyLDIwOC4xNzM2NDMgMjguMjc5MDY5OCwyMDAuNzMxNzgzIDI3LjM4NjA0NjUsMTk0Ljc3ODI5NSBDMjYuMDk2MTI0LDE4NS45NDcyODcgMzQuNDMxMDA3OCwxODUuNDUxMTYzIDM5LjY4OTkyMjUsMTgxLjU4MTM5NSBDNDcuOTI1NTgxNCwxNzUuNjI3OTA3IDU0LjM3NTE5MzgsMTcyLjM1MzQ4OCA2My4zMDU0MjY0LDE2Ni45OTUzNDkgQzY1Ljk4NDQ5NjEsMTY1LjQwNzc1MiA3My45MjI0ODA2LDE2MS40Mzg3NiA3NC44MTU1MDM5LDE1OS41NTM0ODggQzc2LjYwMTU1MDQsMTU1Ljg4MjE3MSA3MS43Mzk1MzQ5LDE1MC43MjI0ODEgNzAuNDQ5NjEyNCwxNDcuODQ0OTYxIEM2OC4zNjU4OTE1LDE0My4yODA2MiA2Ny4yNzQ0MTg2LDEzOS40MTA4NTMgNjYuOTc2NzQ0MiwxMzQuOTQ1NzM2IEM1OS41MzQ4ODM3LDEzMy43NTUwMzkgNTMuNzc5ODQ1LDEyOS4yODk5MjIgNTAuNDA2MjAxNiwxMjQuMzI4NjgyIEM0NC43NTAzODc2LDExNS45OTM3OTggNDAuNzgxMzk1MywxMDAuNjEzOTUzIDQ1Ljc0MjYzNTcsODkuMDA0NjUxMiBDNDYuMTM5NTM0OSw4OC4xMTE2Mjc5IDQ4LjAyNDgwNjIsODYuMjI2MzU2NiA0OC4zMjI0ODA2LDg0LjgzNzIwOTMgQzQ4LjkxNzgyOTUsODIuMDU4OTE0NyA0Ny4yMzEwMDc4LDc4LjM4NzU5NjkgNDcuMTMxNzgyOSw3NS40MTA4NTI3IEM0Ni42MzU2NTg5LDYwLjIyOTQ1NzQgNDkuNzExNjI3OSw0Ny4xMzE3ODI5IDU5LjkzMTc4MjksNDIuNTY3NDQxOSBDNjQuMDk5MjI0OCwyNS45OTY4OTkyIDc4Ljk4Mjk0NTcsMjAuNTM5NTM0OSA5Mi45NzM2NDM0LDEyLjMwMzg3NiBDOTguMjMyNTU4MSw5LjIyNzkwNjk4IDEwMy45ODc1OTcsNy4yNDM0MTA4NSAxMDkuOTQxMDg1LDUuMDYwNDY1MTIgQzEzMS4yNzQ0MTksLTIuNzc4Mjk0NTcgMTY0LjExNzgyOSwtMS4yODk5MjI0OCAxODEuODc5MDcsMTIuMTA1NDI2NCBDMTg5LjQyMDE1NSwxNy43NjEyNDAzIDIwMS40MjYzNTcsMjkuNzY3NDQxOSAyMDUuNjkzMDIzLDM4LjQ5OTIyNDggQzIxNy4xMDM4NzYsNjEuNDIwMTU1IDIxNi4yMTA4NTMsOTkuODIwMTU1IDIwOC4yNzI4NjgsMTI3LjgwMTU1IEMyMDcuMTgxMzk1LDEzMS41NzIwOTMgMjA1LjY5MzAyMywxMzcuMDI5NDU3IDIwMy41MTAwNzgsMTQxLjU5Mzc5OCBDMjAyLjAyMTcwNSwxNDQuNzY4OTkyIDE5Ny4zNTgxNCwxNTEuMDIwMTU1IDE5Ny44NTQyNjQsMTUzLjc5ODQ1IEMxOTguNDQ5NjEyLDE1Ni42NzU5NjkgMjA4LjU3MDU0MywxNjQuMzE2Mjc5IDIxMC43NTM0ODgsMTY2LjQgQzIxNC42MjMyNTYsMTcwLjE3MDU0MyAyMjIuMDY1MTE2LDE3NS4xMzE3ODMgMjIyLjY2MDQ2NSwxNzkuODk0NTc0IEMyMjMuMzU1MDM5LDE4NC45NTUwMzkgMjIwLjQ3NzUxOSwxOTEuOTAwNzc1IDIxOC45ODkxNDcsMTk2Ljc2Mjc5MSBDMjE0LjIyNjM1NywyMTMuMDM1NjU5IDIwOS40NjM1NjYsMjI4LjAxODYwNSAyMDQuMDA2MjAyLDI0Mi42MDQ2NTEgTDIwNC4wMDYyMDIsMjQyLjYwNDY1MSBaIj4mI3hhOyYjeGE7PC9wYXRoPiYjeGE7CQk8cGF0aCBmaWxsPSIjRjdFNENEIiBkPSJNMTI4LjA5OTIyNSwxMjkuODg1MjcxIEMxMjguNjk0NTc0LDEyOS4wOTE0NzMgMTMyLjA2ODIxNywxMjcuODAxNTUgMTM2LjgzMTAwOCwxMzAuMDgzNzIxIEMxMzYuODMxMDA4LDEzMC4wODM3MjEgMTMxLjE3NTE5NCwxMzAuOTc2NzQ0IDEzMS42NzEzMTgsMTQwLjQwMzEwMSBMMTI5LjI4OTkyMiwxMzkuOTA2OTc3IEMxMjkuMzg5MTQ3LDE0MC4wMDYyMDIgMTI2LjkwODUyNywxMzEuNDcyODY4IDEyOC4wOTkyMjUsMTI5Ljg4NTI3MSI+JiN4YTsmI3hhOzwvcGF0aD4mI3hhOwkJPHBhdGggZmlsbD0iIzFEMTkxOSIgZD0iTTE2OS4xNzgyOTUsMjEwLjQ1NTgxNCBDMTY5LjE3ODI5NSwyMTEuODQ0OTYxIDE2Ny45ODc1OTcsMjEzLjAzNTY1OSAxNjYuNTk4NDUsMjEzLjAzNTY1OSBDMTY1LjIwOTMwMiwyMTMuMDM1NjU5IDE2NC4wMTg2MDUsMjExLjg0NDk2MSAxNjQuMDE4NjA1LDIxMC40NTU4MTQgQzE2NC4wMTg2MDUsMjA5LjA2NjY2NyAxNjUuMjA5MzAyLDIwNy44NzU5NjkgMTY2LjU5ODQ1LDIwNy44NzU5NjkgQzE2OC4wODY4MjIsMjA3Ljg3NTk2OSAxNjkuMTc4Mjk1LDIwOS4wNjY2NjcgMTY5LjE3ODI5NSwyMTAuNDU1ODE0Ij4mI3hhOyYjeGE7PC9wYXRoPiYjeGE7CQk8cGF0aCBmaWxsPSIjMUQxOTE5IiBkPSJNMTcxLjc1ODE0LDIyMi40NjIwMTYgQzE3MS43NTgxNCwyMjMuODUxMTYzIDE3MC41Njc0NDIsMjI1LjA0MTg2IDE2OS4xNzgyOTUsMjI1LjA0MTg2IEMxNjcuNzg5MTQ3LDIyNS4wNDE4NiAxNjYuNTk4NDUsMjIzLjg1MTE2MyAxNjYuNTk4NDUsMjIyLjQ2MjAxNiBDMTY2LjU5ODQ1LDIyMS4wNzI4NjggMTY3Ljc4OTE0NywyMTkuODgyMTcxIDE2OS4xNzgyOTUsMjE5Ljg4MjE3MSBDMTcwLjY2NjY2NywyMTkuODgyMTcxIDE3MS43NTgxNCwyMjAuOTczNjQzIDE3MS43NTgxNCwyMjIuNDYyMDE2Ij4mI3hhOyYjeGE7PC9wYXRoPiYjeGE7CQk8ZyBmaWxsPSIjMjMxRjIwIiB0cmFuc2Zvcm09InRyYW5zbGF0ZSgwLjk5MjI0OCwgMzY3LjEzMTc4MykiPiYjeGE7CQkJPHBhdGggZD0iTTM1LjYyMTcwNTQsNy4xNDQxODYwNSBDMzQuODI3OTA3LDcuMjQzNDEwODUgMzQuMTMzMzMzMyw3LjM0MjYzNTY2IDMzLjUzNzk4NDUsNy40NDE4NjA0NyBDMzIuOTQyNjM1Nyw3LjU0MTA4NTI3IDMyLjM0NzI4NjgsNy42NDAzMTAwOCAzMS41NTM0ODg0LDcuODM4NzU5NjkgQzMwLjY2MDQ2NTEsOC4wMzcyMDkzIDMwLjE2NDM0MTEsOC40MzQxMDg1MyAyOS45NjU4OTE1LDkuMDI5NDU3MzYgQzI5Ljc2NzQ0MTksOS42MjQ4MDYyIDI5LjU2ODk5MjIsMTAuMjIwMTU1IDI5LjU2ODk5MjIsMTEuMDEzOTUzNSBMMjkuNTY4OTkyMiwzNS4yMjQ4MDYyIEMyOS41Njg5OTIyLDM3LjQwNzc1MTkgMjkuMDcyODY4MiwzOS40OTE0NzI5IDI4LjE3OTg0NSw0MS4zNzY3NDQyIEMyNy4yODY4MjE3LDQzLjI2MjAxNTUgMjYuMDk2MTI0LDQ0Ljc1MDM4NzYgMjQuNTA4NTI3MSw0Ni4wNDAzMTAxIEMyMi45MjA5MzAyLDQ3LjIzMTAwNzggMjEuMTM0ODgzNyw0OC4yMjMyNTU4IDE5LjE1MDM4NzYsNDguODE4NjA0NyBDMTcuMTY1ODkxNSw0OS40MTM5NTM1IDE1LjA4MjE3MDUsNDkuODEwODUyNyAxMi44OTkyMjQ4LDQ5LjgxMDg1MjcgQzkuMDI5NDU3MzYsNDkuODEwODUyNyA1Ljk1MzQ4ODM3LDQ4LjkxNzgyOTUgMy41NzIwOTMwMiw0Ny4wMzI1NTgxIEMxLjE5MDY5NzY3LDQ1LjE0NzI4NjggMCw0Mi42NjY2NjY3IDAsMzkuMzkyMjQ4MSBDMCwzNy41MDY5NzY3IDAuNDk2MTI0MDMxLDM1LjkxOTM3OTggMS41ODc1OTY5LDM0LjYyOTQ1NzQgQzIuNjc5MDY5NzcsMzMuMzM5NTM0OSA0LjE2NzQ0MTg2LDMyLjc0NDE4NiA2LjA1MjcxMzE4LDMyLjc0NDE4NiBDNy44Mzg3NTk2OSwzMi43NDQxODYgOS4yMjc5MDY5OCwzMy4yNDAzMTAxIDEwLjMxOTM3OTgsMzQuMzMxNzgyOSBDMTEuNDEwODUyNywzNS40MjMyNTU4IDExLjkwNjk3NjcsMzYuNzEzMTc4MyAxMS45MDY5NzY3LDM4LjIwMTU1MDQgQzExLjkwNjk3NjcsMzkuNDkxNDcyOSAxMS40MTA4NTI3LDQwLjc4MTM5NTMgMTAuNTE3ODI5NSw0MS44NzI4NjgyIEM5LjYyNDgwNjIsNDIuOTY0MzQxMSA4LjUzMzMzMzMzLDQ0LjA1NTgxNCA3LjM0MjYzNTY2LDQ0Ljk0ODgzNzIgTDcuMzQyNjM1NjYsNDUuMzQ1NzM2NCBDNy41NDEwODUyNyw0NS43NDI2MzU3IDcuOTM3OTg0NSw0Ni4xMzk1MzQ5IDguNTMzMzMzMzMsNDYuNDM3MjA5MyBDOS4xMjg2ODIxNyw0Ni43MzQ4ODM3IDkuODIzMjU1ODEsNDYuODM0MTA4NSAxMC40MTg2MDQ3LDQ2LjgzNDEwODUgQzEyLjg5OTIyNDgsNDYuODM0MTA4NSAxNC44ODM3MjA5LDQ1Ljk0MTA4NTMgMTYuMjcyODY4Miw0NC4xNTUwMzg4IEMxNy42NjIwMTU1LDQyLjM2ODk5MjIgMTguMzU2NTg5MSwzOS42ODk5MjI1IDE4LjM1NjU4OTEsMzYuMTE3ODI5NSBMMTguMzU2NTg5MSwxMS4zMTE2Mjc5IEMxOC4zNTY1ODkxLDEwLjYxNzA1NDMgMTguMjU3MzY0Myw5LjkyMjQ4MDYyIDE4LjA1ODkxNDcsOS40MjYzNTY1OSBDMTcuODYwNDY1MSw4LjkzMDIzMjU2IDE3LjI2NTExNjMsOC41MzMzMzMzMyAxNi4zNzIwOTMsOC4xMzY0MzQxMSBDMTUuNzc2NzQ0Miw3LjgzODc1OTY5IDE0Ljk4Mjk0NTcsNy42NDAzMTAwOCAxNC4wODk5MjI1LDcuNDQxODYwNDcgQzEzLjE5Njg5OTIsNy4yNDM0MTA4NSAxMi41MDIzMjU2LDcuMTQ0MTg2MDUgMTEuOTA2OTc2Nyw3LjA0NDk2MTI0IEwxMS45MDY5NzY3LDQuNjYzNTY1ODkgTDM1LjMyNDAzMSw0LjY2MzU2NTg5IEwzNS4zMjQwMzEsNy4xNDQxODYwNSBMMzUuNjIxNzA1NCw3LjE0NDE4NjA1IFoiPiYjeGE7JiN4YTs8L3BhdGg+JiN4YTsJCQk8cGF0aCBkPSJNNzIuMzM0ODgzNyw0MS4yNzc1MTk0IEM3MS42NDAzMTAxLDQyLjQ2ODIxNzEgNzAuNzQ3Mjg2OCw0My41NTk2ODk5IDY5Ljc1NTAzODgsNDQuNjUxMTYyOCBDNjguNzYyNzkwNyw0NS43NDI2MzU3IDY3LjU3MjA5Myw0Ni41MzY0MzQxIDY2LjI4MjE3MDUsNDcuMzMwMjMyNiBDNjQuODkzMDIzMyw0OC4xMjQwMzEgNjMuNTAzODc2LDQ4LjcxOTM3OTggNjIuMTE0NzI4Nyw0OS4xMTYyNzkxIEM2MC43MjU1ODE0LDQ5LjUxMzE3ODMgNTkuMDM4NzU5Nyw0OS43MTE2Mjc5IDU3LjI1MjcxMzIsNDkuNzExNjI3OSBDNTQuMTc2NzQ0Miw0OS43MTE2Mjc5IDUxLjU5Njg5OTIsNDkuMzE0NzI4NyA0OS4zMTQ3Mjg3LDQ4LjQyMTcwNTQgQzQ3LjEzMTc4MjksNDcuNTI4NjgyMiA0NS4yNDY1MTE2LDQ2LjQzNzIwOTMgNDMuODU3MzY0Myw0NC45NDg4MzcyIEM0Mi4zNjg5OTIyLDQzLjQ2MDQ2NTEgNDEuMzc2NzQ0Miw0MS43NzM2NDM0IDQwLjU4Mjk0NTcsMzkuNzg5MTQ3MyBDMzkuODg4MzcyMSwzNy44MDQ2NTEyIDM5LjQ5MTQ3MjksMzUuNjIxNzA1NCAzOS40OTE0NzI5LDMzLjMzOTUzNDkgQzM5LjQ5MTQ3MjksMzEuMjU1ODE0IDM5Ljg4ODM3MjEsMjkuMTcyMDkzIDQwLjY4MjE3MDUsMjcuMjg2ODIxNyBDNDEuNDc1OTY5LDI1LjQwMTU1MDQgNDIuNTY3NDQxOSwyMy42MTU1MDM5IDQzLjk1NjU4OTEsMjIuMTI3MTMxOCBDNDUuMzQ1NzM2NCwyMC42Mzg3NTk3IDQ3LjEzMTc4MjksMTkuNDQ4MDYyIDQ5LjMxNDcyODcsMTguNTU1MDM4OCBDNTEuNDk3Njc0NCwxNy42NjIwMTU1IDUzLjg3OTA2OTgsMTcuMTY1ODkxNSA1Ni40NTg5MTQ3LDE3LjE2NTg5MTUgQzU5LjMzNjQzNDEsMTcuMTY1ODkxNSA2MS43MTc4Mjk1LDE3LjU2Mjc5MDcgNjMuNjAzMTAwOCwxOC4yNTczNjQzIEM2NS40ODgzNzIxLDE4Ljk1MTkzOCA2Ni45NzY3NDQyLDE5Ljk0NDE4NiA2OC4xNjc0NDE5LDIxLjEzNDg4MzcgQzY5LjM1ODEzOTUsMjIuMzI1NTgxNCA3MC4xNTE5MzgsMjMuNzE0NzI4NyA3MC43NDcyODY4LDI1LjMwMjMyNTYgQzcxLjI0MzQxMDksMjYuODg5OTIyNSA3MS41NDEwODUzLDI4LjU3Njc0NDIgNzEuNTQxMDg1MywzMC4zNjI3OTA3IEw3MS41NDEwODUzLDMyLjM0NzI4NjggTDUwLjYwNDY1MTIsMzIuMzQ3Mjg2OCBDNTAuNjA0NjUxMiwzNi42MTM5NTM1IDUxLjM5ODQ0OTYsMzkuNzg5MTQ3MyA1My4wODUyNzEzLDQxLjk3MjA5MyBDNTQuNjcyODY4Miw0NC4xNTUwMzg4IDU3LjM1MTkzOCw0NS4yNDY1MTE2IDYwLjgyNDgwNjIsNDUuMjQ2NTExNiBDNjIuODA5MzAyMyw0NS4yNDY1MTE2IDY0LjQ5NjEyNCw0NC43NTAzODc2IDY2LjA4MzcyMDksNDMuNjU4OTE0NyBDNjcuNjcxMzE3OCw0Mi41Njc0NDE5IDY4Ljk2MTI0MDMsNDEuMjc3NTE5NCA3MC4wNTI3MTMyLDM5LjU5MDY5NzcgTDcyLjMzNDg4MzcsNDEuMjc3NTE5NCBMNzIuMzM0ODgzNyw0MS4yNzc1MTk0IFogTTYwLjUyNzEzMTgsMjkuNDY5NzY3NCBDNjAuNTI3MTMxOCwyOC4yNzkwNjk4IDYwLjQyNzkwNywyNi45ODkxNDczIDYwLjMyODY4MjIsMjUuNjk5MjI0OCBDNjAuMjI5NDU3NCwyNC40MDkzMDIzIDYwLjAzMTAwNzgsMjMuMzE3ODI5NSA1OS42MzQxMDg1LDIyLjUyNDAzMSBDNTkuMjM3MjA5MywyMS41MzE3ODI5IDU4Ljg0MDMxMDEsMjAuODM3MjA5MyA1OC4xNDU3MzY0LDIwLjM0MTA4NTMgQzU3LjU1MDM4NzYsMTkuODQ0OTYxMiA1Ni43NTY1ODkxLDE5LjY0NjUxMTYgNTUuODYzNTY1OSwxOS42NDY1MTE2IEM1NC4yNzU5NjksMTkuNjQ2NTExNiA1Mi45ODYwNDY1LDIwLjQ0MDMxMDEgNTIuMDkzMDIzMywyMi4wMjc5MDcgQzUxLjEwMDc3NTIsMjMuNjE1NTAzOSA1MC42MDQ2NTEyLDI2LjE5NTM0ODggNTAuNTA1NDI2NCwyOS42NjgyMTcxIEw2MC41MjcxMzE4LDI5LjQ2OTc2NzQgTDYwLjUyNzEzMTgsMjkuNDY5NzY3NCBaIj4mI3hhOyYjeGE7PC9wYXRoPiYjeGE7CQkJPHBhdGggZD0iTTExNi4wOTMwMjMsNDguNjIwMTU1IEw5Ny40Mzg3NTk3LDQ4LjYyMDE1NSBMOTcuNDM4NzU5Nyw0Ni4zMzc5ODQ1IEM5Ny44MzU2NTg5LDQ2LjMzNzk4NDUgOTguMzMxNzgyOSw0Ni4yMzg3NTk3IDk4LjgyNzkwNyw0Ni4xMzk1MzQ5IEM5OS40MjMyNTU4LDQ2LjA0MDMxMDEgOTkuODIwMTU1LDQ1Ljk0MTA4NTMgMTAwLjExNzgyOSw0NS44NDE4NjA1IEMxMDAuNTE0NzI5LDQ1LjY0MzQxMDkgMTAwLjgxMjQwMyw0NS4yNDY1MTE2IDEwMS4wMTA4NTMsNDQuODQ5NjEyNCBDMTAxLjIwOTMwMiw0NC40NTI3MTMyIDEwMS4zMDg1MjcsNDMuNzU4MTM5NSAxMDEuMzA4NTI3LDQyLjk2NDM0MTEgTDEwMS4zMDg1MjcsMjguNDc3NTE5NCBDMTAxLjMwODUyNywyNi4zOTM3OTg0IDEwMC45MTE2MjgsMjQuODA2MjAxNiAxMDAuMTE3ODI5LDIzLjcxNDcyODcgQzk5LjMyNDAzMSwyMi42MjMyNTU4IDk4LjIzMjU1ODEsMjIuMTI3MTMxOCA5Ni42NDQ5NjEyLDIyLjEyNzEzMTggQzk1Ljg1MTE2MjgsMjIuMTI3MTMxOCA5NS4wNTczNjQzLDIyLjIyNjM1NjYgOTQuMzYyNzkwNywyMi41MjQwMzEgQzkzLjY2ODIxNzEsMjIuNzIyNDgwNiA5Mi45NzM2NDM0LDIzLjExOTM3OTggOTIuMjc5MDY5OCwyMy42MTU1MDM5IEM5MS42ODM3MjA5LDI0LjAxMjQwMzEgOTEuMTg3NTk2OSwyNC40MDkzMDIzIDkwLjc5MDY5NzcsMjQuOTA1NDI2NCBDOTAuMzkzNzk4NCwyNS4zMDIzMjU2IDkwLjA5NjEyNCwyNS42OTkyMjQ4IDg5Ljg5NzY3NDQsMjYuMDk2MTI0IEw4OS44OTc2NzQ0LDQyLjY2NjY2NjcgQzg5Ljg5NzY3NDQsNDMuMzYxMjQwMyA4OS45OTY4OTkyLDQzLjk1NjU4OTEgOTAuMTk1MzQ4OCw0NC40NTI3MTMyIEM5MC4zOTM3OTg0LDQ0Ljk0ODgzNzIgOTAuNzkwNjk3Nyw0NS4zNDU3MzY0IDkxLjE4NzU5NjksNDUuNTQ0MTg2IEM5MS40ODUyNzEzLDQ1Ljc0MjYzNTcgOTEuODgyMTcwNSw0NS45NDEwODUzIDkyLjM3ODI5NDYsNDYuMDQwMzEwMSBDOTIuODc0NDE4Niw0Ni4xMzk1MzQ5IDkzLjM3MDU0MjYsNDYuMjM4NzU5NyA5My44NjY2NjY3LDQ2LjMzNzk4NDUgTDkzLjg2NjY2NjcsNDguNjIwMTU1IEw3NS4wMTM5NTM1LDQ4LjYyMDE1NSBMNzUuMDEzOTUzNSw0Ni4zMzc5ODQ1IEM3NS41MTAwNzc1LDQ2LjMzNzk4NDUgNzYuMDA2MjAxNiw0Ni4yMzg3NTk3IDc2LjYwMTU1MDQsNDYuMTM5NTM0OSBDNzcuMDk3Njc0NCw0Ni4wNDAzMTAxIDc3LjU5Mzc5ODQsNDUuOTQxMDg1MyA3Ny45OTA2OTc3LDQ1Ljg0MTg2MDUgQzc4LjY4NTI3MTMsNDUuNjQzNDEwOSA3OS4wODIxNzA1LDQ1LjI0NjUxMTYgNzkuMzc5ODQ1LDQ0Ljc1MDM4NzYgQzc5LjU3ODI5NDYsNDQuMjU0MjYzNiA3OS43NzY3NDQyLDQzLjY1ODkxNDcgNzkuNzc2NzQ0Miw0Mi44NjUxMTYzIEw3OS43NzY3NDQyLDI0LjgwNjIwMTYgQzc5Ljc3Njc0NDIsMjQuMjEwODUyNyA3OS41NzgyOTQ2LDIzLjUxNjI3OTEgNzkuMjgwNjIwMiwyMi45MjA5MzAyIEM3OC45ODI5NDU3LDIyLjMyNTU4MTQgNzguNDg2ODIxNywyMS44Mjk0NTc0IDc3Ljk5MDY5NzcsMjEuNDMyNTU4MSBDNzcuNTkzNzk4NCwyMS4yMzQxMDg1IDc3LjE5Njg5OTIsMjAuOTM2NDM0MSA3Ni42MDE1NTA0LDIwLjgzNzIwOTMgQzc2LjAwNjIwMTYsMjAuNjM4NzU5NyA3NS40MTA4NTI3LDIwLjUzOTUzNDkgNzQuNzE2Mjc5MSwyMC41Mzk1MzQ5IEw3NC43MTYyNzkxLDE4LjI1NzM2NDMgTDg5LjUwMDc3NTIsMTcuNDYzNTY1OSBMODkuOTk2ODk5MiwxNy45NTk2ODk5IEw4OS45OTY4OTkyLDIyLjQyNDgwNjIgTDkwLjA5NjEyNCwyMi40MjQ4MDYyIEM5MC42OTE0NzI5LDIxLjkyODY4MjIgOTEuMzg2MDQ2NSwyMS4zMzMzMzMzIDkyLjE3OTg0NSwyMC41Mzk1MzQ5IEM5Mi45NzM2NDM0LDE5Ljg0NDk2MTIgOTMuNzY3NDQxOSwxOS4yNDk2MTI0IDk0LjQ2MjAxNTUsMTguNzUzNDg4NCBDOTUuMjU1ODE0LDE4LjI1NzM2NDMgOTYuMjQ4MDYyLDE3Ljg2MDQ2NTEgOTcuNDM4NzU5NywxNy40NjM1NjU5IEM5OC42Mjk0NTc0LDE3LjA2NjY2NjcgMTAwLjAxODYwNSwxNi45Njc0NDE5IDEwMS40MDc3NTIsMTYuOTY3NDQxOSBDMTA0Ljc4MTM5NSwxNi45Njc0NDE5IDEwNy4yNjIwMTYsMTcuOTU5Njg5OSAxMDguOTQ4ODM3LDE5Ljg0NDk2MTIgQzExMC42MzU2NTksMjEuNzMwMjMyNiAxMTEuNDI5NDU3LDI0LjMxMDA3NzUgMTExLjQyOTQ1NywyNy40ODUyNzEzIEwxMTEuNDI5NDU3LDQyLjY2NjY2NjcgQzExMS40Mjk0NTcsNDMuNDYwNDY1MSAxMTEuNTI4NjgyLDQ0LjA1NTgxNCAxMTEuNzI3MTMyLDQ0LjQ1MjcxMzIgQzExMS45MjU1ODEsNDQuOTQ4ODM3MiAxMTIuNDIxNzA1LDQ1LjI0NjUxMTYgMTEzLjAxNzA1NCw0NS41NDQxODYgQzExMy4zMTQ3MjksNDUuNjQzNDEwOSAxMTMuNzExNjI4LDQ1Ljg0MTg2MDUgMTE0LjIwNzc1Miw0NS45NDEwODUzIEMxMTQuNzAzODc2LDQ2LjA0MDMxMDEgMTE1LjIsNDYuMTM5NTM0OSAxMTUuODk0NTc0LDQ2LjIzODc1OTcgTDExNS44OTQ1NzQsNDguNjIwMTU1IEwxMTYuMDkzMDIzLDQ4LjYyMDE1NSBaIj4mI3hhOyYjeGE7PC9wYXRoPiYjeGE7CQkJPHBhdGggZD0iTTE1OC43NTk2OSw0OC42MjAxNTUgTDE0NC4xNzM2NDMsNDguNjIwMTU1IEMxNDIuMzg3NTk3LDQ1LjQ0NDk2MTIgMTQwLjcwMDc3NSw0Mi43NjU4OTE1IDEzOS4yMTI0MDMsNDAuNTgyOTQ1NyBDMTM3LjcyNDAzMSwzOC40IDEzNi4zMzQ4ODQsMzYuMzE2Mjc5MSAxMzUuMDQ0OTYxLDM0LjUzMDIzMjYgTDEzMy4yNTg5MTUsMzYuMTE3ODI5NSBMMTMzLjI1ODkxNSw0Mi44NjUxMTYzIEMxMzMuMjU4OTE1LDQzLjU1OTY4OTkgMTMzLjM1ODE0LDQ0LjI1NDI2MzYgMTMzLjU1NjU4OSw0NC42NTExNjI4IEMxMzMuNzU1MDM5LDQ1LjE0NzI4NjggMTM0LjE1MTkzOCw0NS40NDQ5NjEyIDEzNC44NDY1MTIsNDUuNzQyNjM1NyBDMTM1LjI0MzQxMSw0NS45NDEwODUzIDEzNS42NDAzMSw0Ni4wNDAzMTAxIDEzNi4xMzY0MzQsNDYuMTM5NTM0OSBDMTM2LjYzMjU1OCw0Ni4yMzg3NTk3IDEzNy4xMjg2ODIsNDYuMzM3OTg0NSAxMzcuNjI0ODA2LDQ2LjMzNzk4NDUgTDEzNy42MjQ4MDYsNDguNjIwMTU1IEwxMTguMzc1MTk0LDQ4LjYyMDE1NSBMMTE4LjM3NTE5NCw0Ni4zMzc5ODQ1IEMxMTguODcxMzE4LDQ2LjMzNzk4NDUgMTE5LjM2NzQ0Miw0Ni4yMzg3NTk3IDExOS45NjI3OTEsNDYuMTM5NTM0OSBDMTIwLjQ1ODkxNSw0Ni4wNDAzMTAxIDEyMC45NTUwMzksNDUuOTQxMDg1MyAxMjEuMzUxOTM4LDQ1Ljg0MTg2MDUgQzEyMi4wNDY1MTIsNDUuNjQzNDEwOSAxMjIuNDQzNDExLDQ1LjI0NjUxMTYgMTIyLjc0MTA4NSw0NC43NTAzODc2IEMxMjIuOTM5NTM1LDQ0LjI1NDI2MzYgMTIzLjEzNzk4NCw0My42NTg5MTQ3IDEyMy4xMzc5ODQsNDIuODY1MTE2MyBMMTIzLjEzNzk4NCw4LjMzNDg4MzcyIEMxMjMuMTM3OTg0LDcuNjQwMzEwMDggMTIyLjkzOTUzNSw2Ljk0NTczNjQzIDEyMi42NDE4Niw2LjI1MTE2Mjc5IEMxMjIuMzQ0MTg2LDUuNTU2NTg5MTUgMTIxLjk0NzI4Nyw0Ljk2MTI0MDMxIDEyMS4zNTE5MzgsNC41NjQzNDEwOSBDMTIwLjk1NTAzOSw0LjM2NTg5MTQ3IDEyMC4zNTk2OSw0LjA2ODIxNzA1IDExOS41NjU4OTEsMy45Njg5OTIyNSBDMTE4Ljc3MjA5MywzLjc3MDU0MjY0IDExOC4wNzc1MTksMy42NzEzMTc4MyAxMTcuMzgyOTQ2LDMuNjcxMzE3ODMgTDExNy4zODI5NDYsMS4zODkxNDcyOSBMMTMyLjc2Mjc5MSwwLjU5NTM0ODgzNyBMMTMzLjI1ODkxNSwxLjA5MTQ3Mjg3IEwxMzMuMjU4OTE1LDMzLjA0MTg2MDUgQzEzNC43NDcyODcsMzEuNjUyNzEzMiAxMzYuNTMzMzMzLDMwLjA2NTExNjMgMTM4LjQxODYwNSwyOC4yNzkwNjk4IEMxNDAuMzAzODc2LDI2LjQ5MzAyMzMgMTQxLjg5MTQ3MywyNS4wMDQ2NTEyIDE0Mi45ODI5NDYsMjMuODEzOTUzNSBDMTQzLjY3NzUxOSwyMy4xMTkzNzk4IDE0NC4wNzQ0MTksMjIuNjIzMjU1OCAxNDQuMDc0NDE5LDIyLjIyNjM1NjYgQzE0NC4xNzM2NDMsMjEuODI5NDU3NCAxNDQuMTczNjQzLDIxLjYzMTAwNzggMTQ0LjE3MzY0MywyMS41MzE3ODI5IEMxNDQuMTczNjQzLDIxLjEzNDg4MzcgMTQzLjg3NTk2OSwyMC44MzcyMDkzIDE0My4xODEzOTUsMjAuNjM4NzU5NyBDMTQyLjQ4NjgyMiwyMC40NDAzMTAxIDE0MS41OTM3OTgsMjAuMTQyNjM1NyAxNDAuMjA0NjUxLDE5Ljk0NDE4NiBMMTQwLjIwNDY1MSwxNy43NjEyNDAzIEwxNTUuODgyMTcxLDE3Ljc2MTI0MDMgTDE1NS44ODIxNzEsMTkuOTQ0MTg2IEMxNTMuNzk4NDUsMjAuNTM5NTM0OSAxNTIuMjEwODUzLDIxLjAzNTY1ODkgMTUxLjExOTM4LDIxLjUzMTc4MjkgQzE1MC4wMjc5MDcsMjIuMDI3OTA3IDE0OC44MzcyMDksMjIuNzIyNDgwNiAxNDcuNTQ3Mjg3LDIzLjUxNjI3OTEgQzE0Ni42NTQyNjQsMjQuMTExNjI3OSAxNDUuODYwNDY1LDI0LjcwNjk3NjcgMTQ1LjA2NjY2NywyNS4zMDIzMjU2IEMxNDQuMjcyODY4LDI1Ljg5NzY3NDQgMTQzLjM3OTg0NSwyNi42OTE0NzI5IDE0Mi4yODgzNzIsMjcuNTg0NDk2MSBDMTQ0LjI3Mjg2OCwzMC41NjEyNDAzIDE0Ni4xNTgxNCwzMy4yNDAzMTAxIDE0Ny44NDQ5NjEsMzUuNzIwOTMwMiBDMTQ5LjUzMTc4MywzOC4yMDE1NTA0IDE1MS4zMTc4MjksNDAuODgwNjIwMiAxNTMuMjAzMTAxLDQzLjY1ODkxNDcgQzE1My43OTg0NSw0NC42NTExNjI4IDE1NC41OTIyNDgsNDUuMjQ2NTExNiAxNTUuNTg0NDk2LDQ1LjY0MzQxMDkgQzE1Ni41NzY3NDQsNDUuOTQxMDg1MyAxNTcuNDY5NzY3LDQ2LjEzOTUzNDkgMTU4LjQ2MjAxNiw0Ni4yMzg3NTk3IEwxNTguNDYyMDE2LDQ4LjYyMDE1NSBMMTU4Ljc1OTY5LDQ4LjYyMDE1NSBaIj4mI3hhOyYjeGE7PC9wYXRoPiYjeGE7CQkJPHBhdGggZD0iTTE3OC42MDQ2NTEsNDguNjIwMTU1IEwxNTkuMDU3MzY0LDQ4LjYyMDE1NSBMMTU5LjA1NzM2NCw0Ni4zMzc5ODQ1IEMxNTkuNTUzNDg4LDQ2LjMzNzk4NDUgMTYwLjE0ODgzNyw0Ni4yMzg3NTk3IDE2MC42NDQ5NjEsNDYuMTM5NTM0OSBDMTYxLjE0MTA4NSw0Ni4wNDAzMTAxIDE2MS42MzcyMDksNDUuOTQxMDg1MyAxNjEuOTM0ODg0LDQ1Ljg0MTg2MDUgQzE2Mi42Mjk0NTcsNDUuNjQzNDEwOSAxNjMuMDI2MzU3LDQ1LjI0NjUxMTYgMTYzLjMyNDAzMSw0NC43NTAzODc2IEMxNjMuNjIxNzA1LDQ0LjI1NDI2MzYgMTYzLjcyMDkzLDQzLjY1ODkxNDcgMTYzLjcyMDkzLDQyLjg2NTExNjMgTDE2My43MjA5MywyNC44MDYyMDE2IEMxNjMuNzIwOTMsMjQuMTExNjI3OSAxNjMuNTIyNDgxLDIzLjQxNzA1NDMgMTYzLjIyNDgwNiwyMi45MjA5MzAyIEMxNjIuOTI3MTMyLDIyLjMyNTU4MTQgMTYyLjUzMDIzMywyMS45Mjg2ODIyIDE2Mi4wMzQxMDksMjEuNjMxMDA3OCBDMTYxLjYzNzIwOSwyMS40MzI1NTgxIDE2MS4xNDEwODUsMjEuMTM0ODgzNyAxNjAuMzQ3Mjg3LDIwLjkzNjQzNDEgQzE1OS41NTM0ODgsMjAuNzM3OTg0NSAxNTguODU4OTE1LDIwLjUzOTUzNDkgMTU4LjI2MzU2NiwyMC41Mzk1MzQ5IEwxNTguMjYzNTY2LDE4LjI1NzM2NDMgTDE3My40NDQ5NjEsMTcuNDYzNTY1OSBMMTczLjk0MTA4NSwxNy45NTk2ODk5IEwxNzMuOTQxMDg1LDQyLjU2NzQ0MTkgQzE3My45NDEwODUsNDMuMjYyMDE1NSAxNzQuMTM5NTM1LDQzLjg1NzM2NDMgMTc0LjQzNzIwOSw0NC40NTI3MTMyIEMxNzQuNzM0ODg0LDQ0Ljk0ODgzNzIgMTc1LjIzMTAwOCw0NS4zNDU3MzY0IDE3NS43MjcxMzIsNDUuNTQ0MTg2IEMxNzYuMTI0MDMxLDQ1Ljc0MjYzNTcgMTc2LjYyMDE1NSw0NS45NDEwODUzIDE3Ny4xMTYyNzksNDYuMDQwMzEwMSBDMTc3LjYxMjQwMyw0Ni4xMzk1MzQ5IDE3OC4xMDg1MjcsNDYuMjM4NzU5NyAxNzguNzAzODc2LDQ2LjMzNzk4NDUgTDE3OC43MDM4NzYsNDguNjIwMTU1IEwxNzguNjA0NjUxLDQ4LjYyMDE1NSBaIE0xNzQuMTM5NTM1LDYuNDQ5NjEyNCBDMTc0LjEzOTUzNSw4LjAzNzIwOTMgMTczLjU0NDE4Niw5LjMyNzEzMTc4IDE3Mi4zNTM0ODgsMTAuNDE4NjA0NyBDMTcxLjE2Mjc5MSwxMS41MTAwNzc1IDE2OS42NzQ0MTksMTIuMTA1NDI2NCAxNjguMDg2ODIyLDEyLjEwNTQyNjQgQzE2Ni40LDEyLjEwNTQyNjQgMTY1LjAxMDg1MywxMS41MTAwNzc1IDE2My43MjA5MywxMC40MTg2MDQ3IEMxNjIuNTMwMjMzLDkuMzI3MTMxNzggMTYxLjkzNDg4NCw3LjkzNzk4NDUgMTYxLjkzNDg4NCw2LjQ0OTYxMjQgQzE2MS45MzQ4ODQsNC44NjIwMTU1IDE2Mi41MzAyMzMsMy41NzIwOTMwMiAxNjMuNzIwOTMsMi4zODEzOTUzNSBDMTY0LjkxMTYyOCwxLjI4OTkyMjQ4IDE2Ni40LDAuNjk0NTczNjQzIDE2OC4wODY4MjIsMC42OTQ1NzM2NDMgQzE2OS43NzM2NDMsMC42OTQ1NzM2NDMgMTcxLjE2Mjc5MSwxLjI4OTkyMjQ4IDE3Mi4zNTM0ODgsMi4zODEzOTUzNSBDMTczLjU0NDE4NiwzLjQ3Mjg2ODIyIDE3NC4xMzk1MzUsNC44NjIwMTU1IDE3NC4xMzk1MzUsNi40NDk2MTI0IEwxNzQuMTM5NTM1LDYuNDQ5NjEyNCBaIj4mI3hhOyYjeGE7PC9wYXRoPiYjeGE7CQkJPHBhdGggZD0iTTIyMi4zNjI3OTEsNDguNjIwMTU1IEwyMDMuNzA4NTI3LDQ4LjYyMDE1NSBMMjAzLjcwODUyNyw0Ni4zMzc5ODQ1IEMyMDQuMTA1NDI2LDQ2LjMzNzk4NDUgMjA0LjYwMTU1LDQ2LjIzODc1OTcgMjA1LjA5NzY3NCw0Ni4xMzk1MzQ5IEMyMDUuNjkzMDIzLDQ2LjA0MDMxMDEgMjA2LjA4OTkyMiw0NS45NDEwODUzIDIwNi4zODc1OTcsNDUuODQxODYwNSBDMjA2Ljc4NDQ5Niw0NS42NDM0MTA5IDIwNy4wODIxNzEsNDUuMjQ2NTExNiAyMDcuMjgwNjIsNDQuODQ5NjEyNCBDMjA3LjQ3OTA3LDQ0LjQ1MjcxMzIgMjA3LjU3ODI5NSw0My43NTgxMzk1IDIwNy41NzgyOTUsNDIuOTY0MzQxMSBMMjA3LjU3ODI5NSwyOC40Nzc1MTk0IEMyMDcuNTc4Mjk1LDI2LjM5Mzc5ODQgMjA3LjE4MTM5NSwyNC44MDYyMDE2IDIwNi4zODc1OTcsMjMuNzE0NzI4NyBDMjA1LjU5Mzc5OCwyMi42MjMyNTU4IDIwNC41MDIzMjYsMjIuMTI3MTMxOCAyMDIuOTE0NzI5LDIyLjEyNzEzMTggQzIwMi4xMjA5MywyMi4xMjcxMzE4IDIwMS4zMjcxMzIsMjIuMjI2MzU2NiAyMDAuNjMyNTU4LDIyLjUyNDAzMSBDMTk5LjkzNzk4NCwyMi44MjE3MDU0IDE5OS4yNDM0MTEsMjMuMTE5Mzc5OCAxOTguNTQ4ODM3LDIzLjYxNTUwMzkgQzE5Ny45NTM0ODgsMjQuMDEyNDAzMSAxOTcuNDU3MzY0LDI0LjQwOTMwMjMgMTk3LjA2MDQ2NSwyNC45MDU0MjY0IEMxOTYuNjYzNTY2LDI1LjMwMjMyNTYgMTk2LjM2NTg5MSwyNS42OTkyMjQ4IDE5Ni4xNjc0NDIsMjYuMDk2MTI0IEwxOTYuMTY3NDQyLDQyLjY2NjY2NjcgQzE5Ni4xNjc0NDIsNDMuMzYxMjQwMyAxOTYuMjY2NjY3LDQzLjk1NjU4OTEgMTk2LjQ2NTExNiw0NC40NTI3MTMyIEMxOTYuNjYzNTY2LDQ0Ljk0ODgzNzIgMTk3LjA2MDQ2NSw0NS4zNDU3MzY0IDE5Ny40NTczNjQsNDUuNTQ0MTg2IEMxOTcuNzU1MDM5LDQ1Ljc0MjYzNTcgMTk4LjE1MTkzOCw0NS45NDEwODUzIDE5OC42NDgwNjIsNDYuMDQwMzEwMSBDMTk5LjE0NDE4Niw0Ni4xMzk1MzQ5IDE5OS42NDAzMSw0Ni4yMzg3NTk3IDIwMC4xMzY0MzQsNDYuMzM3OTg0NSBMMjAwLjEzNjQzNCw0OC42MjAxNTUgTDE4MS4yODM3MjEsNDguNjIwMTU1IEwxODEuMjgzNzIxLDQ2LjMzNzk4NDUgQzE4MS43Nzk4NDUsNDYuMzM3OTg0NSAxODIuMjc1OTY5LDQ2LjIzODc1OTcgMTgyLjg3MTMxOCw0Ni4xMzk1MzQ5IEMxODMuMzY3NDQyLDQ2LjA0MDMxMDEgMTgzLjg2MzU2Niw0NS45NDEwODUzIDE4NC4yNjA0NjUsNDUuODQxODYwNSBDMTg0Ljk1NTAzOSw0NS42NDM0MTA5IDE4NS4zNTE5MzgsNDUuMjQ2NTExNiAxODUuNjQ5NjEyLDQ0Ljc1MDM4NzYgQzE4NS44NDgwNjIsNDQuMjU0MjYzNiAxODYuMDQ2NTEyLDQzLjY1ODkxNDcgMTg2LjA0NjUxMiw0Mi44NjUxMTYzIEwxODYuMDQ2NTEyLDI0LjgwNjIwMTYgQzE4Ni4wNDY1MTIsMjQuMjEwODUyNyAxODUuODQ4MDYyLDIzLjUxNjI3OTEgMTg1LjU1MDM4OCwyMi45MjA5MzAyIEMxODUuMjUyNzEzLDIyLjMyNTU4MTQgMTg0Ljc1NjU4OSwyMS44Mjk0NTc0IDE4NC4yNjA0NjUsMjEuNDMyNTU4MSBDMTgzLjg2MzU2NiwyMS4yMzQxMDg1IDE4My40NjY2NjcsMjAuOTM2NDM0MSAxODIuODcxMzE4LDIwLjgzNzIwOTMgQzE4Mi4yNzU5NjksMjAuNjM4NzU5NyAxODEuNjgwNjIsMjAuNTM5NTM0OSAxODAuOTg2MDQ3LDIwLjUzOTUzNDkgTDE4MC45ODYwNDcsMTguMjU3MzY0MyBMMTk1Ljc3MDU0MywxNy40NjM1NjU5IEwxOTYuMjY2NjY3LDE3Ljk1OTY4OTkgTDE5Ni4yNjY2NjcsMjIuNDI0ODA2MiBMMTk2LjM2NTg5MSwyMi40MjQ4MDYyIEMxOTYuOTYxMjQsMjEuOTI4NjgyMiAxOTcuNjU1ODE0LDIxLjMzMzMzMzMgMTk4LjQ0OTYxMiwyMC41Mzk1MzQ5IEMxOTkuMjQzNDExLDE5Ljg0NDk2MTIgMjAwLjAzNzIwOSwxOS4yNDk2MTI0IDIwMC43MzE3ODMsMTguNzUzNDg4NCBDMjAxLjUyNTU4MSwxOC4yNTczNjQzIDIwMi41MTc4MjksMTcuODYwNDY1MSAyMDMuNzA4NTI3LDE3LjQ2MzU2NTkgQzIwNC44OTkyMjUsMTcuMDY2NjY2NyAyMDYuMjg4MzcyLDE2Ljk2NzQ0MTkgMjA3LjY3NzUxOSwxNi45Njc0NDE5IEMyMTEuMDUxMTYzLDE2Ljk2NzQ0MTkgMjEzLjUzMTc4MywxNy45NTk2ODk5IDIxNS4yMTg2MDUsMTkuODQ0OTYxMiBDMjE2LjkwNTQyNiwyMS43MzAyMzI2IDIxNy42OTkyMjUsMjQuMzEwMDc3NSAyMTcuNjk5MjI1LDI3LjQ4NTI3MTMgTDIxNy42OTkyMjUsNDIuNjY2NjY2NyBDMjE3LjY5OTIyNSw0My40NjA0NjUxIDIxNy43OTg0NSw0NC4wNTU4MTQgMjE3Ljk5Njg5OSw0NC40NTI3MTMyIEMyMTguMTk1MzQ5LDQ0Ljk0ODgzNzIgMjE4LjY5MTQ3Myw0NS4yNDY1MTE2IDIxOS4yODY4MjIsNDUuNTQ0MTg2IEMyMTkuNTg0NDk2LDQ1LjY0MzQxMDkgMjE5Ljk4MTM5NSw0NS44NDE4NjA1IDIyMC40Nzc1MTksNDUuOTQxMDg1MyBDMjIwLjk3MzY0Myw0Ni4wNDAzMTAxIDIyMS40Njk3NjcsNDYuMTM5NTM0OSAyMjIuMTY0MzQxLDQ2LjIzODc1OTcgTDIyMi4xNjQzNDEsNDguNjIwMTU1IEwyMjIuMzYyNzkxLDQ4LjYyMDE1NSBaIj4mI3hhOyYjeGE7PC9wYXRoPiYjeGE7CQkJPHBhdGggZD0iTTIzOS41Mjg2ODIsNDkuNzExNjI3OSBDMjM3LjU0NDE4Niw0OS43MTE2Mjc5IDIzNS41NTk2OSw0OS40MTM5NTM1IDIzMy42NzQ0MTksNDguODE4NjA0NyBDMjMxLjc4OTE0Nyw0OC4yMjMyNTU4IDIzMC4zMDA3NzUsNDcuNjI3OTA3IDIyOS4yMDkzMDIsNDYuOTMzMzMzMyBMMjI4LjMxNjI3OSw0OS4wMTcwNTQzIEwyMjUuOTM0ODg0LDQ5LjAxNzA1NDMgTDIyNS41Mzc5ODQsMzcuNTA2OTc2NyBMMjI3LjgyMDE1NSwzNy41MDY5NzY3IEMyMjguMTE3ODI5LDM4LjQgMjI4LjYxMzk1MywzOS40OTE0NzI5IDIyOS40MDc3NTIsNDAuNjgyMTcwNSBDMjMwLjEwMjMyNiw0MS44NzI4NjgyIDIzMC45OTUzNDksNDIuODY1MTE2MyAyMzEuODg4MzcyLDQzLjg1NzM2NDMgQzIzMi44ODA2Miw0NC43NTAzODc2IDIzMy45NzIwOTMsNDUuNTQ0MTg2IDIzNS4yNjIwMTYsNDYuMjM4NzU5NyBDMjM2LjU1MTkzOCw0Ni44MzQxMDg1IDIzNy44NDE4Niw0Ny4yMzEwMDc4IDIzOS4yMzEwMDgsNDcuMjMxMDA3OCBDMjQxLjExNjI3OSw0Ny4yMzEwMDc4IDI0Mi41MDU0MjYsNDYuODM0MTA4NSAyNDMuMzk4NDUsNDYuMTM5NTM0OSBDMjQ0LjI5MTQ3Myw0NS40NDQ5NjEyIDI0NC43ODc1OTcsNDQuMjU0MjYzNiAyNDQuNzg3NTk3LDQyLjc2NTg5MTUgQzI0NC43ODc1OTcsNDEuOTcyMDkzIDI0NC41ODkxNDcsNDEuMjc3NTE5NCAyNDQuMTkyMjQ4LDQwLjY4MjE3MDUgQzI0My43OTUzNDksNDAuMTg2MDQ2NSAyNDMuMiwzOS42ODk5MjI1IDI0Mi41MDU0MjYsMzkuMjkzMDIzMyBDMjQxLjcxMTYyOCwzOC44OTYxMjQgMjQwLjgxODYwNSwzOC40OTkyMjQ4IDIzOS44MjYzNTcsMzguMjAxNTUwNCBDMjM4LjgzNDEwOSwzNy45MDM4NzYgMjM3LjY0MzQxMSwzNy42MDYyMDE2IDIzNi4yNTQyNjQsMzcuMTEwMDc3NSBDMjM0Ljg2NTExNiwzNi43MTMxNzgzIDIzMy42NzQ0MTksMzYuMzE2Mjc5MSAyMzIuNjgyMTcxLDM1LjgyMDE1NSBDMjMxLjY4OTkyMiwzNS40MjMyNTU4IDIzMC41OTg0NSwzNC43Mjg2ODIyIDIyOS42MDYyMDIsMzMuODM1NjU4OSBDMjI4LjcxMzE3OCwzMy4wNDE4NjA1IDIyNy45MTkzOCwzMi4wNDk2MTI0IDIyNy40MjMyNTYsMzAuOTU4MTM5NSBDMjI2LjgyNzkwNywyOS44NjY2NjY3IDIyNi42Mjk0NTcsMjguNDc3NTE5NCAyMjYuNjI5NDU3LDI2Ljg4OTkyMjUgQzIyNi42Mjk0NTcsMjQuMDEyNDAzMSAyMjcuODIwMTU1LDIxLjYzMTAwNzggMjMwLjMwMDc3NSwxOS44NDQ5NjEyIEMyMzIuNzgxMzk1LDE4LjA1ODkxNDcgMjM1Ljk1NjU4OSwxNy4xNjU4OTE1IDIzOS45MjU1ODEsMTcuMTY1ODkxNSBDMjQxLjgxMDg1MywxNy4xNjU4OTE1IDI0My40OTc2NzQsMTcuMzY0MzQxMSAyNDUuMDg1MjcxLDE3Ljc2MTI0MDMgQzI0Ni42NzI4NjgsMTguMTU4MTM5NSAyNDcuOTYyNzkxLDE4LjU1NTAzODggMjQ5LjA1NDI2NCwxOS4wNTExNjI4IEwyNDkuNzQ4ODM3LDE3LjI2NTExNjMgTDI1Mi4xMzAyMzMsMTcuMjY1MTE2MyBMMjUyLjYyNjM1NywyNy43ODI5NDU3IEwyNTAuNDQzNDExLDI3Ljc4Mjk0NTcgQzI0OS43NDg4MzcsMjUuNiAyNDguNDU4OTE1LDIzLjgxMzk1MzUgMjQ2Ljc3MjA5MywyMi4yMjYzNTY2IEMyNDQuOTg2MDQ3LDIwLjYzODc1OTcgMjQzLjEwMDc3NSwxOS44NDQ5NjEyIDI0MS4xMTYyNzksMTkuODQ0OTYxMiBDMjM5LjUyODY4MiwxOS44NDQ5NjEyIDIzOC4yMzg3NiwyMC4xNDI2MzU3IDIzNy4zNDU3MzYsMjAuODM3MjA5MyBDMjM2LjQ1MjcxMywyMS41MzE3ODI5IDIzNS45NTY1ODksMjIuNDI0ODA2MiAyMzUuOTU2NTg5LDIzLjYxNTUwMzkgQzIzNS45NTY1ODksMjUuMjAzMTAwOCAyMzYuNjUxMTYzLDI2LjI5NDU3MzYgMjM3Ljk0MTA4NSwyNi45ODkxNDczIEMyMzkuMjMxMDA4LDI3LjY4MzcyMDkgMjQxLjExNjI3OSwyOC4zNzgyOTQ2IDI0My40OTc2NzQsMjguOTczNjQzNCBDMjQ3LjE2ODk5MiwyOS45NjU4OTE1IDI0OS44NDgwNjIsMzEuMjU1ODE0IDI1MS42MzQxMDksMzIuODQzNDEwOSBDMjUzLjMyMDkzLDM0LjUzMDIzMjYgMjU0LjIxMzk1MywzNi42MTM5NTM1IDI1NC4yMTM5NTMsMzkuMDk0NTczNiBDMjU0LjIxMzk1Myw0Mi40NjgyMTcxIDI1Mi45MjQwMzEsNDUuMTQ3Mjg2OCAyNTAuMjQ0OTYxLDQ2LjkzMzMzMzMgQzI0Ny4yNjgyMTcsNDguNzE5Mzc5OCAyNDMuNzk1MzQ5LDQ5LjcxMTYyNzkgMjM5LjUyODY4Miw0OS43MTE2Mjc5IEwyMzkuNTI4NjgyLDQ5LjcxMTYyNzkgWiI+JiN4YTsmI3hhOzwvcGF0aD4mI3hhOwkJPC9nPiYjeGE7CTwvZz4mI3hhOzwvc3ZnPg==;" vertex="1" parent="fbrefnu1O2uLkhK6T9n--4">
          <mxGeometry x="30" y="30" width="48.86" height="80" as="geometry" />
        </mxCell>
        <mxCell id="fbrefnu1O2uLkhK6T9n--7" value="&lt;font style=&quot;font-size: 16px;&quot;&gt;Jenkins&lt;/font&gt;" style="text;html=1;align=center;verticalAlign=middle;whiteSpace=wrap;rounded=0;" vertex="1" parent="fbrefnu1O2uLkhK6T9n--4">
          <mxGeometry x="18.86" y="100" width="60" height="30" as="geometry" />
        </mxCell>
        <mxCell id="fbrefnu1O2uLkhK6T9n--9" value="&lt;font style=&quot;font-size: 14px;&quot;&gt;Amazon ECR&lt;/font&gt;" style="sketch=0;outlineConnect=0;fontColor=#232F3E;gradientColor=none;strokeColor=#ffffff;fillColor=#232F3E;dashed=0;verticalLabelPosition=middle;verticalAlign=bottom;align=center;html=1;whiteSpace=wrap;fontSize=10;fontStyle=1;spacing=3;shape=mxgraph.aws4.productIcon;prIcon=mxgraph.aws4.ecr;" vertex="1" parent="fbrefnu1O2uLkhK6T9n--5">
          <mxGeometry x="40" y="640" width="80" height="125" as="geometry" />
        </mxCell>
        <mxCell id="fbrefnu1O2uLkhK6T9n--105" value="" style="sketch=0;outlineConnect=0;fontColor=#232F3E;gradientColor=none;fillColor=#232F3D;strokeColor=none;dashed=0;verticalLabelPosition=bottom;verticalAlign=top;align=center;html=1;fontSize=12;fontStyle=0;aspect=fixed;pointerEvents=1;shape=mxgraph.aws4.user;" vertex="1" parent="fbrefnu1O2uLkhK6T9n--5">
          <mxGeometry x="-90" y="280" width="48" height="48" as="geometry" />
        </mxCell>
        <mxCell id="fbrefnu1O2uLkhK6T9n--107" value="&lt;font style=&quot;font-size: 14px;&quot;&gt;Developer&lt;/font&gt;" style="text;html=1;align=center;verticalAlign=middle;whiteSpace=wrap;rounded=0;" vertex="1" parent="fbrefnu1O2uLkhK6T9n--5">
          <mxGeometry x="-140" y="434" width="60" height="30" as="geometry" />
        </mxCell>
        <mxCell id="fbrefnu1O2uLkhK6T9n--74" value="" style="image;sketch=0;aspect=fixed;html=1;points=[];align=center;fontSize=12;image=img/lib/mscae/Docker.svg;" vertex="1" parent="1">
          <mxGeometry x="950" y="370" width="50" height="41" as="geometry" />
        </mxCell>
        <mxCell id="fbrefnu1O2uLkhK6T9n--75" value="&lt;font style=&quot;font-size: 16px;&quot;&gt;Frontend&lt;/font&gt;" style="text;html=1;align=center;verticalAlign=middle;whiteSpace=wrap;rounded=0;" vertex="1" parent="1">
          <mxGeometry x="610" y="410" width="60" height="30" as="geometry" />
        </mxCell>
        <mxCell id="fbrefnu1O2uLkhK6T9n--76" value="&lt;font style=&quot;font-size: 16px;&quot;&gt;Frontend&lt;/font&gt;" style="text;html=1;align=center;verticalAlign=middle;whiteSpace=wrap;rounded=0;" vertex="1" parent="1">
          <mxGeometry x="940" y="410" width="60" height="30" as="geometry" />
        </mxCell>
        <mxCell id="fbrefnu1O2uLkhK6T9n--81" value="&lt;font style=&quot;font-size: 16px;&quot;&gt;API&lt;/font&gt;" style="text;html=1;align=center;verticalAlign=middle;whiteSpace=wrap;rounded=0;" vertex="1" parent="1">
          <mxGeometry x="710" y="590" width="60" height="30" as="geometry" />
        </mxCell>
        <mxCell id="fbrefnu1O2uLkhK6T9n--82" value="&lt;font style=&quot;font-size: 16px;&quot;&gt;Gateway&lt;/font&gt;" style="text;html=1;align=center;verticalAlign=middle;whiteSpace=wrap;rounded=0;" vertex="1" parent="1">
          <mxGeometry x="860" y="590" width="60" height="30" as="geometry" />
        </mxCell>
        <mxCell id="fbrefnu1O2uLkhK6T9n--100" value="&lt;font style=&quot;font-size: 14px;&quot;&gt;calculationService&lt;/font&gt;" style="text;html=1;align=center;verticalAlign=middle;whiteSpace=wrap;rounded=0;" vertex="1" parent="1">
          <mxGeometry x="685" y="750" width="60" height="30" as="geometry" />
        </mxCell>
        <mxCell id="fbrefnu1O2uLkhK6T9n--101" value="&lt;font style=&quot;font-size: 14px;&quot;&gt;coreApiService&lt;/font&gt;" style="text;html=1;align=center;verticalAlign=middle;whiteSpace=wrap;rounded=0;" vertex="1" parent="1">
          <mxGeometry x="785" y="810" width="60" height="30" as="geometry" />
        </mxCell>
        <mxCell id="fbrefnu1O2uLkhK6T9n--102" value="&lt;font style=&quot;font-size: 14px;&quot;&gt;urlShortnerService&lt;/font&gt;" style="text;html=1;align=center;verticalAlign=middle;whiteSpace=wrap;rounded=0;" vertex="1" parent="1">
          <mxGeometry x="915" y="850" width="60" height="30" as="geometry" />
        </mxCell>
        <mxCell id="fbrefnu1O2uLkhK6T9n--103" value="&lt;font style=&quot;font-size: 14px;&quot;&gt;userData&lt;/font&gt;&lt;span style=&quot;font-size: 14px; background-color: initial;&quot;&gt;Service&lt;/span&gt;" style="text;html=1;align=center;verticalAlign=middle;whiteSpace=wrap;rounded=0;" vertex="1" parent="1">
          <mxGeometry x="865" y="750" width="60" height="30" as="geometry" />
        </mxCell>
        <mxCell id="fbrefnu1O2uLkhK6T9n--104" value="&lt;font style=&quot;font-size: 14px;&quot;&gt;npsService&lt;/font&gt;" style="text;html=1;align=center;verticalAlign=middle;whiteSpace=wrap;rounded=0;" vertex="1" parent="1">
          <mxGeometry x="975" y="770" width="60" height="30" as="geometry" />
        </mxCell>
        <mxCell id="fbrefnu1O2uLkhK6T9n--106" value="" style="sketch=0;outlineConnect=0;fontColor=#232F3E;gradientColor=none;fillColor=#232F3D;strokeColor=none;dashed=0;verticalLabelPosition=bottom;verticalAlign=top;align=center;html=1;fontSize=12;fontStyle=0;aspect=fixed;pointerEvents=1;shape=mxgraph.aws4.user;" vertex="1" parent="1">
          <mxGeometry x="32" y="370" width="48" height="48" as="geometry" />
        </mxCell>
        <mxCell id="fbrefnu1O2uLkhK6T9n--109" value="&lt;font style=&quot;font-size: 14px;&quot;&gt;User&lt;/font&gt;" style="text;html=1;align=center;verticalAlign=middle;whiteSpace=wrap;rounded=0;" vertex="1" parent="1">
          <mxGeometry x="70" y="314" width="60" height="30" as="geometry" />
        </mxCell>
        <mxCell id="fbrefnu1O2uLkhK6T9n--110" value="&lt;font style=&quot;font-size: 14px;&quot;&gt;GitHub&lt;/font&gt;" style="text;html=1;align=center;verticalAlign=middle;whiteSpace=wrap;rounded=0;" vertex="1" parent="1">
          <mxGeometry x="30" y="544" width="60" height="30" as="geometry" />
        </mxCell>
      </root>
    </mxGraphModel>
  </diagram>
</mxfile>
